#N canvas 0 0 925 1129 10; 
#X declare -lib cyclone -path cyclone; 
#X declare -path else; 
#N canvas 856 304 351 352 cents_interval 0; 
#X floatatom 46 274 8 0 0 1 cents - - 0; 
#X obj 46 229 expr [(log10($f1)) * 1200 / log10(2)]; 
#X obj 46 187 /; 
#X floatatom 142 148 8 0 0 1 Hz_frequência - - 0; 
#X floatatom 46 112 8 0 0 1 Hz_frequência - - 0; 
#X obj 92 187 send delay; 
#X obj 46 36 receive delay; 
#X obj 176 54 inlet; 
#X obj 232 96 inlet; 
#X obj 46 305 outlet; 
#X obj 46 70 delay 0.5; 
#X connect 0 0 9 0; 
#X connect 1 0 0 0; 
#X connect 2 0 1 0; 
#X connect 3 0 2 1; 
#X connect 3 0 5 0; 
#X connect 4 0 2 0; 
#X connect 6 0 10 0; 
#X connect 7 0 4 0; 
#X connect 8 0 3 0; 
#X connect 10 0 4 0; 
#X restore 384 247 pd cents_interval; 
#X text 2 387 www.nucleomusicanova.com | www.unespar.edu.br, f 46; 
#X text 2 346 BiA – Acoustics Library; 
#N canvas 837 335 422 298 teoria 0; 
#X text 28 47 Usando a fórmula...; 
#X text 69 81 cents = (1200/log2) * log (F2/F1); 
#X text 26 311 ...e assim por diante.; 
#X text 69 230 1 semitom = 100 cents; 
#X text 69 251 1 oitava = 1200 cents; 
#X text 69 269 1 quarto de tom = 50 cents; 
#X text 25 120 é possível calcular o intervalo em cents entre quaisquer duas frequências.; 
#X text 26 176 Lembre-se de que a unidade cent é usada para dividir um semitom em 100 partes. Por exemplo:; 
#X text 26 349 Basta digitar o intervalo desejado entre duas frequências e obterá o resultado.; 
#X restore -121 89 pd teoria; 
#X f 10; 
#X text 2 367 © 2025 Felipe de Almeid Ribeiro, f 35; 
#X obj 467 381 osc~; 
#X obj 402 381 osc~; 
#X obj 417 452 +~; 
#X obj 448 496 *~; 
#X obj 448 569 dac~; 
#X obj 984 598 *~; 
#X obj 984 652 dac~; 
#X obj 661 179 l.bng 25 250 50 0 empty empty empty 17 7 0 10 #e4e4e4 #4d4d4d #373737; 
#X obj 634 428 expr [($f1) * pow(10 \, (($f2) * log10(2)) / 1200)]; 
#X obj 723 354 * 1; 
#X obj 661 225 t b b b; 
#X floatatom 574 277 5 0 0 0 - - - 12; 
#X obj 29 160 l.tgl 52 0 empty empty empty 17 -10 0 10 #e4e4e4 #4d4d4d #373737 0 1; 
#X obj 627 129 metro 300; 
#X obj 761 259 counter 0 12; 
#X obj 1047 598 vline~; 
#X msg 1074 541 0.8 50 \, 0.5 50 50 \, 0.5 0 100 \, 0.5 100 100 \, 0 500 200; 
#X msg 946 323 model \$1; 
#X obj 1085 495 display; 
#X obj 1085 464 route name; 
#X obj 984 429 plaits~ 220; 
#X obj 984 560 +~; 
#X obj 508 300 abs; 
#X obj 1074 217 l.bng 25 250 50 0 empty empty empty 17 7 0 10 #e4e4e4 #4d4d4d #373737; 
#X obj 1047 255 random 100; 
#X obj 1053 290 / 100; 
#X obj 1139 255 random 100; 
#X obj 1145 290 / 100; 
#X obj 1231 255 random 100; 
#X obj 1237 290 / 100; 
#X msg 1173 372 timbre \$1; 
#X msg 1265 372 morph \$1; 
#X msg 1058 368 harmonics \$1; 
#X obj 375 100 loadmess 440; 
#X obj 467 160 loadmess 445; 
#X obj 1152 217 l.bng 25 250 50 0 empty empty empty 17 7 0 10 #e4e4e4 #4d4d4d #373737; 
#X obj 1231 217 l.bng 25 250 50 0 empty empty empty 17 7 0 10 #e4e4e4 #4d4d4d #373737; 
#X obj 467 419 *~ 0.5; 
#X obj 395 419 *~ 0.5; 
#X obj 991 217 l.bng 25 250 50 0 empty empty empty 17 7 0 10 #e4e4e4 #4d4d4d #373737; 
#X obj 961 290 + 1; 
#X obj 956 255 random 23; 
#X obj 126 160 l.bng 52 250 50 0 empty empty empty 11 -10 0 10 #e4e4e4 #4d4d4d #373737; 
#X obj 1012 509 *~ 0.5; 
#X obj 957 485 *~ 0.5; 
#X obj 661 36 loadmess 12; 
#X obj 1216 76 loadmess 21; 
#X obj 1318 166 loadmess 0.9; 
#X obj 1284 138 loadmess 0.07; 
#X obj 1250 106 loadmess 0.04; 
#X obj 230 160 l.bng 52 250 50 0 empty empty empty 11 -10 0 10 #e4e4e4 #4d4d4d #373737; 
#X text 29 33 Freq. nº1, f 14; 
#X text 195 33 Freq. nº2, f 13; 
#X msg 741 620 ANÁLISE DE CENTS; 
#X obj 741 581 loadbang; 
#X text 117 50 Hz, f 7; 
#X text 284 50 Hz, f 5; 
#X text 29 140 PLAY, f 10; 
#X text 230 140 RESET, f 11; 
#X text 27 87 BATIMENTO, f 20; 
#X text 108 223 STEPS, f 12; 
#X text 108 286 CENTS, f 11; 
#X text 126 140 TIMBRE, f 12; 
#X obj 30 108 l.hsl 250 29 0 0.99 0 0 empty empty empty -2 -8 0 10 #ffffff #000000 #373737 0 1; 
#X obj 414 25 declare -lib cyclone -path cyclone; 
#X text 99 8 ANÁLISE CENTS, f 24; 
#X obj 551 339 print; 
#X obj 634 451 print; 
#X obj 414 51 declare -path else; 
#X obj 29 51 l.nbx 4 30 -1e+37 1e+37 0 0 empty empty empty 0 -8 0 20 #e4e4e4 #000000 #373737 0 256; 
#X obj 195 51 l.nbx 4 30 -1e+37 1e+37 0 0 empty empty empty 0 -8 0 20 #e4e4e4 #000000 #373737 0 256; 
#X obj 108 247 l.nbx 4 30 -1e+37 1e+37 0 0 empty empty empty 0 -8 0 20 #e4e4e4 #000000 #373737 0 256; 
#X obj 108 310 l.nbx 4 30 -1e+37 1e+37 0 0 empty empty empty 0 -8 0 20 #e4e4e4 #000000 #373737 0 256; 
#X connect 0 0 27 0; 
#X connect 5 0 42 0; 
#X connect 6 0 43 0; 
#X connect 7 0 8 0; 
#X connect 8 0 9 0; 
#X connect 8 0 9 1; 
#X connect 10 0 11 0; 
#X connect 10 0 11 1; 
#X connect 12 0 15 0; 
#X connect 13 0 25 0; 
#X connect 13 0 72 0; 
#X connect 14 0 13 1; 
#X connect 15 0 21 0; 
#X connect 15 0 16 0; 
#X connect 15 1 77 0; 
#X connect 15 2 19 0; 
#X connect 16 0 13 0; 
#X connect 16 0 71 0; 
#X connect 17 0 18 0; 
#X connect 18 0 12 0; 
#X connect 19 0 14 1; 
#X connect 20 0 10 1; 
#X connect 21 0 20 0; 
#X connect 22 0 25 0; 
#X connect 24 0 23 0; 
#X connect 25 0 49 0; 
#X connect 25 1 48 0; 
#X connect 25 2 24 0; 
#X connect 26 0 10 0; 
#X connect 27 0 77 0; 
#X connect 28 0 29 0; 
#X connect 29 0 30 0; 
#X connect 30 0 37 0; 
#X connect 31 0 32 0; 
#X connect 32 0 35 0; 
#X connect 33 0 34 0; 
#X connect 34 0 36 0; 
#X connect 35 0 25 0; 
#X connect 36 0 25 0; 
#X connect 37 0 25 0; 
#X connect 38 0 74 0; 
#X connect 39 0 75 0; 
#X connect 40 0 31 0; 
#X connect 41 0 33 0; 
#X connect 42 0 7 1; 
#X connect 43 0 7 0; 
#X connect 44 0 46 0; 
#X connect 45 0 22 0; 
#X connect 46 0 45 0; 
#X connect 47 0 41 0; 
#X connect 47 0 40 0; 
#X connect 47 0 28 0; 
#X connect 47 0 44 0; 
#X connect 48 0 26 1; 
#X connect 49 0 26 0; 
#X connect 50 0 76 0; 
#X connect 51 0 22 0; 
#X connect 52 0 36 0; 
#X connect 53 0 35 0; 
#X connect 54 0 37 0; 
#X connect 55 0 38 0; 
#X connect 55 0 39 0; 
#X connect 55 0 50 0; 
#X connect 55 0 51 0; 
#X connect 55 0 54 0; 
#X connect 55 0 53 0; 
#X connect 55 0 52 0; 
#X connect 59 0 58 0; 
#X connect 68 0 8 1; 
#X connect 74 0 16 0; 
#X connect 74 0 0 0; 
#X connect 74 0 6 0; 
#X connect 75 0 0 1; 
#X connect 75 0 5 0; 
#X connect 76 0 19 4; 
#X connect 77 0 14 0; 
#X coords 0 0 1 1 317 430 1 0 0; 
