#N canvas 446 129 956 795.031 10;
#X obj 39 549 cnv 15 456 85 empty empty empty 20 12 0 14 -228856 -66577
0;
#X text 59 607 www.nucleomusicanova.com | www.unespar.edu.br;
#X text 59 591 patch by Felipe de Almeida Ribeiro;
#X text 59 557 BiA – Acoustics Library;
#X text 58 574 © 2017 Grupo de Pesquisa Núcleo Música Nova (CNPq/UNESPAR)
;
#X obj 39 24 cnv 15 456 35 empty \$0-pddp.cnv.header Síntese\ Aditiva
3 12 0 18 -204280 -1 0;
#X obj 440 308 envgen 203 123 1 0  ;
#X obj 425 489 *~;
#X obj 440 441 line~;
#X obj 425 514 dac~, f 5;
#X msg 464 266 duration 250;
#X floatatom 51 398 5 0 0 0 - - -, f 5;
#X floatatom 87 398 5 0 0 0 - - -, f 5;
#X floatatom 125 398 5 0 0 0 - - -, f 5;
#X floatatom 161 398 5 0 0 0 - - -, f 5;
#X floatatom 198 398 5 0 0 0 - - -, f 5;
#X floatatom 234 398 5 0 0 0 - - -, f 5;
#X floatatom 272 398 5 0 0 0 - - -, f 5;
#X floatatom 308 398 5 0 0 1 Amplitude - -, f 5;
#X floatatom 51 333 5 0 0 1 Fundamental_MIDI - -, f 5;
#X floatatom 87 371 5 0 0 2 harm2 - -, f 5;
#X floatatom 125 371 5 0 0 2 harm3 - -, f 5;
#X floatatom 161 371 5 0 0 2 harm4 - -, f 5;
#X floatatom 198 371 5 0 0 2 harm5 - -, f 5;
#X floatatom 234 371 5 0 0 2 harm6 - -, f 5;
#X floatatom 272 371 5 0 0 2 harm7 - -, f 5;
#X floatatom 308 371 5 0 0 2 harm8 - -, f 5;
#X text 341 371 Harmônico;
#X msg 459 245 0 50 1 50;
#X obj 51 139 t b b;
#X msg 440 213 dump;
#X obj 643 441 print;
#X msg 447 235 0 5 1 60 0.7 35 0;
#N canvas 1947 393 1703 464 síntese_aditiva 0;
#X obj 81 211 osc~;
#X floatatom 81 72 5 0 0 1 MIDI - -, f 5;
#X obj 81 105 mtof;
#X floatatom 81 191 5 0 0 0 Frequência - -, f 5;
#X obj 81 236 *~;
#X obj 118 211 expr (1/$f1);
#X obj 173 278 +~;
#X floatatom 118 191 5 0 0 1 Amplitude - -, f 5;
#X obj 291 211 osc~;
#X floatatom 291 191 5 0 0 0 Frequência - -, f 5;
#X obj 291 236 *~;
#X obj 328 211 expr (1/$f1);
#X obj 353 323 +~;
#X floatatom 328 191 5 0 0 1 Amplitude - -, f 5;
#X obj 501 211 osc~;
#X floatatom 501 191 5 0 0 0 Frequência - -, f 5;
#X obj 501 236 *~;
#X obj 538 211 expr (1/$f1);
#X obj 606 278 +~;
#X floatatom 538 191 5 0 0 1 Amplitude - -, f 5;
#X obj 711 211 osc~;
#X floatatom 711 191 5 0 0 0 Frequência - -, f 5;
#X obj 711 236 *~;
#X obj 748 211 expr (1/$f1);
#X obj 796 390 +~;
#X floatatom 748 191 5 0 0 1 Amplitude - -, f 5;
#X obj 921 211 osc~;
#X floatatom 921 191 5 0 0 0 Frequência - -, f 5;
#X obj 921 236 *~;
#X obj 958 211 expr (1/$f1);
#X obj 1019 278 +~;
#X floatatom 958 191 5 0 0 1 Amplitude - -, f 5;
#X obj 1131 211 osc~;
#X floatatom 1131 191 5 0 0 0 Frequência - -, f 5;
#X obj 1131 236 *~;
#X obj 1168 211 expr (1/$f1);
#X obj 1236 323 +~;
#X floatatom 1168 191 5 0 0 1 Amplitude - -, f 5;
#X obj 1343 211 osc~;
#X floatatom 1343 191 5 0 0 0 Frequência - -, f 5;
#X obj 1343 236 *~;
#X obj 1380 211 expr (1/$f1);
#X obj 1450 278 +~;
#X floatatom 1380 191 5 0 0 1 Amplitude - -, f 5;
#X obj 1553 211 osc~;
#X floatatom 1553 191 5 0 0 0 Frequência - -, f 5;
#X obj 1553 236 *~;
#X obj 1590 211 expr (1/$f1);
#X floatatom 1590 191 5 0 0 1 Amplitude - -, f 5;
#X obj 291 164 *;
#X obj 501 164 *;
#X obj 711 164 *;
#X obj 921 164 *;
#X obj 1131 164 *;
#X obj 1343 164 *;
#X obj 1553 164 *;
#X floatatom 1568 72 5 0 0 0 - - -, f 5;
#X floatatom 1358 72 5 0 0 0 - - -, f 5;
#X floatatom 1146 72 5 0 0 0 - - -, f 5;
#X floatatom 936 72 5 0 0 0 - - -, f 5;
#X floatatom 726 72 5 0 0 0 - - -, f 5;
#X floatatom 516 72 5 0 0 0 - - -, f 5;
#X floatatom 306 72 5 0 0 0 - - -, f 5;
#X obj 726 32 inlet;
#X obj 936 32 inlet;
#X obj 1146 32 inlet;
#X obj 1358 32 inlet;
#X obj 1568 32 inlet;
#X obj 516 32 inlet;
#X obj 306 32 inlet;
#X obj 81 32 inlet;
#X obj 796 421 outlet~;
#X obj 538 164 inlet;
#X obj 748 164 inlet;
#X obj 958 164 inlet;
#X obj 1168 164 inlet;
#X obj 1380 164 inlet;
#X obj 328 164 inlet;
#X obj 118 164 inlet;
#X obj 1590 164 inlet;
#X floatatom 118 233 5 0 0 0 - - -, f 5;
#X floatatom 538 233 5 0 0 0 - - -, f 5;
#X floatatom 748 233 5 0 0 0 - - -, f 5;
#X floatatom 328 233 5 0 0 0 - - -, f 5;
#X floatatom 958 233 5 0 0 0 - - -, f 5;
#X floatatom 1168 233 5 0 0 0 - - -, f 5;
#X floatatom 1380 233 5 0 0 0 - - -, f 5;
#X floatatom 1590 233 5 0 0 0 - - -, f 5;
#X connect 0 0 4 0;
#X connect 1 0 2 0;
#X connect 2 0 3 0;
#X connect 2 0 49 0;
#X connect 2 0 50 0;
#X connect 2 0 51 0;
#X connect 2 0 52 0;
#X connect 2 0 53 0;
#X connect 2 0 54 0;
#X connect 2 0 55 0;
#X connect 3 0 0 0;
#X connect 4 0 6 0;
#X connect 5 0 4 1;
#X connect 5 0 80 0;
#X connect 6 0 12 0;
#X connect 7 0 5 0;
#X connect 8 0 10 0;
#X connect 9 0 8 0;
#X connect 10 0 6 1;
#X connect 11 0 10 1;
#X connect 11 0 83 0;
#X connect 12 0 24 0;
#X connect 13 0 11 0;
#X connect 14 0 16 0;
#X connect 15 0 14 0;
#X connect 16 0 18 0;
#X connect 17 0 16 1;
#X connect 17 0 81 0;
#X connect 18 0 12 1;
#X connect 19 0 17 0;
#X connect 20 0 22 0;
#X connect 21 0 20 0;
#X connect 22 0 18 1;
#X connect 23 0 22 1;
#X connect 23 0 82 0;
#X connect 24 0 71 0;
#X connect 25 0 23 0;
#X connect 26 0 28 0;
#X connect 27 0 26 0;
#X connect 28 0 30 0;
#X connect 29 0 28 1;
#X connect 29 0 84 0;
#X connect 30 0 36 0;
#X connect 31 0 29 0;
#X connect 32 0 34 0;
#X connect 33 0 32 0;
#X connect 34 0 30 1;
#X connect 35 0 34 1;
#X connect 35 0 85 0;
#X connect 36 0 24 1;
#X connect 37 0 35 0;
#X connect 38 0 40 0;
#X connect 39 0 38 0;
#X connect 40 0 42 0;
#X connect 41 0 40 1;
#X connect 41 0 86 0;
#X connect 42 0 36 1;
#X connect 43 0 41 0;
#X connect 44 0 46 0;
#X connect 45 0 44 0;
#X connect 46 0 42 1;
#X connect 47 0 46 1;
#X connect 47 0 87 0;
#X connect 48 0 47 0;
#X connect 49 0 9 0;
#X connect 50 0 15 0;
#X connect 51 0 21 0;
#X connect 52 0 27 0;
#X connect 53 0 33 0;
#X connect 54 0 39 0;
#X connect 55 0 45 0;
#X connect 56 0 55 1;
#X connect 57 0 54 1;
#X connect 58 0 53 1;
#X connect 59 0 52 1;
#X connect 60 0 51 1;
#X connect 61 0 50 1;
#X connect 62 0 49 1;
#X connect 63 0 60 0;
#X connect 64 0 59 0;
#X connect 65 0 58 0;
#X connect 66 0 57 0;
#X connect 67 0 56 0;
#X connect 68 0 61 0;
#X connect 69 0 62 0;
#X connect 70 0 1 0;
#X connect 72 0 19 0;
#X connect 73 0 25 0;
#X connect 74 0 31 0;
#X connect 75 0 37 0;
#X connect 76 0 43 0;
#X connect 77 0 13 0;
#X connect 78 0 7 0;
#X connect 79 0 48 0;
#X restore 51 441 pd síntese_aditiva, f 46;
#X obj 51 80 bng 50 250 50 0 empty empty Tocar 65 7 0 38 -262144 -1
-1;
#N canvas 476 256 447 148 funcionamento 0;
#X text 43 38 Just type the interval you want \, between 2 frequencies
\, and you get the result. Just remind you that 1 semitone equals 100
cents.;
#X restore 656 308 pd funcionamento;
#N canvas 487 189 433 298 teoria 0;
#X text 28 47 Using the formula...;
#X text 26 82 cents = (1200/log2) * log (F2/F1) (Rossing \, 2001);
#X text 25 120 one is able to calculate the interval in cents between
any two frequencies.;
#X text 26 176 Remember that the cents unit is used to divide one semitone
in 100 different parts. For instance \, 1 semitone = 100 cents \; 1
octave = 1200 cents \; 1 quarter-tone = 50 cents and so on.;
#X restore 656 331 pd teoria;
#N canvas 494 71 446 626 exercício 0;
#X text 28 158 =================== exercise ================;
#X text 29 34 Note: please read the "Theory" section before proceeding:
;
#X text 30 59 In order to rebuild the patch \, use the blank space
in this window and create: 3 number boxes and obejcts [/] and [expr].
;
#X text 29 113 Revise Rossing's version of the cents formula and find
a way to implement it in [expr].;
#X restore 656 354 pd exercício;
#X msg 591 511 \; envgen duration 5000;
#X connect 6 0 8 0;
#X connect 6 1 31 0;
#X connect 7 0 9 1;
#X connect 7 0 9 0;
#X connect 8 0 7 1;
#X connect 10 0 6 0;
#X connect 11 0 33 1;
#X connect 12 0 33 3;
#X connect 13 0 33 5;
#X connect 14 0 33 7;
#X connect 15 0 33 9;
#X connect 16 0 33 11;
#X connect 17 0 33 13;
#X connect 18 0 33 15;
#X connect 19 0 33 0;
#X connect 20 0 33 2;
#X connect 21 0 33 4;
#X connect 22 0 33 6;
#X connect 23 0 33 8;
#X connect 24 0 33 10;
#X connect 25 0 33 12;
#X connect 26 0 33 14;
#X connect 28 0 6 0;
#X connect 29 0 19 0;
#X connect 29 1 6 0;
#X connect 30 0 6 0;
#X connect 32 0 6 0;
#X connect 33 0 7 0;
#X connect 34 0 29 0;
