#N canvas 846 338 401 294 10;
#N canvas 837 335 422 298 theory 0;
#X text 28 47 Using the formula...;
#X text 26 82 cents = (1200/log2) * log (F2/F1) (Rossing \, 2001);
#X text 25 120 one is able to calculate the interval in cents between
any two frequencies.;
#X text 26 176 Remember that the cents unit is used to divide one semitone
in 100 different parts. For instance \, 1 semitone = 100 cents \; 1
octave = 1200 cents \; 1 quarter-tone = 50 cents and so on.;
#X restore 189 133 pd theory;
#N canvas 822 389 447 148 how_it_works 0;
#X text 43 38 Just type the interval you want \, between 2 frequencies
\, and you get the result. Just remind you that 1 semitone equals 100
cents.;
#X restore 189 110 pd how_it_works;
#X floatatom 44 135 8 0 0 1 cents - -, f 8;
#X floatatom 143 52 8 0 0 1 Hz_frequência - -, f 8;
#X floatatom 44 23 8 0 0 1 Hz_frequência - -, f 8;
#N canvas 856 304 351 352 cents_interval 1;
#X floatatom 46 274 8 0 0 1 cents - -, f 8;
#X obj 46 229 expr [(log10($f1)) * 1200 / log10(2)];
#X obj 46 187 /;
#X floatatom 142 148 8 0 0 1 Hz_frequência - -, f 8;
#X floatatom 46 112 8 0 0 1 Hz_frequência - -, f 8;
#X obj 92 187 send delay;
#X obj 46 36 receive delay;
#X obj 46 70 delay 5;
#X obj 176 54 inlet;
#X obj 232 96 inlet;
#X obj 46 305 outlet;
#X connect 0 0 10 0;
#X connect 1 0 0 0;
#X connect 2 0 1 0;
#X connect 3 0 2 1;
#X connect 3 0 5 0;
#X connect 4 0 2 0;
#X connect 6 0 7 0;
#X connect 7 0 4 0;
#X connect 8 0 4 0;
#X connect 9 0 3 0;
#X restore 44 87 pd cents_interval;
#X text 25 246 www.nucleomusicanova.com | www.unespar.edu.br;
#X text 25 213 © 2016 Grupo de Pesquisa Núcleo Música Nova (CNPq/UNESPAR)
;
#X text 25 230 patch by Felipe de Almeida Ribeiro;
#X text 25 197 BiA – Acoustics Library;
#X connect 3 0 5 1;
#X connect 4 0 5 0;
#X connect 5 0 2 0;
