#N canvas 448 228 481 286 10;
#X obj 69 39 vradio 15 1 0 3 empty empty empty 0 -8 0 10 -262144 -1
-1 1;
#X text 89 54 Pythagoras;
#X text 89 69 Zarlino;
#X text 89 39 Off;
#N canvas 296 61 834 609 pythagoras_versus_zarlino 0;
#X obj 66 481 osc~;
#X obj 360 553 dac~;
#X obj 412 462 line;
#X floatatom 81 346 8 0 0 1 razão_intervalar - -, f 8;
#X floatatom 81 279 5 0 0 2 - - -, f 5;
#X floatatom 96 297 5 0 0 2 - - -, f 5;
#X floatatom 66 232 8 0 0 1 Hz_frequência_fundamental - -, f 8;
#X obj 81 317 /;
#X obj 66 367 *;
#X floatatom 66 401 8 0 0 1 Hz_frequência - -, f 8;
#X obj 101 481 osc~;
#X obj 101 446 * 3;
#X obj 66 508 *~ 1;
#X obj 101 508 *~ 0.33;
#X obj 150 481 osc~;
#X obj 193 481 osc~;
#X obj 255 481 osc~;
#X obj 150 446 * 5;
#X obj 193 446 * 7;
#X obj 255 446 * 9;
#X obj 150 508 *~ 0.2;
#X obj 193 508 *~ 0.1428;
#X obj 255 508 *~ 0.111;
#X obj 344 457 +~;
#X obj 360 522 *~;
#X obj 30 262 bng 15 250 50 0 empty empty empty 17 7 0 10 -262144 -1
-1;
#X obj 617 327 key;
#X obj 617 355 sel 32;
#X obj 401 356 bng 15 250 50 0 empty empty empty 17 7 0 10 -262144
-1 -1;
#X obj 453 410 bng 15 250 50 0 empty empty empty 17 7 0 10 -262144
-1 -1;
#X obj 39 166 loadbang;
#X msg 39 188 261.62;
#X obj 421 383 delay 200;
#N canvas 148 61 574 487 sistema 0;
#X text 38 224 Dó 2/1;
#X text 37 202 Si 15/8;
#X text 44 179 Lá 5/3;
#X text 41 155 Sol 3/2;
#X text 42 133 Fá 4/3;
#X text 42 113 Mi 5/4;
#X text 42 95 Ré 9/8;
#X text 42 76 Dó 1/1;
#X text 43 48 Zarlino;
#X obj 159 140 bng 15 250 50 0 empty empty empty 17 7 0 10 -262144
-1 -1;
#X msg 153 198 1;
#X msg 129 173 1;
#X obj 214 59 sel 97 115 100 102 103 104 106 107;
#X obj 427 257 outlet;
#X obj 209 141 bng 15 250 50 0 empty empty empty 17 7 0 10 -262144
-1 -1;
#X obj 258 141 bng 15 250 50 0 empty empty empty 17 7 0 10 -262144
-1 -1;
#X obj 308 142 bng 15 250 50 0 empty empty empty 17 7 0 10 -262144
-1 -1;
#X obj 353 140 bng 15 250 50 0 empty empty empty 17 7 0 10 -262144
-1 -1;
#X obj 403 141 bng 15 250 50 0 empty empty empty 17 7 0 10 -262144
-1 -1;
#X obj 452 139 bng 15 250 50 0 empty empty empty 17 7 0 10 -262144
-1 -1;
#X obj 502 140 bng 15 250 50 0 empty empty empty 17 7 0 10 -262144
-1 -1;
#X msg 496 198 1;
#X msg 472 173 2;
#X msg 323 173 3;
#X msg 347 198 2;
#X msg 302 200 3;
#X msg 179 174 9;
#X msg 203 199 8;
#X obj 64 423 outlet;
#X obj 70 374 pipe 10;
#X msg 228 174 5;
#X msg 252 199 4;
#X msg 278 175 4;
#X msg 373 174 5;
#X msg 397 199 3;
#X msg 422 171 15;
#X msg 446 197 8;
#X obj 214 30 inlet;
#X connect 9 0 11 0;
#X connect 9 0 10 0;
#X connect 10 0 13 0;
#X connect 11 0 29 0;
#X connect 12 0 9 0;
#X connect 12 1 14 0;
#X connect 12 2 15 0;
#X connect 12 3 16 0;
#X connect 12 4 17 0;
#X connect 12 5 18 0;
#X connect 12 6 19 0;
#X connect 12 7 20 0;
#X connect 14 0 26 0;
#X connect 14 0 27 0;
#X connect 15 0 30 0;
#X connect 15 0 31 0;
#X connect 16 0 32 0;
#X connect 16 0 25 0;
#X connect 17 0 23 0;
#X connect 17 0 24 0;
#X connect 18 0 33 0;
#X connect 18 0 34 0;
#X connect 19 0 35 0;
#X connect 19 0 36 0;
#X connect 20 0 22 0;
#X connect 20 0 21 0;
#X connect 21 0 13 0;
#X connect 22 0 29 0;
#X connect 23 0 29 0;
#X connect 24 0 13 0;
#X connect 25 0 13 0;
#X connect 26 0 29 0;
#X connect 27 0 13 0;
#X connect 29 0 28 0;
#X connect 30 0 29 0;
#X connect 31 0 13 0;
#X connect 32 0 29 0;
#X connect 33 0 29 0;
#X connect 34 0 13 0;
#X connect 35 0 29 0;
#X connect 36 0 13 0;
#X connect 37 0 12 0;
#X restore 347 255 pd sistema diatônico de Pitágoras vs. Zarlino
(7 notas);
#X msg 375 421 0 \, 1 100;
#X msg 468 434 1 \, 0 100;
#N canvas 100 60 586 482 sistema 0;
#X text 34 47 Pythagoras;
#X text 34 75 Dó 1/1;
#X text 34 95 Ré 9/8;
#X text 35 114 Mi 81/64;
#X text 34 133 Fá 4/3;
#X text 34 154 Sol 3/2;
#X text 35 177 Lá 27/16;
#X text 35 199 Si 243/128;
#X text 35 220 Dó 2/1;
#X obj 169 136 bng 15 250 50 0 empty empty empty 17 7 0 10 -262144
-1 -1;
#X msg 163 194 1;
#X msg 139 169 1;
#X obj 224 55 sel 97 115 100 102 103 104 106 107;
#X obj 437 253 outlet;
#X obj 219 137 bng 15 250 50 0 empty empty empty 17 7 0 10 -262144
-1 -1;
#X obj 268 137 bng 15 250 50 0 empty empty empty 17 7 0 10 -262144
-1 -1;
#X obj 318 138 bng 15 250 50 0 empty empty empty 17 7 0 10 -262144
-1 -1;
#X obj 363 136 bng 15 250 50 0 empty empty empty 17 7 0 10 -262144
-1 -1;
#X obj 413 137 bng 15 250 50 0 empty empty empty 17 7 0 10 -262144
-1 -1;
#X obj 462 135 bng 15 250 50 0 empty empty empty 17 7 0 10 -262144
-1 -1;
#X obj 512 136 bng 15 250 50 0 empty empty empty 17 7 0 10 -262144
-1 -1;
#X msg 506 194 1;
#X msg 482 169 2;
#X msg 432 168 243;
#X msg 456 193 128;
#X msg 383 170 27;
#X msg 407 195 16;
#X msg 333 169 3;
#X msg 357 194 2;
#X msg 312 196 3;
#X msg 288 171 4;
#X msg 238 170 81;
#X msg 262 195 64;
#X msg 189 170 9;
#X msg 213 195 8;
#X obj 74 419 outlet;
#X obj 80 370 pipe 10;
#X obj 169 16 inlet;
#X connect 9 0 11 0;
#X connect 9 0 10 0;
#X connect 10 0 13 0;
#X connect 11 0 36 0;
#X connect 12 0 9 0;
#X connect 12 1 14 0;
#X connect 12 2 15 0;
#X connect 12 3 16 0;
#X connect 12 4 17 0;
#X connect 12 5 18 0;
#X connect 12 6 19 0;
#X connect 12 7 20 0;
#X connect 14 0 33 0;
#X connect 14 0 34 0;
#X connect 15 0 31 0;
#X connect 15 0 32 0;
#X connect 16 0 30 0;
#X connect 16 0 29 0;
#X connect 17 0 27 0;
#X connect 17 0 28 0;
#X connect 18 0 25 0;
#X connect 18 0 26 0;
#X connect 19 0 23 0;
#X connect 19 0 24 0;
#X connect 20 0 22 0;
#X connect 20 0 21 0;
#X connect 21 0 13 0;
#X connect 22 0 36 0;
#X connect 23 0 36 0;
#X connect 24 0 13 0;
#X connect 25 0 36 0;
#X connect 26 0 13 0;
#X connect 27 0 36 0;
#X connect 28 0 13 0;
#X connect 29 0 13 0;
#X connect 30 0 36 0;
#X connect 31 0 36 0;
#X connect 32 0 13 0;
#X connect 33 0 36 0;
#X connect 34 0 13 0;
#X connect 36 0 35 0;
#X connect 37 0 12 0;
#X restore 81 255 pd sistema diatônico de Pitágoras (7 notas);
#X obj 310 174 key;
#X obj 317 205 spigot;
#X obj 363 177 tgl 15 0 empty empty empty 17 7 0 10 -262144 -1 -1 1
1;
#X obj 362 204 spigot;
#X obj 408 176 tgl 15 0 empty empty empty 17 7 0 10 -262144 -1 -1 0
1;
#X msg 617 437 \; pd dsp \$1;
#X obj 502 281 vsl 15 100 0.01 1 1 0 empty empty empty 0 -9 0 10 -262144
-1 -1 0 1;
#X msg 544 434 \$1 5;
#X obj 542 463 line~;
#X msg 373 128 0;
#X msg 412 129 1;
#X msg 467 134 0;
#X msg 510 136 1;
#X obj 433 100 sel 1 2;
#X obj 617 394 tgl 15 0 empty empty empty 17 7 0 10 -262144 -1 -1 1
1;
#X obj 372 26 inlet;
#X connect 0 0 12 0;
#X connect 2 0 43 0;
#X connect 3 0 8 1;
#X connect 3 0 25 0;
#X connect 4 0 7 0;
#X connect 5 0 7 1;
#X connect 6 0 8 0;
#X connect 7 0 3 0;
#X connect 8 0 9 0;
#X connect 9 0 11 0;
#X connect 9 0 0 0;
#X connect 9 0 17 0;
#X connect 9 0 18 0;
#X connect 9 0 19 0;
#X connect 9 0 28 0;
#X connect 10 0 13 0;
#X connect 11 0 10 0;
#X connect 12 0 23 0;
#X connect 13 0 23 0;
#X connect 14 0 20 0;
#X connect 15 0 21 0;
#X connect 16 0 22 0;
#X connect 17 0 14 0;
#X connect 18 0 15 0;
#X connect 19 0 16 0;
#X connect 20 0 23 0;
#X connect 21 0 23 0;
#X connect 22 0 23 0;
#X connect 23 0 24 0;
#X connect 24 0 1 0;
#X connect 24 0 1 1;
#X connect 25 0 6 0;
#X connect 26 0 27 0;
#X connect 27 0 51 0;
#X connect 28 0 34 0;
#X connect 28 0 32 0;
#X connect 29 0 35 0;
#X connect 30 0 31 0;
#X connect 31 0 6 0;
#X connect 32 0 29 0;
#X connect 33 0 4 0;
#X connect 33 1 5 0;
#X connect 34 0 2 0;
#X connect 35 0 2 0;
#X connect 36 0 4 0;
#X connect 36 1 5 0;
#X connect 37 0 38 0;
#X connect 37 0 40 0;
#X connect 38 0 36 0;
#X connect 39 0 38 1;
#X connect 40 0 33 0;
#X connect 41 0 40 1;
#X connect 43 0 44 0;
#X connect 44 0 45 0;
#X connect 45 0 24 1;
#X connect 46 0 41 0;
#X connect 47 0 39 0;
#X connect 48 0 39 0;
#X connect 49 0 41 0;
#X connect 50 0 46 0;
#X connect 50 0 47 0;
#X connect 50 1 48 0;
#X connect 50 1 49 0;
#X connect 51 0 42 0;
#X connect 52 0 50 0;
#X restore 69 92 pd pythagoras_versus_zarlino;
#N canvas 542 234 299 284 theory 0;
#X text 35 32 Pythagoras;
#X text 35 60 Dó 1/1;
#X text 35 80 Ré 9/8;
#X text 36 99 Mi 81/64;
#X text 35 118 Fá 4/3;
#X text 35 139 Sol 3/2;
#X text 36 162 Lá 27/16;
#X text 36 184 Si 243/128;
#X text 36 205 Dó 2/1;
#X text 171 209 Dó 2/1;
#X text 170 187 Si 15/8;
#X text 177 164 Lá 5/3;
#X text 174 140 Sol 3/2;
#X text 175 118 Fá 4/3;
#X text 175 98 Mi 5/4;
#X text 175 80 Ré 9/8;
#X text 175 61 Dó 1/1;
#X text 176 33 Zarlino;
#X restore 69 117 pd theory;
#N canvas 471 251 443 187 how_it_works 0;
#X text 58 50 On/Off – use "space" key;
#X text 58 79 The 7 diatonic keys can be played with (monophonic):
;
#X text 59 112 A-S-D-F-G-H-J-K;
#X restore 134 117 pd how_it_works;
#X text 66 219 www.nucleomusicanova.com | www.unespar.edu.br;
#X text 66 186 © 2016 Grupo de Pesquisa Núcleo Música Nova (CNPq/UNESPAR)
;
#X text 66 203 patch by Felipe de Almeida Ribeiro;
#X text 66 169 BiA – Acoustics Library;
#X connect 0 0 4 0;
