#N canvas 400 309 1198 797 10;
#N canvas 246 189 680 175 theory 0;
#X restore 55 637 pd theory;
#N canvas 569 341 444 189 how_it_works 0;
#X restore 120 637 pd how_it_works;
#X text 53 733 www.nucleomusicanova.com | www.unespar.edu.br;
#X text 53 717 patch by Felipe de Almeida Ribeiro;
#X text 53 683 BiA – Acoustics Library;
#X msg 184 278 16/9;
#X msg 228 278 20/11;
#X msg 164 256 8/7;
#X msg 208 256 10/9;
#X msg 251 256 12/11;
#X msg 140 234 4/3;
#X msg 184 234 10/7;
#X msg 227 234 4/3;
#X msg 269 234 14/11;
#X text 83 33 Harry Partch's Diamond Marimba (Just Intonation);
#X msg 269 190 9/9;
#X msg 310 190 11/11;
#X msg 227 190 7/7;
#X msg 184 190 3/3;
#X msg 140 190 5/5;
#X msg 97 190 1/1;
#X msg 119 212 8/5;
#X msg 162 212 5/3;
#X msg 206 212 12/7;
#X msg 249 212 14/9;
#X msg 291 212 18/11;
#X msg 116 168 5/4;
#X msg 160 168 6/5;
#X msg 203 168 7/6;
#X msg 245 168 9/7;
#X msg 287 168 11/9;
#X msg 140 146 3/2;
#X msg 184 146 7/5;
#X msg 227 146 3/2;
#X msg 270 146 11/7;
#X msg 161 124 7/4;
#X msg 204 124 9/5;
#X msg 246 124 11/6;
#X msg 184 102 9/8;
#X msg 227 102 11/10;
#X msg 204 80 11/8;
#N canvas 296 32 761 705 exercise 0;
#X restore 221 637 pd exercise;
#X text 53 700 © 2018 Grupo de Pesquisa Núcleo Música Nova (CNPq/UNESPAR)
;
#X msg 208 300 16/11;
#X obj 594 74 bng 30 250 50 0 empty empty empty 17 7 0 10 -262144 -228856
-1;
#N canvas 812 466 198 269 16/11 0;
#X msg 57 100 16;
#X msg 87 100 11;
#X floatatom 57 176 5 0 0 0 - - -, f 5;
#X obj 57 138 expr $f1/$f2;
#X obj 57 69 t b b;
#X obj 57 36 inlet;
#X obj 57 207 outlet;
#X connect 0 0 3 0;
#X connect 1 0 3 1;
#X connect 2 0 6 0;
#X connect 3 0 2 0;
#X connect 4 0 0 0;
#X connect 4 1 1 0;
#X connect 5 0 4 0;
#X restore 594 106 pd 16/11;
#X obj 571 127 bng 30 250 50 0 empty empty empty 17 7 0 10 -262144
-228856 -1;
#N canvas 812 466 198 269 16/11 0;
#X msg 57 100 16;
#X msg 87 100 11;
#X floatatom 57 176 5 0 0 0 - - -, f 5;
#X obj 57 138 expr $f1/$f2;
#X obj 57 69 t b b;
#X obj 57 36 inlet;
#X obj 57 207 outlet;
#X connect 0 0 3 0;
#X connect 1 0 3 1;
#X connect 2 0 6 0;
#X connect 3 0 2 0;
#X connect 4 0 0 0;
#X connect 4 1 1 0;
#X connect 5 0 4 0;
#X restore 571 159 pd 16/11;
#X obj 627 127 bng 30 250 50 0 empty empty empty 17 7 0 10 -262144
-228856 -1;
#N canvas 812 466 198 269 16/11 0;
#X msg 56 100 16;
#X msg 86 100 11;
#X floatatom 56 176 5 0 0 0 - - -, f 5;
#X obj 56 138 expr $f1/$f2;
#X obj 56 69 t b b;
#X obj 56 36 inlet;
#X obj 56 207 outlet;
#X connect 0 0 3 0;
#X connect 1 0 3 1;
#X connect 2 0 6 0;
#X connect 3 0 2 0;
#X connect 4 0 0 0;
#X connect 4 1 1 0;
#X connect 5 0 4 0;
#X restore 627 159 pd 16/11;
#X connect 44 0 45 0;
#X connect 46 0 47 0;
#X connect 48 0 49 0;
