#N canvas 437 231 504 277 10;
#X obj 64 45 vradio 15 1 0 3 empty empty empty 0 -8 0 10 -262144 -1
-1 1;
#X text 84 45 Off;
#N canvas 246 189 680 175 theory 0;
#X text 440 60 Werckmeister V (values in cents);
#X msg 25 59 0;
#X msg 401 59 1200;
#X msg 55 59 96;
#X msg 85 59 204;
#X msg 115 59 300;
#X msg 145 59 396;
#X msg 176 59 504;
#X msg 207 59 600;
#X msg 239 59 702;
#X msg 270 59 792;
#X msg 300 59 900;
#X msg 329 59 1002;
#X msg 365 59 1098;
#X text 439 91 Rameau II (values in cents);
#X msg 25 91 0;
#X msg 55 91 90;
#X msg 85 91 193;
#X msg 115 91 303;
#X msg 145 91 386;
#X msg 176 91 503;
#X msg 207 91 581;
#X msg 239 91 697;
#X msg 270 91 798;
#X msg 300 91 890;
#X msg 329 91 1007;
#X msg 365 91 1083;
#X msg 401 91 1200;
#X restore 64 123 pd theory;
#N canvas 569 341 444 189 how_it_works 0;
#X text 58 50 On/Off – use "space" key;
#X text 59 112 A-W-S-E-D-F-T-G-Y-H-U-J-K;
#X text 58 79 The 12 chromatic keys can be played with (monophonic):
;
#X restore 129 123 pd how_it_works;
#X text 84 75 Rameau II;
#N canvas 694 225 761 705 werckmeister_versus_rameau 1;
#X obj 473 666 dac~;
#X obj 554 396 line;
#X floatatom 299 226 8 0 0 1 cents - -, f 8;
#X obj 473 635 *~;
#X obj 17 450 key;
#X obj 17 478 sel 32;
#X obj 17 503 tgl 15 0 empty empty empty 17 7 0 10 -262144 -1 -1 1
1;
#X obj 543 290 bng 15 250 50 0 empty empty empty 17 7 0 10 -262144
-1 -1;
#X obj 595 344 bng 15 250 50 0 empty empty empty 17 7 0 10 -262144
-1 -1;
#X obj 563 317 delay 200;
#X obj 392 112 key;
#X obj 399 143 spigot;
#X obj 445 115 tgl 15 0 empty empty empty 17 7 0 10 -262144 -1 -1 1
1;
#X obj 444 142 spigot;
#X obj 490 114 tgl 15 0 empty empty empty 17 7 0 10 -262144 -1 -1 0
1;
#X msg 17 560 \; pd dsp \$1;
#X obj 554 423 vsl 15 100 0.01 1 1 0 empty empty empty 0 -9 0 10 -262144
-1 -1 0 1;
#X obj 554 559 line~;
#X msg 472 74 0;
#X msg 502 75 1;
#X msg 583 61 0;
#X msg 613 62 1;
#X obj 515 38 sel 1 2;
#N canvas 692 119 724 320 werckmeister 0;
#X text 464 131 Werckmeister V (values in cents);
#X obj 243 256 outlet;
#X obj 90 29 inlet;
#X obj 81 75 sel 97 119 115 101 100 102 116 103 121 104 117 106 107
;
#X msg 44 130 0;
#X msg 420 130 1200;
#X msg 74 130 96;
#X msg 104 130 204;
#X msg 134 130 300;
#X msg 164 130 396;
#X msg 195 130 504;
#X msg 226 130 600;
#X msg 258 130 702;
#X msg 289 130 792;
#X msg 319 130 900;
#X msg 348 130 1002;
#X msg 384 130 1098;
#X connect 2 0 3 0;
#X connect 3 0 4 0;
#X connect 3 1 6 0;
#X connect 3 2 7 0;
#X connect 3 3 8 0;
#X connect 3 4 9 0;
#X connect 3 5 10 0;
#X connect 3 6 11 0;
#X connect 3 7 12 0;
#X connect 3 8 13 0;
#X connect 3 9 14 0;
#X connect 3 10 15 0;
#X connect 3 11 16 0;
#X connect 3 12 5 0;
#X connect 4 0 1 0;
#X connect 5 0 1 0;
#X connect 6 0 1 0;
#X connect 7 0 1 0;
#X connect 8 0 1 0;
#X connect 9 0 1 0;
#X connect 10 0 1 0;
#X connect 11 0 1 0;
#X connect 12 0 1 0;
#X connect 13 0 1 0;
#X connect 14 0 1 0;
#X connect 15 0 1 0;
#X connect 16 0 1 0;
#X restore 309 188 pd werckmeister;
#N canvas 692 119 678 329 rameau 0;
#X obj 243 256 outlet;
#X text 457 129 Rameau II (values in cents);
#X obj 90 29 inlet;
#X obj 81 75 sel 97 119 115 101 100 102 116 103 121 104 117 106 107
;
#X msg 44 130 0;
#X msg 74 130 90;
#X msg 104 130 193;
#X msg 134 130 303;
#X msg 164 130 386;
#X msg 195 130 503;
#X msg 226 130 581;
#X msg 258 130 697;
#X msg 289 130 798;
#X msg 319 130 890;
#X msg 348 130 1007;
#X msg 384 130 1083;
#X msg 420 130 1200;
#X connect 2 0 3 0;
#X connect 3 0 4 0;
#X connect 3 1 5 0;
#X connect 3 2 6 0;
#X connect 3 3 7 0;
#X connect 3 4 8 0;
#X connect 3 5 9 0;
#X connect 3 6 10 0;
#X connect 3 7 11 0;
#X connect 3 8 12 0;
#X connect 3 9 13 0;
#X connect 3 10 14 0;
#X connect 3 11 15 0;
#X connect 3 12 16 0;
#X connect 4 0 0 0;
#X connect 5 0 0 0;
#X connect 6 0 0 0;
#X connect 7 0 0 0;
#X connect 8 0 0 0;
#X connect 9 0 0 0;
#X connect 10 0 0 0;
#X connect 11 0 0 0;
#X connect 12 0 0 0;
#X connect 13 0 0 0;
#X connect 14 0 0 0;
#X connect 15 0 0 0;
#X connect 16 0 0 0;
#X restore 409 188 pd rameau;
#X obj 213 468 osc~;
#X floatatom 213 388 8 0 0 1 Hz_frequência - -, f 8;
#X obj 248 468 osc~;
#X obj 248 433 * 3;
#X obj 213 495 *~ 1;
#X obj 248 495 *~ 0.33;
#X obj 297 468 osc~;
#X obj 340 468 osc~;
#X obj 402 468 osc~;
#X obj 297 433 * 5;
#X obj 340 433 * 7;
#X obj 402 433 * 9;
#X obj 297 495 *~ 0.2;
#X obj 340 495 *~ 0.1428;
#X obj 402 495 *~ 0.111;
#X obj 22 177 fiddle~ 512 1 20 3;
#X obj 128 230 route 1;
#X obj 128 260 unpack 0 0;
#X obj 132 293 change;
#X obj 316 298 expr [($f1) * log10(2) / 1200];
#X msg 261 292 10;
#X obj 257 328 pow;
#X obj 210 227 bng 15 250 50 0 empty empty empty 17 7 0 10 -262144
-1 -1;
#X obj 204 262 delay 10;
#X obj 207 294 bng 15 250 50 0 empty empty empty 17 7 0 10 -262144
-1 -1;
#X floatatom 188 323 5 0 0 0 - - -, f 5;
#X obj 214 354 *;
#X floatatom 22 124 8 0 0 1 Hz_frequência_fundamental - -, f 8;
#X obj 22 67 loadbang;
#X msg 22 89 261.62;
#X obj 22 148 osc~;
#X obj 399 581 +~;
#X obj 515 14 inlet;
#X msg 517 356 0 \, 0.5 100;
#X msg 610 367 0.5 \, 0 100;
#X msg 554 535 \$1 5;
#X connect 1 0 16 0;
#X connect 2 0 44 0;
#X connect 2 0 45 0;
#X connect 2 0 47 0;
#X connect 2 0 7 0;
#X connect 3 0 0 0;
#X connect 3 0 0 1;
#X connect 4 0 5 0;
#X connect 5 0 6 0;
#X connect 6 0 15 0;
#X connect 7 0 58 0;
#X connect 7 0 9 0;
#X connect 8 0 59 0;
#X connect 9 0 8 0;
#X connect 10 0 11 0;
#X connect 10 0 13 0;
#X connect 11 0 23 0;
#X connect 12 0 11 1;
#X connect 13 0 24 0;
#X connect 14 0 13 1;
#X connect 16 0 60 0;
#X connect 17 0 3 1;
#X connect 18 0 14 0;
#X connect 19 0 12 0;
#X connect 20 0 12 0;
#X connect 21 0 14 0;
#X connect 22 0 18 0;
#X connect 22 0 19 0;
#X connect 22 1 20 0;
#X connect 22 1 21 0;
#X connect 23 0 2 0;
#X connect 24 0 2 0;
#X connect 25 0 29 0;
#X connect 26 0 28 0;
#X connect 26 0 25 0;
#X connect 26 0 34 0;
#X connect 26 0 35 0;
#X connect 26 0 36 0;
#X connect 27 0 30 0;
#X connect 28 0 27 0;
#X connect 29 0 56 0;
#X connect 30 0 56 1;
#X connect 31 0 37 0;
#X connect 32 0 38 0;
#X connect 33 0 39 0;
#X connect 34 0 31 0;
#X connect 35 0 32 0;
#X connect 36 0 33 0;
#X connect 37 0 56 1;
#X connect 38 0 56 1;
#X connect 39 0 56 1;
#X connect 40 4 41 0;
#X connect 41 0 42 0;
#X connect 42 0 43 0;
#X connect 43 0 50 0;
#X connect 44 0 46 1;
#X connect 45 0 46 0;
#X connect 46 0 51 1;
#X connect 47 0 48 0;
#X connect 48 0 49 0;
#X connect 49 0 50 0;
#X connect 50 0 51 0;
#X connect 51 0 26 0;
#X connect 52 0 55 0;
#X connect 53 0 54 0;
#X connect 54 0 52 0;
#X connect 55 0 40 0;
#X connect 56 0 3 0;
#X connect 57 0 22 0;
#X connect 58 0 1 0;
#X connect 59 0 1 0;
#X connect 60 0 17 0;
#X restore 64 98 pd werckmeister_versus_rameau;
#X text 62 219 www.nucleomusicanova.com | www.unespar.edu.br;
#X text 62 186 © 2016 Grupo de Pesquisa Núcleo Música Nova (CNPq/UNESPAR)
;
#X text 62 203 patch by Felipe de Almeida Ribeiro;
#X text 62 169 BiA – Acoustics Library;
#X text 84 60 Werckmeister V;
#X connect 0 0 5 0;
