#N canvas 461 305 556 324 10;
#N canvas 454 314 511 152 how_it_works 0;
#X text 62 38 On/Off – use "space" key;
#X text 62 67 A tetrachord can be player using the laptop's keys Q-W-E-R;
#X restore 222 154 pd how_it_works;
#X floatatom 290 77 5 0 0 1 MIDI_note - - 0;
#X floatatom 341 96 5 0 0 1 cents - - 0;
#X floatatom 415 77 5 0 0 1 MIDI_note - - 0;
#X floatatom 466 96 5 0 0 1 cents - - 0;
#N canvas 358 47 862 667 voice1 0;
#X floatatom 415 90 5 0 0 0 - - - 0;
#X obj 417 15 key;
#X obj 337 163 mtof;
#X obj 525 691 line;
#X floatatom 299 342 8 0 0 1 cents - - 0;
#X obj 473 751 *~;
#X obj 514 585 bng 15 250 50 0 empty empty empty 17 7 0 10 #fcfcfc #000000 #000000;
#X obj 566 639 bng 15 250 50 0 empty empty empty 17 7 0 10 #fcfcfc #000000 #000000;
#X obj 534 612 delay 200;
#X msg 488 650 0 \, 1 100;
#X msg 581 663 1 \, 0 100;
#X obj 615 510 vsl 15 100 0.01 1 1 0 empty empty empty 0 -9 0 10 #fcfcfc #000000 #000000 0 1;
#X msg 657 663 \$1 5;
#X obj 655 692 line~;
#X obj 213 584 osc~;
#X floatatom 213 504 8 0 0 1 Hz_frequência - - 0;
#X obj 248 584 osc~;
#X obj 248 549 * 3;
#X obj 213 611 *~ 1;
#X obj 248 611 *~ 0.33;
#X obj 297 584 osc~;
#X obj 340 584 osc~;
#X obj 402 584 osc~;
#X obj 297 549 * 5;
#X obj 340 549 * 7;
#X obj 402 549 * 9;
#X obj 297 611 *~ 0.2;
#X obj 340 611 *~ 0.1428;
#X obj 402 611 *~ 0.111;
#X obj 22 293 fiddle~ 512 1 20 3;
#X obj 128 346 route 1;
#X obj 128 376 unpack 0 0;
#X obj 132 409 change;
#X obj 316 414 expr [($f1) * log10(2) / 1200];
#X msg 261 408 10;
#X obj 257 444 pow;
#X obj 210 343 bng 15 250 50 0 empty empty empty 17 7 0 10 #fcfcfc #000000 #000000;
#X obj 204 378 delay 10;
#X obj 207 410 bng 15 250 50 0 empty empty empty 17 7 0 10 #fcfcfc #000000 #000000;
#X floatatom 188 439 5 0 0 0 - - - 0;
#X obj 214 470 *;
#X obj 23 264 osc~;
#X obj 399 697 +~;
#X obj 405 148 bng 15 250 50 0 empty empty empty 17 7 0 10 #fcfcfc #000000 #000000;
#X obj 626 179 inlet;
#X obj 234 15 inlet;
#X obj 557 852 dac~;
#X obj 565 810 *~ 0.25;
#X obj 419 40 sel 113;
#X connect 0 0 2 0;
#X connect 0 0 43 0;
#X connect 1 0 48 0;
#X connect 2 0 41 0;
#X connect 3 0 11 0;
#X connect 4 0 33 0;
#X connect 4 0 34 0;
#X connect 4 0 36 0;
#X connect 5 0 47 0;
#X connect 6 0 9 0;
#X connect 6 0 8 0;
#X connect 7 0 10 0;
#X connect 8 0 7 0;
#X connect 9 0 3 0;
#X connect 10 0 3 0;
#X connect 11 0 12 0;
#X connect 12 0 13 0;
#X connect 13 0 5 1;
#X connect 14 0 18 0;
#X connect 15 0 17 0;
#X connect 15 0 14 0;
#X connect 15 0 23 0;
#X connect 15 0 24 0;
#X connect 15 0 25 0;
#X connect 16 0 19 0;
#X connect 17 0 16 0;
#X connect 18 0 42 0;
#X connect 19 0 42 1;
#X connect 20 0 26 0;
#X connect 21 0 27 0;
#X connect 22 0 28 0;
#X connect 23 0 20 0;
#X connect 24 0 21 0;
#X connect 25 0 22 0;
#X connect 26 0 42 1;
#X connect 27 0 42 1;
#X connect 28 0 42 1;
#X connect 29 4 30 0;
#X connect 30 0 31 0;
#X connect 31 0 32 0;
#X connect 32 0 39 0;
#X connect 33 0 35 1;
#X connect 34 0 35 0;
#X connect 35 0 40 1;
#X connect 36 0 37 0;
#X connect 37 0 38 0;
#X connect 38 0 39 0;
#X connect 39 0 40 0;
#X connect 40 0 15 0;
#X connect 41 0 29 0;
#X connect 42 0 5 0;
#X connect 43 0 4 0;
#X connect 43 0 6 0;
#X connect 44 0 4 0;
#X connect 45 0 0 0;
#X connect 47 0 46 1;
#X connect 47 0 46 0;
#X connect 48 0 0 0;
#X restore 41 115 pd voice1;
#X floatatom 41 77 5 0 0 1 MIDI_note - - 0;
#X floatatom 92 96 5 0 0 1 cents - - 0;
#X floatatom 166 77 5 0 0 1 MIDI_note - - 0;
#X floatatom 217 96 5 0 0 1 cents - - 0;
#N canvas 300 22 959 667 voice2 0;
#X floatatom 415 65 5 0 0 0 - - - 0;
#X obj 417 15 key;
#X obj 337 163 mtof;
#X obj 525 691 line;
#X floatatom 299 342 8 0 0 1 cents - - 0;
#X obj 473 751 *~;
#X obj 514 585 bng 15 250 50 0 empty empty empty 17 7 0 10 #fcfcfc #000000 #000000;
#X obj 566 639 bng 15 250 50 0 empty empty empty 17 7 0 10 #fcfcfc #000000 #000000;
#X obj 534 612 delay 200;
#X msg 488 650 0 \, 1 100;
#X msg 581 663 1 \, 0 100;
#X obj 615 510 vsl 15 100 0.01 1 1 0 empty empty empty 0 -9 0 10 #fcfcfc #000000 #000000 0 1;
#X msg 657 663 \$1 5;
#X obj 655 692 line~;
#X obj 213 584 osc~;
#X floatatom 213 504 8 0 0 1 Hz_frequência - - 0;
#X obj 248 584 osc~;
#X obj 248 549 * 3;
#X obj 213 611 *~ 1;
#X obj 248 611 *~ 0.33;
#X obj 297 584 osc~;
#X obj 340 584 osc~;
#X obj 402 584 osc~;
#X obj 297 549 * 5;
#X obj 340 549 * 7;
#X obj 402 549 * 9;
#X obj 297 611 *~ 0.2;
#X obj 340 611 *~ 0.1428;
#X obj 402 611 *~ 0.111;
#X obj 22 293 fiddle~ 512 1 20 3;
#X obj 128 346 route 1;
#X obj 128 376 unpack 0 0;
#X obj 132 409 change;
#X obj 316 414 expr [($f1) * log10(2) / 1200];
#X msg 261 408 10;
#X obj 257 444 pow;
#X obj 210 343 bng 15 250 50 0 empty empty empty 17 7 0 10 #fcfcfc #000000 #000000;
#X obj 204 378 delay 10;
#X obj 207 410 bng 15 250 50 0 empty empty empty 17 7 0 10 #fcfcfc #000000 #000000;
#X floatatom 188 439 5 0 0 0 - - - 0;
#X obj 214 470 *;
#X obj 23 264 osc~;
#X obj 399 697 +~;
#X obj 405 148 bng 15 250 50 0 empty empty empty 17 7 0 10 #fcfcfc #000000 #000000;
#X obj 626 179 inlet;
#X obj 234 15 inlet;
#X obj 557 852 dac~;
#X obj 565 810 *~ 0.25;
#X obj 419 40 sel 119;
#X connect 0 0 2 0;
#X connect 0 0 43 0;
#X connect 1 0 48 0;
#X connect 2 0 41 0;
#X connect 3 0 11 0;
#X connect 4 0 33 0;
#X connect 4 0 34 0;
#X connect 4 0 36 0;
#X connect 5 0 47 0;
#X connect 6 0 9 0;
#X connect 6 0 8 0;
#X connect 7 0 10 0;
#X connect 8 0 7 0;
#X connect 9 0 3 0;
#X connect 10 0 3 0;
#X connect 11 0 12 0;
#X connect 12 0 13 0;
#X connect 13 0 5 1;
#X connect 14 0 18 0;
#X connect 15 0 17 0;
#X connect 15 0 14 0;
#X connect 15 0 23 0;
#X connect 15 0 24 0;
#X connect 15 0 25 0;
#X connect 16 0 19 0;
#X connect 17 0 16 0;
#X connect 18 0 42 0;
#X connect 19 0 42 1;
#X connect 20 0 26 0;
#X connect 21 0 27 0;
#X connect 22 0 28 0;
#X connect 23 0 20 0;
#X connect 24 0 21 0;
#X connect 25 0 22 0;
#X connect 26 0 42 1;
#X connect 27 0 42 1;
#X connect 28 0 42 1;
#X connect 29 4 30 0;
#X connect 30 0 31 0;
#X connect 31 0 32 0;
#X connect 32 0 39 0;
#X connect 33 0 35 1;
#X connect 34 0 35 0;
#X connect 35 0 40 1;
#X connect 36 0 37 0;
#X connect 37 0 38 0;
#X connect 38 0 39 0;
#X connect 39 0 40 0;
#X connect 40 0 15 0;
#X connect 41 0 29 0;
#X connect 42 0 5 0;
#X connect 43 0 4 0;
#X connect 43 0 6 0;
#X connect 44 0 4 0;
#X connect 45 0 0 0;
#X connect 47 0 46 1;
#X connect 47 0 46 0;
#X connect 48 0 0 0;
#X restore 166 115 pd voice2;
#N canvas 362 22 907 667 voice3 0;
#X floatatom 415 65 5 0 0 0 - - - 0;
#X obj 417 15 key;
#X obj 337 163 mtof;
#X obj 525 691 line;
#X floatatom 299 342 8 0 0 1 cents - - 0;
#X obj 473 751 *~;
#X obj 514 585 bng 15 250 50 0 empty empty empty 17 7 0 10 #fcfcfc #000000 #000000;
#X obj 566 639 bng 15 250 50 0 empty empty empty 17 7 0 10 #fcfcfc #000000 #000000;
#X obj 534 612 delay 200;
#X msg 488 650 0 \, 1 100;
#X msg 581 663 1 \, 0 100;
#X obj 615 510 vsl 15 100 0.01 1 1 0 empty empty empty 0 -9 0 10 #fcfcfc #000000 #000000 0 1;
#X msg 657 663 \$1 5;
#X obj 655 692 line~;
#X obj 213 584 osc~;
#X floatatom 213 504 8 0 0 1 Hz_frequência - - 0;
#X obj 248 584 osc~;
#X obj 248 549 * 3;
#X obj 213 611 *~ 1;
#X obj 248 611 *~ 0.33;
#X obj 297 584 osc~;
#X obj 340 584 osc~;
#X obj 402 584 osc~;
#X obj 297 549 * 5;
#X obj 340 549 * 7;
#X obj 402 549 * 9;
#X obj 297 611 *~ 0.2;
#X obj 340 611 *~ 0.1428;
#X obj 402 611 *~ 0.111;
#X obj 22 293 fiddle~ 512 1 20 3;
#X obj 128 346 route 1;
#X obj 128 376 unpack 0 0;
#X obj 132 409 change;
#X obj 316 414 expr [($f1) * log10(2) / 1200];
#X msg 261 408 10;
#X obj 257 444 pow;
#X obj 210 343 bng 15 250 50 0 empty empty empty 17 7 0 10 #fcfcfc #000000 #000000;
#X obj 204 378 delay 10;
#X obj 207 410 bng 15 250 50 0 empty empty empty 17 7 0 10 #fcfcfc #000000 #000000;
#X floatatom 188 439 5 0 0 0 - - - 0;
#X obj 214 470 *;
#X obj 23 264 osc~;
#X obj 399 697 +~;
#X obj 405 148 bng 15 250 50 0 empty empty empty 17 7 0 10 #fcfcfc #000000 #000000;
#X obj 626 179 inlet;
#X obj 234 15 inlet;
#X obj 557 852 dac~;
#X obj 565 810 *~ 0.25;
#X obj 419 40 sel 101;
#X connect 0 0 2 0;
#X connect 0 0 43 0;
#X connect 1 0 48 0;
#X connect 2 0 41 0;
#X connect 3 0 11 0;
#X connect 4 0 33 0;
#X connect 4 0 34 0;
#X connect 4 0 36 0;
#X connect 5 0 47 0;
#X connect 6 0 9 0;
#X connect 6 0 8 0;
#X connect 7 0 10 0;
#X connect 8 0 7 0;
#X connect 9 0 3 0;
#X connect 10 0 3 0;
#X connect 11 0 12 0;
#X connect 12 0 13 0;
#X connect 13 0 5 1;
#X connect 14 0 18 0;
#X connect 15 0 17 0;
#X connect 15 0 14 0;
#X connect 15 0 23 0;
#X connect 15 0 24 0;
#X connect 15 0 25 0;
#X connect 16 0 19 0;
#X connect 17 0 16 0;
#X connect 18 0 42 0;
#X connect 19 0 42 1;
#X connect 20 0 26 0;
#X connect 21 0 27 0;
#X connect 22 0 28 0;
#X connect 23 0 20 0;
#X connect 24 0 21 0;
#X connect 25 0 22 0;
#X connect 26 0 42 1;
#X connect 27 0 42 1;
#X connect 28 0 42 1;
#X connect 29 4 30 0;
#X connect 30 0 31 0;
#X connect 31 0 32 0;
#X connect 32 0 39 0;
#X connect 33 0 35 1;
#X connect 34 0 35 0;
#X connect 35 0 40 1;
#X connect 36 0 37 0;
#X connect 37 0 38 0;
#X connect 38 0 39 0;
#X connect 39 0 40 0;
#X connect 40 0 15 0;
#X connect 41 0 29 0;
#X connect 42 0 5 0;
#X connect 43 0 4 0;
#X connect 43 0 6 0;
#X connect 44 0 4 0;
#X connect 45 0 0 0;
#X connect 47 0 46 1;
#X connect 47 0 46 0;
#X connect 48 0 0 0;
#X restore 290 115 pd voice3;
#N canvas 346 22 851 667 voice4 0;
#X floatatom 415 65 5 0 0 0 - - - 0;
#X obj 417 15 key;
#X obj 337 163 mtof;
#X obj 525 691 line;
#X floatatom 299 342 8 0 0 1 cents - - 0;
#X obj 473 751 *~;
#X obj 514 585 bng 15 250 50 0 empty empty empty 17 7 0 10 #fcfcfc #000000 #000000;
#X obj 566 639 bng 15 250 50 0 empty empty empty 17 7 0 10 #fcfcfc #000000 #000000;
#X obj 534 612 delay 200;
#X msg 488 650 0 \, 1 100;
#X msg 581 663 1 \, 0 100;
#X obj 615 510 vsl 15 100 0.01 1 1 0 empty empty empty 0 -9 0 10 #fcfcfc #000000 #000000 0 1;
#X msg 657 663 \$1 5;
#X obj 655 692 line~;
#X obj 213 584 osc~;
#X floatatom 213 504 8 0 0 1 Hz_frequência - - 0;
#X obj 248 584 osc~;
#X obj 248 549 * 3;
#X obj 213 611 *~ 1;
#X obj 248 611 *~ 0.33;
#X obj 297 584 osc~;
#X obj 340 584 osc~;
#X obj 402 584 osc~;
#X obj 297 549 * 5;
#X obj 340 549 * 7;
#X obj 402 549 * 9;
#X obj 297 611 *~ 0.2;
#X obj 340 611 *~ 0.1428;
#X obj 402 611 *~ 0.111;
#X obj 22 293 fiddle~ 512 1 20 3;
#X obj 128 346 route 1;
#X obj 128 376 unpack 0 0;
#X obj 132 409 change;
#X obj 316 414 expr [($f1) * log10(2) / 1200];
#X msg 261 408 10;
#X obj 257 444 pow;
#X obj 210 343 bng 15 250 50 0 empty empty empty 17 7 0 10 #fcfcfc #000000 #000000;
#X obj 204 378 delay 10;
#X obj 207 410 bng 15 250 50 0 empty empty empty 17 7 0 10 #fcfcfc #000000 #000000;
#X floatatom 188 439 5 0 0 0 - - - 0;
#X obj 214 470 *;
#X obj 23 264 osc~;
#X obj 399 697 +~;
#X obj 405 148 bng 15 250 50 0 empty empty empty 17 7 0 10 #fcfcfc #000000 #000000;
#X obj 626 179 inlet;
#X obj 234 15 inlet;
#X obj 557 852 dac~;
#X obj 565 810 *~ 0.25;
#X obj 419 40 sel 114;
#X connect 0 0 2 0;
#X connect 0 0 43 0;
#X connect 1 0 48 0;
#X connect 2 0 41 0;
#X connect 3 0 11 0;
#X connect 4 0 33 0;
#X connect 4 0 34 0;
#X connect 4 0 36 0;
#X connect 5 0 47 0;
#X connect 6 0 9 0;
#X connect 6 0 8 0;
#X connect 7 0 10 0;
#X connect 8 0 7 0;
#X connect 9 0 3 0;
#X connect 10 0 3 0;
#X connect 11 0 12 0;
#X connect 12 0 13 0;
#X connect 13 0 5 1;
#X connect 14 0 18 0;
#X connect 15 0 17 0;
#X connect 15 0 14 0;
#X connect 15 0 23 0;
#X connect 15 0 24 0;
#X connect 15 0 25 0;
#X connect 16 0 19 0;
#X connect 17 0 16 0;
#X connect 18 0 42 0;
#X connect 19 0 42 1;
#X connect 20 0 26 0;
#X connect 21 0 27 0;
#X connect 22 0 28 0;
#X connect 23 0 20 0;
#X connect 24 0 21 0;
#X connect 25 0 22 0;
#X connect 26 0 42 1;
#X connect 27 0 42 1;
#X connect 28 0 42 1;
#X connect 29 4 30 0;
#X connect 30 0 31 0;
#X connect 31 0 32 0;
#X connect 32 0 39 0;
#X connect 33 0 35 1;
#X connect 34 0 35 0;
#X connect 35 0 40 1;
#X connect 36 0 37 0;
#X connect 37 0 38 0;
#X connect 38 0 39 0;
#X connect 39 0 40 0;
#X connect 40 0 15 0;
#X connect 41 0 29 0;
#X connect 42 0 5 0;
#X connect 43 0 4 0;
#X connect 43 0 6 0;
#X connect 44 0 4 0;
#X connect 45 0 0 0;
#X connect 47 0 46 1;
#X connect 47 0 46 0;
#X connect 48 0 0 0;
#X restore 415 115 pd voice4;
#N canvas 567 268 272 232 turn_on/off_with_spacebar 0;
#X text 62 38 On/Off – use "space" key;
#X obj 68 131 tgl 15 0 empty empty on/off 17 7 0 10 #fcfcfc #000000 #000000 0 1;
#X msg 68 153 \; pd dsp \$1;
#X obj 68 83 loadbang;
#X obj 68 107 bng 15 250 50 0 empty empty empty 17 7 0 10 #fcfcfc #000000 #000000;
#X obj 128 83 key;
#X obj 128 106 sel 32;
#X obj 14 197 outlet;
#X connect 1 0 2 0;
#X connect 1 0 7 0;
#X connect 3 0 4 0;
#X connect 4 0 1 0;
#X connect 5 0 6 0;
#X connect 6 0 1 0;
#X restore 41 154 pd turn_on/off_with_spacebar;
#X obj 41 175 vradio 15 1 0 2 empty empty empty 0 -8 0 10 #fcfcfc #000000 #000000 0;
#X text 60 189 audio on;
#X text 60 175 audio off;
#X text 40 23 CHORD BUILDER;
#X text 37 275 www.nucleomusicanova.com | www.unespar.edu.br;
#X text 37 242 © 2016 Grupo de Pesquisa Núcleo Música Nova (CNPq/UNESPAR);
#X text 37 259 patch by Felipe de Almeida Ribeiro;
#X text 37 225 BiA – Acoustics Library;
#X obj 166 25 bng 15 250 50 0 bang empty play 17 7 0 10 #fcfcfc #000000 #000000;
#N canvas 837 39 450 300 preset 0;
#X obj 145 38 loadbang;
#X msg 60 119 60;
#X obj 55 189 outlet;
#X obj 111 189 outlet;
#X obj 39 27 bng 15 250 50 0 empty bang empty 17 7 0 10 #fcfcfc #000000 #000000;
#X msg 111 116 0;
#X connect 0 0 1 0;
#X connect 0 0 5 0;
#X connect 1 0 2 0;
#X connect 4 0 5 0;
#X connect 4 0 1 0;
#X connect 5 0 3 0;
#X restore 41 51 pd preset;
#N canvas 837 39 450 300 preset 0;
#X obj 145 38 loadbang;
#X obj 55 189 outlet;
#X obj 111 189 outlet;
#X obj 39 27 bng 15 250 50 0 empty bang empty 17 7 0 10 #fcfcfc #000000 #000000;
#X msg 60 119 64;
#X msg 111 116 8;
#X connect 0 0 4 0;
#X connect 0 0 5 0;
#X connect 3 0 5 0;
#X connect 3 0 4 0;
#X connect 4 0 1 0;
#X connect 5 0 2 0;
#X restore 166 51 pd preset;
#N canvas 837 39 450 300 preset 0;
#X obj 145 38 loadbang;
#X obj 55 189 outlet;
#X obj 111 189 outlet;
#X obj 39 27 bng 15 250 50 0 empty bang empty 17 7 0 10 #fcfcfc #000000 #000000;
#X msg 60 119 67;
#X msg 111 116 2;
#X connect 0 0 4 0;
#X connect 0 0 5 0;
#X connect 3 0 5 0;
#X connect 3 0 4 0;
#X connect 4 0 1 0;
#X connect 5 0 2 0;
#X restore 290 51 pd preset;
#N canvas 837 39 450 300 preset 0;
#X obj 145 38 loadbang;
#X obj 55 189 outlet;
#X obj 111 189 outlet;
#X obj 39 27 bng 15 250 50 0 empty bang empty 17 7 0 10 #fcfcfc #000000 #000000;
#X msg 60 119 70;
#X msg 111 116 -31;
#X connect 0 0 4 0;
#X connect 0 0 5 0;
#X connect 3 0 5 0;
#X connect 3 0 4 0;
#X connect 4 0 1 0;
#X connect 5 0 2 0;
#X restore 415 51 pd preset;
#X connect 1 0 11 0;
#X connect 2 0 11 1;
#X connect 3 0 12 0;
#X connect 4 0 12 1;
#X connect 6 0 5 0;
#X connect 7 0 5 1;
#X connect 8 0 10 0;
#X connect 9 0 10 1;
#X connect 13 0 14 0;
#X connect 23 0 6 0;
#X connect 23 1 7 0;
#X connect 24 0 8 0;
#X connect 24 1 9 0;
#X connect 25 0 1 0;
#X connect 25 1 2 0;
#X connect 26 0 3 0;
#X connect 26 1 4 0;
