#N canvas 0 0 925 1129 12; 
#X declare -path Libs; 
#X obj 385 235 makenote 60 400; 
#X obj 385 281 pack f f; 
#X obj 385 380 dac~, f 10; 
#X msg 519 281 tr_active 1; 
#X obj 519 235 loadbang; 
#X text 7 329 www.nucleomusicanova.com | www.unespar.edu.br; 
#X text 7 288 BiA – Acoustics Library; 
#X text 7 309 © 2025 Charles K. Neimog, f 35; 
#X msg -10 26 limit \$1; 
#X text 94 47 Use your mouse click; 
#X obj 385 330 plaits~ -midi -model 11; 
#X obj 383 1 declare -path Libs; 
#X obj -82 281 s note; 
#X obj 385 160 r note; 
#X obj 133 26 l.nbx 5 18 -1e+37 1e+37 0 1 empty empty empty 0 -10 0 12 #fcfcfc #000000 #000000 5 256; 
#X text 98 1 TONALITY DIAMOND, f 19; 
#X obj 397 48 pdlua; 
#X obj 64 69 diamond; 
#X connect 0 0 1 0; 
#X connect 0 1 1 1; 
#X connect 1 0 10 0; 
#X connect 3 0 10 0; 
#X connect 4 0 3 0; 
#X connect 8 0 17 0; 
#X connect 10 0 2 0; 
#X connect 10 1 2 1; 
#X connect 13 0 0 0; 
#X connect 14 0 8 0; 
#X connect 17 0 12 0; 
#X coords 0 0 1 1 331 357 1 0 0; 
