#N canvas 0 0 925 1129 10; 
#X declare -path Gui; 
#N canvas 963 550 951 489 theory 0; 
#X text 28 47 Using the formula...; 
#X text 26 82 cents = (1200/log2) * log (F2/F1) (Rossing \, 2001); 
#X text 25 120 one is able to calculate the interval in cents between any two frequencies.; 
#X text 26 176 Remember that the cents unit is used to divide one semitone in 100 different parts. For instance \, 1 semitone = 100 cents \; 1 octave = 1200 cents \; 1 quarter-tone = 50 cents and so on.; 
#X restore 258 66 pd theory; 
#N canvas 963 550 951 489 how_it_works 0; 
#X text 43 38 Just type the interval you want \, between 2 frequencies \, and you get the result. Just remind you that 1 semitone equals 100 cents.; 
#X restore 258 43 pd how_it_works; 
#N canvas 0 0 925 1129 cents_interval 0; 
#X obj 46 229 expr [(log10($f1)) * 1200 / log10(2)]; 
#X obj 46 187 /; 
#X obj 46 36 inlet; 
#X obj 83 63 inlet; 
#X obj 46 305 outlet; 
#X obj 175 329 print after-expr; 
#X obj 83 85 t b f; 
#X connect 0 0 4 0; 
#X connect 0 0 5 0; 
#X connect 1 0 0 0; 
#X connect 2 0 1 0; 
#X connect 3 0 6 0; 
#X connect 6 0 1 0; 
#X connect 6 1 1 1; 
#X restore 77 369 pd cents_interval; 
#X text 12 147 www.nucleomusicanova.com | www.unespar.edu.br; 
#X text 12 114 © 2016 Grupo de Pesquisa Núcleo Música Nova (CNPq/UNESPAR); 
#X text 12 130 patch by Felipe de Almeida Ribeiro; 
#X text 12 98 BiA – Acoustics Library; 
#X obj 132 510 s r-cents; 
#X obj 77 309 r s-freq1; 
#X obj 176 310 r s-freq2; 
#X obj 394 30 pdlua; 
#X obj 394 10 declare -path Gui; 
#X obj 176 436 l.nbx 5 16 -1e+37 1e+37 0 0 empty empty empty 0 -9 0 10 #fcfcfc #000000 #000000 0 256; 
#X obj 418 463 r s-cents; 
#X obj 212 353 l.nbx 5 16 -1e+37 1e+37 0 0 empty empty empty 0 -9 0 10 #fcfcfc #000000 #000000 0 256; 
#X obj 97 337 l.nbx 5 16 -1e+37 1e+37 0 0 empty empty empty 0 -9 0 10 #fcfcfc #000000 #000000 0 256; 
#X obj 13 30 l.nbx2 5 16 -1e+37 1e+37 0 0 s-freq1 r-freq1 Hz_frequência 0 -9 0 10 #fcfcfc #000000 #000000 0 256; 
#X obj 105 29 l.nbx2 5 16 -1e+37 1e+37 0 0 s-freq2 r-freq2 Hz_frequência 0 -9 0 10 #fcfcfc #000000 #000000 0 256; 
#X obj 12 74 l.nbx2 10 16 -1e+37 1e+37 0 0 s-cents r-cents cents 0 -9 0 10 #fcfcfc #000000 #000000 0 256; 
#X obj 42 477 print cents; 
#X obj 3 370 print re; 
#X text 11 12 Freq in Hz; 
#X text 102 12 Freq in Hz; 
#X text 11 56 Cents; 
#X connect 2 0 7 0; 
#X connect 2 0 19 0; 
#X connect 8 0 2 0; 
#X connect 8 0 15 0; 
#X connect 8 0 20 0; 
#X connect 9 0 2 1; 
#X connect 9 0 14 0; 
#X connect 12 0 7 0; 
#X coords 0 -1 1 1 380 160 1 10 10; 
