#N canvas 890 244 511 543 10;
#X obj 27 439 cnv 15 456 85 empty empty empty 20 12 0 14 -228856 -66577
0;
#X text 47 497 www.nucleomusicanova.com | www.unespar.edu.br;
#X text 47 481 patch by Felipe de Almeida Ribeiro;
#X text 47 447 BiA – Acoustics Library;
#X text 46 464 © 2017 Grupo de Pesquisa Núcleo Música Nova (CNPq/UNESPAR)
;
#X obj 27 27 cnv 15 456 35 empty \$0-pddp.cnv.header Síntese\ AM 3
12 0 18 -204280 -1 0;
#X text 1002 120 comment;
