#N canvas 0 50 1366 725 10;
#X floatatom 56 57 5 0 0 0 - - -, f 5;
#X floatatom 81 75 5 0 0 0 - - -, f 5;
#N canvas 471 84 450 300 h 0;
#X obj 46 117 pow 0.5;
#X obj 46 91 + 273.15;
#X obj 46 142 * 20.1;
#X floatatom 46 167 5 0 0 0 - - -, f 5;
#X obj 47 193 /;
#X obj 120 167 bng 15 250 50 0 empty empty empty 17 7 0 10 -262144
-1 -1;
#X obj 46 49 inlet;
#X obj 198 34 inlet;
#X obj 47 271 outlet;
#X obj 180 124 delay 5;
#X obj 47 218 / 4;
#X obj 46 246 * 100;
#X connect 0 0 2 0;
#X connect 1 0 0 0;
#X connect 2 0 3 0;
#X connect 3 0 4 0;
#X connect 4 0 10 0;
#X connect 5 0 4 0;
#X connect 6 0 1 0;
#X connect 7 0 4 1;
#X connect 7 0 9 0;
#X connect 9 0 5 0;
#X connect 10 0 11 0;
#X connect 11 0 8 0;
#X restore 56 94 pd h;
#X floatatom 56 119 5 0 0 0 - - -, f 5;
#X msg 301 68 2;
#X msg 337 69 7;
#X msg 373 70 11;
#X obj 310 204 vsl 15 128 0 11 0 0 empty empty empty 0 -9 0 10 -262144
-1 -1 0 1;
#X obj 295 204 vsl 15 128 0 11 0 0 empty empty empty 0 -9 0 10 -262144
-1 -1 0 1;
#X obj 339 204 vsl 15 128 0 11 0 0 empty empty empty 0 -9 0 10 -262144
-1 -1 0 1;
#X obj 324 204 vsl 15 128 0 11 0 0 empty empty empty 0 -9 0 10 -262144
-1 -1 0 1;
#X obj 369 204 vsl 15 128 0 11 0 0 empty empty empty 0 -9 0 10 -262144
-1 -1 0 1;
#X obj 354 204 vsl 15 128 0 11 0 0 empty empty empty 0 -9 0 10 -262144
-1 -1 0 1;
#X obj 398 204 vsl 15 128 0 11 0 0 empty empty empty 0 -9 0 10 -262144
-1 -1 0 1;
#X obj 383 204 vsl 15 128 0 11 0 0 empty empty empty 0 -9 0 10 -262144
-1 -1 0 1;
#X obj 413 204 vsl 15 128 0 11 0 0 empty empty empty 0 -9 0 10 -262144
-1 -1 0 1;
#X obj 442 204 vsl 15 128 0 11 0 0 empty empty empty 0 -9 0 10 -262144
-1 -1 0 1;
#X obj 427 204 vsl 15 128 0 11 0 0 empty empty empty 0 -9 0 10 -262144
-1 -1 0 1;
#X obj 472 204 vsl 15 128 0 11 0 0 empty empty empty 0 -9 0 10 -262144
-1 -1 0 1;
#X obj 457 204 vsl 15 128 0 11 0 0 empty empty empty 0 -9 0 10 -262144
-1 -1 0 1;
#X obj 501 204 vsl 15 128 0 11 0 0 empty empty empty 0 -9 0 10 -262144
-1 -1 0 1;
#X obj 486 204 vsl 15 128 0 11 0 0 empty empty empty 0 -9 0 10 -262144
-1 -1 0 1;
#X obj 531 204 vsl 15 128 0 11 0 0 empty empty empty 0 -9 0 10 -262144
-1 -1 0 1;
#X obj 516 204 vsl 15 128 0 11 0 0 empty empty empty 0 -9 0 10 -262144
-1 -1 0 1;
#X obj 560 204 vsl 15 128 0 11 0 0 empty empty empty 0 -9 0 10 -262144
-1 -1 0 1;
#X obj 545 204 vsl 15 128 0 11 0 0 empty empty empty 0 -9 0 10 -262144
-1 -1 0 1;
#X obj 575 204 vsl 15 128 0 11 0 0 empty empty empty 0 -9 0 10 -262144
-1 -1 0 1;
#X obj 604 204 vsl 15 128 0 11 0 0 empty empty empty 0 -9 0 10 -262144
-1 -1 0 1;
#X obj 589 204 vsl 15 128 0 11 0 0 empty empty empty 0 -9 0 10 -262144
-1 -1 0 1;
#X obj 301 46 bng 15 250 50 0 empty empty empty 17 7 0 10 -262144 -1
-1;
#N canvas 1358 717 1366 725 primo 0;
#X msg 18 119 1;
#X msg 69 119 2;
#X obj 18 148 pow 2;
#X obj 69 149 pow 2;
#X obj 11 8 inlet;
#X obj 68 176 outlet;
#X obj 18 176 outlet;
#X obj 9 35 send a;
#X obj 36 94 receive a;
#X msg 117 118 1;
#X msg 168 118 2;
#X obj 117 147 pow 2;
#X obj 168 148 pow 2;
#X obj 167 175 outlet;
#X obj 117 175 outlet;
#X obj 135 93 receive a;
#X msg 219 120 1;
#X msg 270 120 2;
#X obj 219 149 pow 2;
#X obj 270 150 pow 2;
#X obj 269 177 outlet;
#X obj 219 177 outlet;
#X obj 237 95 receive a;
#X msg 318 119 1;
#X msg 369 119 2;
#X obj 318 148 pow 2;
#X obj 369 149 pow 2;
#X obj 368 176 outlet;
#X obj 318 176 outlet;
#X obj 336 94 receive a;
#X msg 421 119 1;
#X msg 472 119 2;
#X obj 421 148 pow 2;
#X obj 472 149 pow 2;
#X obj 471 176 outlet;
#X obj 421 176 outlet;
#X obj 439 94 receive a;
#X msg 530 117 1;
#X obj 530 146 pow 2;
#X obj 530 174 outlet;
#X obj 548 92 receive a, f 44;
#X connect 0 0 2 0;
#X connect 1 0 3 0;
#X connect 2 0 6 0;
#X connect 3 0 5 0;
#X connect 4 0 7 0;
#X connect 8 0 0 0;
#X connect 8 0 1 0;
#X connect 9 0 11 0;
#X connect 10 0 12 0;
#X connect 11 0 14 0;
#X connect 12 0 13 0;
#X connect 15 0 9 0;
#X connect 15 0 10 0;
#X connect 16 0 18 0;
#X connect 17 0 19 0;
#X connect 18 0 21 0;
#X connect 19 0 20 0;
#X connect 22 0 16 0;
#X connect 22 0 17 0;
#X connect 23 0 25 0;
#X connect 24 0 26 0;
#X connect 25 0 28 0;
#X connect 26 0 27 0;
#X connect 29 0 23 0;
#X connect 29 0 24 0;
#X connect 30 0 32 0;
#X connect 31 0 33 0;
#X connect 32 0 35 0;
#X connect 33 0 34 0;
#X connect 36 0 30 0;
#X connect 36 0 31 0;
#X connect 37 0 38 0;
#X connect 38 0 39 0;
#X connect 40 0 37 0;
#X restore 301 111 pd primo como 2;
#X obj 337 47 bng 15 250 50 0 empty empty empty 17 7 0 10 -262144 -1
-1;
#N canvas 0 50 1366 725 primo 0;
#X msg 18 119 1;
#X msg 69 119 2;
#X obj 18 148 pow 2;
#X obj 69 149 pow 2;
#X obj 11 8 inlet;
#X obj 65 322 outlet;
#X obj 16 318 outlet;
#X obj 9 35 send b;
#X obj 250 74 receive b;
#X obj 114 150 pow 2;
#X obj 165 151 pow 2;
#X obj 212 152 pow 2;
#X msg 114 121 3;
#X msg 165 121 4;
#X msg 212 122 5;
#X obj 164 329 outlet;
#X obj 114 327 outlet;
#X obj 317 481 outlet;
#X obj 212 331 outlet;
#X obj 264 430 outlet;
#X obj 256 153 pow 2;
#X obj 303 154 pow 2;
#X msg 256 123 6;
#X msg 303 124 7;
#X floatatom 114 173 5 0 0 0 - - -, f 5;
#X obj 114 193 - 7;
#X floatatom 114 216 5 0 0 0 - - -, f 5;
#X floatatom 165 174 5 0 0 0 - - -, f 5;
#X obj 164 193 - 7;
#X floatatom 164 216 5 0 0 0 - - -, f 5;
#X obj 164 238 - 7;
#X floatatom 164 261 5 0 0 0 - - -, f 5;
#X floatatom 212 178 5 0 0 0 - - -, f 5;
#X obj 211 197 - 7;
#X floatatom 211 220 5 0 0 0 - - -, f 5;
#X obj 211 242 - 7;
#X floatatom 211 265 5 0 0 0 - - -, f 5;
#X obj 212 286 - 7;
#X floatatom 212 309 5 0 0 0 - - -, f 5;
#X floatatom 258 177 5 0 0 0 - - -, f 5;
#X obj 257 196 - 7;
#X floatatom 257 219 5 0 0 0 - - -, f 5;
#X obj 257 241 - 7;
#X floatatom 257 264 5 0 0 0 - - -, f 5;
#X obj 258 285 - 7;
#X floatatom 260 310 5 0 0 0 - - -, f 5;
#X obj 263 334 - 7;
#X floatatom 265 359 5 0 0 0 - - -, f 5;
#X obj 263 379 - 7;
#X floatatom 265 404 5 0 0 0 - - -, f 5;
#X floatatom 307 179 5 0 0 0 - - -, f 5;
#X obj 306 198 - 7;
#X floatatom 306 221 5 0 0 0 - - -, f 5;
#X obj 306 243 - 7;
#X floatatom 306 266 5 0 0 0 - - -, f 5;
#X obj 307 287 - 7;
#X floatatom 309 312 5 0 0 0 - - -, f 5;
#X obj 312 336 - 7;
#X floatatom 314 361 5 0 0 0 - - -, f 5;
#X obj 312 381 - 7;
#X floatatom 314 406 5 0 0 0 - - -, f 5;
#X obj 317 426 - 7;
#X floatatom 319 451 5 0 0 0 - - -, f 5;
#X msg 373 126 1;
#X msg 424 126 2;
#X obj 373 155 pow 2;
#X obj 424 156 pow 2;
#X obj 420 329 outlet;
#X obj 371 325 outlet;
#X obj 469 157 pow 2;
#X obj 520 158 pow 2;
#X msg 469 128 3;
#X msg 520 128 4;
#X obj 519 336 outlet;
#X obj 469 334 outlet;
#X floatatom 469 180 5 0 0 0 - - -, f 5;
#X obj 469 200 - 7;
#X floatatom 469 223 5 0 0 0 - - -, f 5;
#X floatatom 520 181 5 0 0 0 - - -, f 5;
#X obj 519 200 - 7;
#X floatatom 519 223 5 0 0 0 - - -, f 5;
#X obj 519 245 - 7;
#X floatatom 519 268 44 0 0 0 - - -, f 44;
#X connect 0 0 2 0;
#X connect 1 0 3 0;
#X connect 2 0 6 0;
#X connect 3 0 5 0;
#X connect 4 0 7 0;
#X connect 8 0 0 0;
#X connect 8 0 1 0;
#X connect 8 0 12 0;
#X connect 8 0 13 0;
#X connect 8 0 14 0;
#X connect 8 0 22 0;
#X connect 8 0 23 0;
#X connect 8 0 63 0;
#X connect 8 0 64 0;
#X connect 8 0 71 0;
#X connect 8 0 72 0;
#X connect 9 0 24 0;
#X connect 10 0 27 0;
#X connect 11 0 32 0;
#X connect 12 0 9 0;
#X connect 13 0 10 0;
#X connect 14 0 11 0;
#X connect 20 0 39 0;
#X connect 21 0 50 0;
#X connect 22 0 20 0;
#X connect 23 0 21 0;
#X connect 24 0 25 0;
#X connect 25 0 26 0;
#X connect 26 0 16 0;
#X connect 27 0 28 0;
#X connect 28 0 29 0;
#X connect 29 0 30 0;
#X connect 30 0 31 0;
#X connect 31 0 15 0;
#X connect 32 0 33 0;
#X connect 33 0 34 0;
#X connect 34 0 35 0;
#X connect 35 0 36 0;
#X connect 36 0 37 0;
#X connect 37 0 38 0;
#X connect 38 0 18 0;
#X connect 39 0 40 0;
#X connect 40 0 41 0;
#X connect 41 0 42 0;
#X connect 42 0 43 0;
#X connect 43 0 44 0;
#X connect 44 0 45 0;
#X connect 45 0 46 0;
#X connect 46 0 47 0;
#X connect 47 0 48 0;
#X connect 48 0 49 0;
#X connect 49 0 19 0;
#X connect 50 0 51 0;
#X connect 51 0 52 0;
#X connect 52 0 53 0;
#X connect 53 0 54 0;
#X connect 54 0 55 0;
#X connect 55 0 56 0;
#X connect 56 0 57 0;
#X connect 57 0 58 0;
#X connect 58 0 59 0;
#X connect 59 0 60 0;
#X connect 60 0 61 0;
#X connect 61 0 62 0;
#X connect 62 0 17 0;
#X connect 63 0 65 0;
#X connect 64 0 66 0;
#X connect 65 0 68 0;
#X connect 66 0 67 0;
#X connect 69 0 75 0;
#X connect 70 0 78 0;
#X connect 71 0 69 0;
#X connect 72 0 70 0;
#X connect 75 0 76 0;
#X connect 76 0 77 0;
#X connect 77 0 74 0;
#X connect 78 0 79 0;
#X connect 79 0 80 0;
#X connect 80 0 81 0;
#X connect 81 0 82 0;
#X connect 82 0 73 0;
#X restore 301 128 pd primo como 7;
#X obj 373 47 bng 15 250 50 0 empty empty empty 17 7 0 10 -262144 -1
-1;
#N canvas 0 134 1366 725 primo 0;
#X msg 16 64 1;
#X msg 67 64 2;
#X obj 16 93 pow 2;
#X obj 67 94 pow 2;
#X obj 11 8 inlet;
#X obj 63 267 outlet;
#X obj 14 263 outlet;
#X obj 112 95 pow 2;
#X obj 163 96 pow 2;
#X obj 210 97 pow 2;
#X msg 112 66 3;
#X msg 163 66 4;
#X msg 210 67 5;
#X obj 162 274 outlet;
#X obj 112 272 outlet;
#X obj 311 368 outlet;
#X obj 210 276 outlet;
#X obj 258 278 outlet;
#X obj 254 98 pow 2;
#X obj 301 99 pow 2;
#X msg 254 68 6;
#X msg 301 69 7;
#X floatatom 112 118 5 0 0 0 - - -, f 5;
#X floatatom 163 119 5 0 0 0 - - -, f 5;
#X floatatom 162 161 5 0 0 0 - - -, f 5;
#X floatatom 210 123 5 0 0 0 - - -, f 5;
#X floatatom 209 165 5 0 0 0 - - -, f 5;
#X floatatom 209 210 5 0 0 0 - - -, f 5;
#X floatatom 256 122 5 0 0 0 - - -, f 5;
#X floatatom 255 164 5 0 0 0 - - -, f 5;
#X floatatom 255 209 5 0 0 0 - - -, f 5;
#X floatatom 258 255 5 0 0 0 - - -, f 5;
#X floatatom 305 124 5 0 0 0 - - -, f 5;
#X floatatom 304 166 5 0 0 0 - - -, f 5;
#X floatatom 304 211 5 0 0 0 - - -, f 5;
#X floatatom 307 257 5 0 0 0 - - -, f 5;
#X floatatom 312 306 5 0 0 0 - - -, f 5;
#X obj 371 100 pow 2;
#X obj 422 101 pow 2;
#X obj 435 492 outlet;
#X obj 372 391 outlet;
#X obj 467 102 pow 2;
#X obj 518 103 pow 2;
#X obj 555 638 outlet;
#X obj 495 570 outlet;
#X obj 9 35 send c;
#X obj 248 19 receive c;
#X msg 371 71 8;
#X msg 422 71 9;
#X msg 467 73 10;
#X msg 518 73 11;
#X obj 162 138 - 11;
#X obj 209 143 - 11;
#X obj 209 187 - 11;
#X obj 255 141 - 11;
#X obj 255 187 - 11;
#X obj 256 230 - 11;
#X obj 304 143 - 11;
#X obj 304 188 - 11;
#X obj 305 232 - 11;
#X obj 310 281 - 11;
#X floatatom 371 126 5 0 0 0 - - -, f 5;
#X floatatom 370 168 5 0 0 0 - - -, f 5;
#X floatatom 370 213 5 0 0 0 - - -, f 5;
#X floatatom 373 259 5 0 0 0 - - -, f 5;
#X floatatom 378 308 5 0 0 0 - - -, f 5;
#X obj 370 145 - 11;
#X obj 370 190 - 11;
#X obj 371 234 - 11;
#X obj 376 283 - 11;
#X floatatom 374 358 5 0 0 0 - - -, f 5;
#X obj 372 333 - 11;
#X floatatom 421 126 5 0 0 0 - - -, f 5;
#X floatatom 420 168 5 0 0 0 - - -, f 5;
#X floatatom 420 213 5 0 0 0 - - -, f 5;
#X floatatom 423 259 5 0 0 0 - - -, f 5;
#X floatatom 428 308 5 0 0 0 - - -, f 5;
#X obj 420 145 - 11;
#X obj 420 190 - 11;
#X obj 421 234 - 11;
#X obj 426 283 - 11;
#X floatatom 424 358 5 0 0 0 - - -, f 5;
#X floatatom 429 407 5 0 0 0 - - -, f 5;
#X obj 422 333 - 11;
#X obj 427 382 - 11;
#X floatatom 433 455 5 0 0 0 - - -, f 5;
#X obj 431 430 - 11;
#X floatatom 530 131 5 0 0 0 - - -, f 5;
#X floatatom 529 173 5 0 0 0 - - -, f 5;
#X floatatom 529 218 5 0 0 0 - - -, f 5;
#X floatatom 532 264 5 0 0 0 - - -, f 5;
#X floatatom 537 313 5 0 0 0 - - -, f 5;
#X obj 529 150 - 11;
#X obj 529 195 - 11;
#X obj 530 239 - 11;
#X obj 535 288 - 11;
#X floatatom 533 363 5 0 0 0 - - -, f 5;
#X floatatom 538 412 5 0 0 0 - - -, f 5;
#X obj 531 338 - 11;
#X obj 536 387 - 11;
#X floatatom 542 460 5 0 0 0 - - -, f 5;
#X obj 540 435 - 11;
#X floatatom 476 128 5 0 0 0 - - -, f 5;
#X floatatom 475 170 5 0 0 0 - - -, f 5;
#X floatatom 475 215 5 0 0 0 - - -, f 5;
#X floatatom 478 261 5 0 0 0 - - -, f 5;
#X floatatom 483 310 5 0 0 0 - - -, f 5;
#X obj 475 147 - 11;
#X obj 475 192 - 11;
#X obj 476 236 - 11;
#X obj 481 285 - 11;
#X floatatom 479 360 5 0 0 0 - - -, f 5;
#X floatatom 484 409 5 0 0 0 - - -, f 5;
#X obj 477 335 - 11;
#X obj 482 384 - 11;
#X floatatom 488 457 5 0 0 0 - - -, f 5;
#X obj 486 432 - 11;
#X floatatom 493 504 5 0 0 0 - - -, f 5;
#X obj 491 479 - 11;
#X floatatom 496 550 5 0 0 0 - - -, f 5;
#X obj 495 527 - 11;
#X floatatom 544 514 5 0 0 0 - - -, f 5;
#X floatatom 549 563 5 0 0 0 - - -, f 5;
#X obj 542 489 - 11;
#X obj 547 538 - 11;
#X floatatom 553 611 5 0 0 0 - - -, f 5;
#X obj 551 586 - 11, f 44;
#X connect 0 0 2 0;
#X connect 1 0 3 0;
#X connect 2 0 6 0;
#X connect 3 0 5 0;
#X connect 4 0 45 0;
#X connect 7 0 22 0;
#X connect 8 0 23 0;
#X connect 9 0 25 0;
#X connect 10 0 7 0;
#X connect 11 0 8 0;
#X connect 12 0 9 0;
#X connect 18 0 28 0;
#X connect 19 0 32 0;
#X connect 20 0 18 0;
#X connect 21 0 19 0;
#X connect 22 0 14 0;
#X connect 23 0 51 0;
#X connect 24 0 13 0;
#X connect 25 0 52 0;
#X connect 26 0 53 0;
#X connect 27 0 16 0;
#X connect 28 0 54 0;
#X connect 29 0 55 0;
#X connect 30 0 56 0;
#X connect 31 0 17 0;
#X connect 32 0 57 0;
#X connect 33 0 58 0;
#X connect 34 0 59 0;
#X connect 35 0 60 0;
#X connect 36 0 15 0;
#X connect 37 0 61 0;
#X connect 38 0 72 0;
#X connect 41 0 102 0;
#X connect 42 0 87 0;
#X connect 46 0 0 0;
#X connect 46 0 1 0;
#X connect 46 0 10 0;
#X connect 46 0 11 0;
#X connect 46 0 12 0;
#X connect 46 0 20 0;
#X connect 46 0 21 0;
#X connect 46 0 47 0;
#X connect 46 0 48 0;
#X connect 46 0 49 0;
#X connect 46 0 50 0;
#X connect 47 0 37 0;
#X connect 48 0 38 0;
#X connect 49 0 41 0;
#X connect 50 0 42 0;
#X connect 51 0 24 0;
#X connect 52 0 26 0;
#X connect 53 0 27 0;
#X connect 54 0 29 0;
#X connect 55 0 30 0;
#X connect 56 0 31 0;
#X connect 57 0 33 0;
#X connect 58 0 34 0;
#X connect 59 0 35 0;
#X connect 60 0 36 0;
#X connect 61 0 66 0;
#X connect 62 0 67 0;
#X connect 63 0 68 0;
#X connect 64 0 69 0;
#X connect 65 0 71 0;
#X connect 66 0 62 0;
#X connect 67 0 63 0;
#X connect 68 0 64 0;
#X connect 69 0 65 0;
#X connect 70 0 40 0;
#X connect 71 0 70 0;
#X connect 72 0 77 0;
#X connect 73 0 78 0;
#X connect 74 0 79 0;
#X connect 75 0 80 0;
#X connect 76 0 83 0;
#X connect 77 0 73 0;
#X connect 78 0 74 0;
#X connect 79 0 75 0;
#X connect 80 0 76 0;
#X connect 81 0 84 0;
#X connect 82 0 86 0;
#X connect 83 0 81 0;
#X connect 84 0 82 0;
#X connect 85 0 39 0;
#X connect 86 0 85 0;
#X connect 87 0 92 0;
#X connect 88 0 93 0;
#X connect 89 0 94 0;
#X connect 90 0 95 0;
#X connect 91 0 98 0;
#X connect 92 0 88 0;
#X connect 93 0 89 0;
#X connect 94 0 90 0;
#X connect 95 0 91 0;
#X connect 96 0 99 0;
#X connect 97 0 101 0;
#X connect 98 0 96 0;
#X connect 99 0 97 0;
#X connect 100 0 123 0;
#X connect 101 0 100 0;
#X connect 102 0 107 0;
#X connect 103 0 108 0;
#X connect 104 0 109 0;
#X connect 105 0 110 0;
#X connect 106 0 113 0;
#X connect 107 0 103 0;
#X connect 108 0 104 0;
#X connect 109 0 105 0;
#X connect 110 0 106 0;
#X connect 111 0 114 0;
#X connect 112 0 116 0;
#X connect 113 0 111 0;
#X connect 114 0 112 0;
#X connect 115 0 118 0;
#X connect 116 0 115 0;
#X connect 117 0 120 0;
#X connect 118 0 117 0;
#X connect 119 0 44 0;
#X connect 120 0 119 0;
#X connect 121 0 124 0;
#X connect 122 0 126 0;
#X connect 123 0 121 0;
#X connect 124 0 122 0;
#X connect 125 0 43 0;
#X connect 126 0 125 0;
#X restore 301 144 pd primo como 11;
#X text 283 17 Seleção do número primo de base;
#X text 15 36 Temperatura;
#X floatatom 324 346 3 0 0 0 - - -, f 3;
#X floatatom 295 346 3 0 0 0 - - -, f 3;
#X floatatom 383 346 3 0 0 0 - - -, f 3;
#X floatatom 354 346 3 0 0 0 - - -, f 3;
#X floatatom 442 347 3 0 0 0 - - -, f 3;
#X floatatom 413 347 3 0 0 0 - - -, f 3;
#X floatatom 501 347 3 0 0 0 - - -, f 3;
#X floatatom 472 347 3 0 0 0 - - -, f 3;
#X floatatom 560 347 3 0 0 0 - - -, f 3;
#X floatatom 531 347 3 0 0 0 - - -, f 3;
#X floatatom 589 347 3 0 0 0 - - -, f 3;
#X text 101 118 Valor do H Em cm.;
#X text 121 72 Frequencia Estacionária;
#X text 703 46 Para a criação de um difusor de Schroeder \, calcula-se
um valor h que é baseado no comprimento de onda da frequencia que
causa problema na sala \, este valor é então utilizado para calcular
a profundidade e a largura das reentrâncias do difuso. A quantidade
de vezes que este valor h é aplicado em cada reentrância é calculada
com base em uma frequencia quadrática (de 1 até o número primo escolhido)
submetida a um número primo que limita o valor de cada passo da sequencia.
;
#X text 628 348 Valores por coluna (quantidade de "h"s);
#X obj 56 141 s h;
#X floatatom 324 407 5 0 0 0 - - -, f 5;
#X floatatom 295 391 5 0 0 0 - - -, f 5;
#X floatatom 383 408 5 0 0 0 - - -, f 5;
#X floatatom 354 391 5 0 0 0 - - -, f 5;
#X floatatom 442 408 5 0 0 0 - - -, f 5;
#X floatatom 413 392 5 0 0 0 - - -, f 5;
#X floatatom 501 408 5 0 0 0 - - -, f 5;
#X floatatom 472 392 5 0 0 0 - - -, f 5;
#X floatatom 560 408 5 0 0 0 - - -, f 5;
#X floatatom 531 392 5 0 0 0 - - -, f 5;
#X floatatom 589 392 5 0 0 0 - - -, f 5;
#X obj 267 350 r h;
#X obj 295 367 *, f 2;
#X obj 324 367 *, f 2;
#X obj 354 367 *, f 2;
#X obj 383 367 *, f 2;
#X obj 413 367 *, f 2;
#X obj 442 367 *, f 2;
#X obj 472 367 *, f 2;
#X obj 501 367 *, f 2;
#X obj 531 367 *, f 2;
#X obj 560 367 *, f 2;
#X obj 589 367 *, f 2;
#X text 628 392 Valores em centímetros;
#X text 60 495 www.nucleomusicanova.com | www.unespar.edu.br;
#X text 60 462 © 2016 Grupo de Pesquisa Núcleo Música Nova (CNPq/UNESPAR)
;
#X text 60 445 BiA – Acoustics Library;
#X text 60 479 patch by Pedro Samsel Geraldo;
#X connect 0 0 2 0;
#X connect 1 0 2 1;
#X connect 2 0 3 0;
#X connect 3 0 52 0;
#X connect 4 0 30 0;
#X connect 5 0 32 0;
#X connect 6 0 34 0;
#X connect 8 0 38 0;
#X connect 10 0 37 0;
#X connect 12 0 40 0;
#X connect 14 0 39 0;
#X connect 15 0 42 0;
#X connect 16 0 41 0;
#X connect 18 0 44 0;
#X connect 20 0 43 0;
#X connect 22 0 46 0;
#X connect 24 0 45 0;
#X connect 28 0 47 0;
#X connect 29 0 4 0;
#X connect 30 0 8 0;
#X connect 30 0 7 0;
#X connect 30 1 10 0;
#X connect 30 1 9 0;
#X connect 30 2 12 0;
#X connect 30 2 11 0;
#X connect 30 3 14 0;
#X connect 30 3 13 0;
#X connect 30 4 15 0;
#X connect 30 4 17 0;
#X connect 30 5 16 0;
#X connect 30 5 19 0;
#X connect 30 6 18 0;
#X connect 30 6 21 0;
#X connect 30 7 20 0;
#X connect 30 7 23 0;
#X connect 30 8 22 0;
#X connect 30 8 25 0;
#X connect 30 9 24 0;
#X connect 30 9 26 0;
#X connect 30 10 28 0;
#X connect 30 10 27 0;
#X connect 31 0 5 0;
#X connect 32 0 8 0;
#X connect 32 0 7 0;
#X connect 32 1 10 0;
#X connect 32 1 9 0;
#X connect 32 2 12 0;
#X connect 32 2 11 0;
#X connect 32 3 14 0;
#X connect 32 3 13 0;
#X connect 32 4 15 0;
#X connect 32 4 17 0;
#X connect 32 5 16 0;
#X connect 32 5 19 0;
#X connect 32 6 18 0;
#X connect 32 6 21 0;
#X connect 32 7 20 0;
#X connect 32 7 23 0;
#X connect 32 8 22 0;
#X connect 32 8 25 0;
#X connect 32 9 24 0;
#X connect 32 9 26 0;
#X connect 32 10 28 0;
#X connect 32 10 27 0;
#X connect 33 0 6 0;
#X connect 34 0 8 0;
#X connect 34 0 7 0;
#X connect 34 1 10 0;
#X connect 34 1 9 0;
#X connect 34 2 12 0;
#X connect 34 2 11 0;
#X connect 34 3 14 0;
#X connect 34 3 13 0;
#X connect 34 4 15 0;
#X connect 34 4 17 0;
#X connect 34 5 16 0;
#X connect 34 5 19 0;
#X connect 34 6 18 0;
#X connect 34 6 21 0;
#X connect 34 7 20 0;
#X connect 34 7 23 0;
#X connect 34 8 22 0;
#X connect 34 8 25 0;
#X connect 34 9 24 0;
#X connect 34 9 26 0;
#X connect 34 10 27 0;
#X connect 34 10 28 0;
#X connect 37 0 66 0;
#X connect 38 0 65 0;
#X connect 39 0 68 0;
#X connect 40 0 67 0;
#X connect 41 0 70 0;
#X connect 42 0 69 0;
#X connect 43 0 72 0;
#X connect 44 0 71 0;
#X connect 45 0 74 0;
#X connect 46 0 73 0;
#X connect 47 0 75 0;
#X connect 64 0 65 1;
#X connect 64 0 66 1;
#X connect 64 0 67 1;
#X connect 64 0 68 1;
#X connect 64 0 69 1;
#X connect 64 0 70 1;
#X connect 64 0 71 1;
#X connect 64 0 72 1;
#X connect 64 0 73 1;
#X connect 64 0 74 1;
#X connect 64 0 75 1;
#X connect 65 0 54 0;
#X connect 66 0 53 0;
#X connect 67 0 56 0;
#X connect 68 0 55 0;
#X connect 69 0 58 0;
#X connect 70 0 57 0;
#X connect 71 0 60 0;
#X connect 72 0 59 0;
#X connect 73 0 62 0;
#X connect 74 0 61 0;
#X connect 75 0 63 0;
