#N canvas 0 50 1109 444 10;
#X floatatom 99 35 5 0 0 0 - - -, f 5;
#X floatatom 98 54 5 0 0 0 - - -, f 5;
#X floatatom 98 73 5 0 0 0 - - -, f 5;
#X text 12 34 Comprimento;
#X text 40 55 Largura;
#X text 47 72 Altura;
#X text 64 130 Ondas;
#N canvas 344 113 776 338 Ondas 0;
#X obj 27 68 send a;
#X obj 88 71 send b;
#X obj 158 76 send c;
#X obj 223 76 send d;
#X obj 290 78 send e;
#X obj 164 29 inlet;
#X obj 105 23 inlet;
#X obj 216 28 inlet;
#X obj 293 32 inlet;
#X obj 28 27 inlet;
#X obj 359 29 inlet;
#X obj 426 32 inlet;
#X obj 502 35 inlet;
#X obj 571 34 inlet;
#X obj 356 75 send f;
#X obj 423 78 send g;
#X obj 499 81 send h;
#X obj 568 80 send i, f 18;
#X connect 5 0 2 0;
#X connect 6 0 1 0;
#X connect 7 0 3 0;
#X connect 8 0 4 0;
#X connect 9 0 0 0;
#X connect 10 0 14 0;
#X connect 11 0 15 0;
#X connect 12 0 16 0;
#X connect 13 0 17 0;
#X restore 67 201 pd Ondas de 1 a 5;
#N canvas 96 346 716 300 tipo 0;
#X obj 67 103 send pa;
#X obj 146 103 send pb;
#X obj 252 104 send pc;
#X obj 146 41 inlet;
#X obj 252 45 inlet;
#X obj 67 41 inlet;
#X obj 344 46 inlet;
#X obj 417 48 inlet;
#X obj 489 49 inlet;
#X obj 344 105 send pd;
#X obj 417 107 send pe;
#X obj 489 108 send pf;
#X obj 547 49 inlet;
#X obj 547 108 send pg;
#X connect 3 0 1 0;
#X connect 4 0 2 0;
#X connect 5 0 0 0;
#X connect 6 0 9 0;
#X connect 7 0 10 0;
#X connect 8 0 11 0;
#X connect 12 0 13 0;
#X restore 208 255 pd tipo;
#X obj 254 136 bng 15 250 50 0 empty empty empty 17 7 0 10 -262144
-1 -1;
#X obj 254 151 bng 15 250 50 0 empty empty empty 17 7 0 10 -262144
-1 -1;
#X obj 254 168 bng 15 250 50 0 empty empty empty 17 7 0 10 -262144
-1 -1;
#X obj 254 184 bng 15 250 50 0 empty empty empty 17 7 0 10 -262144
-1 -1;
#X obj 254 200 bng 15 250 50 0 empty empty empty 17 7 0 10 -262144
-1 -1;
#X obj 254 216 bng 15 250 50 0 empty empty empty 17 7 0 10 -262144
-1 -1;
#X obj 340 18 tgl 15 0 empty empty empty 17 7 0 10 -262144 -1 -1 0
1;
#X msg 340 44 \; pd dsp \$1;
#X obj 67 173 tgl 15 0 empty empty empty 17 7 0 10 -262144 -1 -1 0
1;
#X obj 114 173 tgl 15 0 empty empty empty 17 7 0 10 -262144 -1 -1 0
1;
#X obj 83 173 tgl 15 0 empty empty empty 17 7 0 10 -262144 -1 -1 0
1;
#X obj 130 173 tgl 15 0 empty empty empty 17 7 0 10 -262144 -1 -1 0
1;
#X obj 145 173 tgl 15 0 empty empty empty 17 7 0 10 -262144 -1 -1 0
1;
#X obj 159 173 tgl 15 0 empty empty empty 17 7 0 10 -262144 -1 -1 0
1;
#X obj 174 173 tgl 15 0 empty empty empty 17 7 0 10 -262144 -1 -1 0
1;
#X obj 190 173 tgl 15 0 empty empty empty 17 7 0 10 -262144 -1 -1 0
1;
#X obj 99 173 tgl 15 0 empty empty empty 17 7 0 10 -262144 -1 -1 0
1;
#X floatatom 246 54 5 0 0 0 - - -, f 5;
#X obj 72 154 1 2 3 4 5 6 7 8 9;
#X text 273 135 Axial Comprimento;
#X text 273 150 Axial Largura;
#X text 273 166 Axial Altura;
#X text 272 184 Tangencial CL;
#X text 272 199 Tangencial CA;
#X text 273 215 Tangencial LA;
#X obj 254 232 bng 15 250 50 0 empty empty empty 17 7 0 10 -262144
-1 -1;
#X text 274 231 Oblíqua;
#N canvas 0 50 1362 691 (subpatch) 0;
#X obj 349 42 inlet;
#X obj 192 39 inlet;
#X obj 99 38 inlet;
#X obj 281 40 inlet;
#N canvas 0 65 1362 691 Axial 0;
#X obj 64 35 inlet;
#X obj 462 69 pow 0.5;
#X floatatom 461 118 5 0 0 0 - - -, f 5;
#X obj 461 92 * 20.1;
#X obj 461 43 + 273.15;
#X obj 154 472 *~;
#X msg 196 438 0.5;
#X obj 153 439 osc~;
#X obj 155 519 outlet~;
#X msg 195 415 0;
#X obj 250 474 *~;
#X msg 292 440 0.5;
#X obj 249 441 osc~;
#X obj 251 521 outlet~;
#X msg 291 417 0;
#X obj 356 477 *~;
#X msg 398 443 0.5;
#X obj 355 444 osc~;
#X obj 357 524 outlet~;
#X msg 397 420 0;
#X obj 454 475 *~;
#X msg 496 441 0.5;
#X obj 453 442 osc~;
#X obj 455 522 outlet~;
#X msg 495 418 0;
#X obj 554 472 *~;
#X msg 596 438 0.5;
#X obj 553 439 osc~;
#X obj 555 519 outlet~;
#X obj 655 474 *~;
#X msg 697 440 0.5;
#X obj 654 441 osc~;
#X obj 656 521 outlet~;
#X msg 696 417 0;
#X obj 756 476 *~;
#X msg 798 442 0.5;
#X obj 755 443 osc~;
#X obj 757 523 outlet~;
#X msg 797 419 0;
#X obj 858 476 *~;
#X msg 900 442 0.5;
#X obj 857 443 osc~;
#X obj 859 523 outlet~;
#X msg 899 419 0;
#X obj 966 480 *~;
#X msg 1008 446 0.5;
#X obj 965 447 osc~;
#X obj 967 527 outlet~;
#X msg 1007 423 0;
#X obj 203 364 select 1;
#X floatatom 203 340 5 0 0 0 - - -, f 5;
#X obj 282 364 select 1;
#X floatatom 282 340 5 0 0 0 - - -, f 5;
#X obj 369 359 select 1;
#X floatatom 369 335 5 0 0 0 - - -, f 5;
#X obj 473 361 select 1;
#X floatatom 473 337 5 0 0 0 - - -, f 5;
#X obj 568 362 select 1;
#X floatatom 568 338 5 0 0 0 - - -, f 5;
#X obj 684 365 select 1;
#X floatatom 684 341 5 0 0 0 - - -, f 5;
#X obj 801 362 select 1;
#X floatatom 801 338 5 0 0 0 - - -, f 5;
#X obj 881 362 select 1;
#X floatatom 881 338 5 0 0 0 - - -, f 5;
#X obj 988 369 select 1;
#X floatatom 988 345 5 0 0 0 - - -, f 5;
#X obj 203 304 receive a;
#X obj 282 303 receive b;
#X obj 369 303 receive c;
#X obj 473 304 receive d;
#X obj 568 306 receive e;
#X obj 684 305 receive f;
#X obj 801 307 receive g;
#X obj 881 308 receive h;
#X obj 988 312 receive i;
#X obj 462 21 inlet;
#X obj 460 141 / 2;
#X obj 438 256 *;
#X obj 440 227 bng 15 250 50 0 empty empty empty 17 7 0 10 -262144
-1 -1;
#X obj 134 172 /;
#X obj 92 180 /;
#X obj 181 172 /;
#X obj 217 171 /;
#X obj 272 172 /;
#X obj 303 170 /;
#X obj 335 171 /;
#X obj 372 169 /;
#X obj 58 181 /;
#X msg 595 415 0;
#X obj 32 95 bng 15 250 50 0 empty empty empty 17 7 0 10 -262144 -1
-1;
#X obj 54 269 *;
#X obj 54 243 bng 15 250 50 0 empty empty empty 17 7 0 10 -262144 -1
-1;
#X obj 100 260 *;
#X obj 100 234 bng 15 250 50 0 empty empty empty 17 7 0 10 -262144
-1 -1;
#X obj 151 252 *;
#X obj 151 226 bng 15 250 50 0 empty empty empty 17 7 0 10 -262144
-1 -1;
#X obj 186 252 *;
#X obj 186 226 bng 15 250 50 0 empty empty empty 17 7 0 10 -262144
-1 -1;
#X obj 248 253 *;
#X obj 248 227 bng 15 250 50 0 empty empty empty 17 7 0 10 -262144
-1 -1;
#X obj 303 256 *;
#X obj 303 230 bng 15 250 50 0 empty empty empty 17 7 0 10 -262144
-1 -1;
#X obj 341 250 *;
#X obj 341 224 bng 15 250 50 0 empty empty empty 17 7 0 10 -262144
-1 -1;
#X obj 382 247 *;
#X obj 382 221 bng 15 250 50 0 empty empty empty 17 7 0 10 -262144
-1 -1;
#X floatatom 63 335 5 0 0 0 - - -, f 5;
#X msg 25 137 1;
#X obj 88 103 bng 15 250 50 0 empty empty empty 17 7 0 10 -262144 -1
-1;
#X obj 124 104 bng 15 250 50 0 empty empty empty 17 7 0 10 -262144
-1 -1;
#X msg 81 145 2;
#X msg 122 147 3;
#X obj 176 100 bng 15 250 50 0 empty empty empty 17 7 0 10 -262144
-1 -1;
#X msg 169 142 4;
#X obj 214 101 bng 15 250 50 0 empty empty empty 17 7 0 10 -262144
-1 -1;
#X msg 207 143 5;
#X obj 254 105 bng 15 250 50 0 empty empty empty 17 7 0 10 -262144
-1 -1;
#X msg 247 147 6;
#X obj 301 99 bng 15 250 50 0 empty empty empty 17 7 0 10 -262144 -1
-1;
#X msg 294 141 7;
#X obj 333 97 bng 15 250 50 0 empty empty empty 17 7 0 10 -262144 -1
-1;
#X msg 326 139 8;
#X obj 377 94 bng 15 250 50 0 empty empty empty 17 7 0 10 -262144 -1
-1;
#X msg 370 136 9;
#X obj 498 163 send b1;
#X obj 498 184 send b2;
#X obj 498 206 send b3;
#X obj 497 227 send b4;
#X obj 497 249 send b5;
#X obj 563 163 send b6;
#X obj 565 187 send b7;
#X obj 566 215 send b8;
#X obj 568 246 send b9;
#X connect 0 0 81 1;
#X connect 0 0 88 1;
#X connect 0 0 80 1;
#X connect 0 0 82 1;
#X connect 0 0 83 1;
#X connect 0 0 84 1;
#X connect 0 0 85 1;
#X connect 0 0 86 1;
#X connect 0 0 87 1;
#X connect 0 0 90 0;
#X connect 0 0 109 0;
#X connect 0 0 110 0;
#X connect 0 0 113 0;
#X connect 0 0 115 0;
#X connect 0 0 117 0;
#X connect 0 0 119 0;
#X connect 0 0 121 0;
#X connect 0 0 123 0;
#X connect 1 0 3 0;
#X connect 2 0 77 0;
#X connect 3 0 2 0;
#X connect 4 0 1 0;
#X connect 5 0 8 0;
#X connect 6 0 5 1;
#X connect 7 0 5 0;
#X connect 9 0 5 1;
#X connect 10 0 13 0;
#X connect 11 0 10 1;
#X connect 12 0 10 0;
#X connect 14 0 10 1;
#X connect 15 0 18 0;
#X connect 16 0 15 1;
#X connect 17 0 15 0;
#X connect 19 0 15 1;
#X connect 20 0 23 0;
#X connect 21 0 20 1;
#X connect 22 0 20 0;
#X connect 24 0 20 1;
#X connect 25 0 28 0;
#X connect 26 0 25 1;
#X connect 27 0 25 0;
#X connect 29 0 32 0;
#X connect 30 0 29 1;
#X connect 31 0 29 0;
#X connect 33 0 29 1;
#X connect 34 0 37 0;
#X connect 35 0 34 1;
#X connect 36 0 34 0;
#X connect 38 0 34 1;
#X connect 39 0 42 0;
#X connect 40 0 39 1;
#X connect 41 0 39 0;
#X connect 43 0 39 1;
#X connect 44 0 47 0;
#X connect 45 0 44 1;
#X connect 46 0 44 0;
#X connect 48 0 44 1;
#X connect 49 0 6 0;
#X connect 49 1 9 0;
#X connect 50 0 49 0;
#X connect 51 0 11 0;
#X connect 51 1 14 0;
#X connect 52 0 51 0;
#X connect 53 0 16 0;
#X connect 53 1 19 0;
#X connect 54 0 53 0;
#X connect 55 0 21 0;
#X connect 55 1 24 0;
#X connect 56 0 55 0;
#X connect 57 0 26 0;
#X connect 57 1 89 0;
#X connect 58 0 57 0;
#X connect 59 0 30 0;
#X connect 59 1 33 0;
#X connect 60 0 59 0;
#X connect 61 0 35 0;
#X connect 61 1 38 0;
#X connect 62 0 61 0;
#X connect 63 0 40 0;
#X connect 63 1 43 0;
#X connect 64 0 63 0;
#X connect 65 0 45 0;
#X connect 65 1 48 0;
#X connect 66 0 65 0;
#X connect 67 0 50 0;
#X connect 68 0 52 0;
#X connect 69 0 54 0;
#X connect 70 0 56 0;
#X connect 71 0 58 0;
#X connect 72 0 60 0;
#X connect 73 0 62 0;
#X connect 74 0 64 0;
#X connect 75 0 66 0;
#X connect 76 0 4 0;
#X connect 77 0 78 1;
#X connect 77 0 79 0;
#X connect 77 0 105 1;
#X connect 77 0 106 0;
#X connect 77 0 103 1;
#X connect 77 0 104 0;
#X connect 77 0 101 1;
#X connect 77 0 102 0;
#X connect 77 0 99 1;
#X connect 77 0 100 0;
#X connect 77 0 97 1;
#X connect 77 0 98 0;
#X connect 77 0 95 1;
#X connect 77 0 96 0;
#X connect 77 0 93 1;
#X connect 77 0 94 0;
#X connect 77 0 91 1;
#X connect 77 0 92 0;
#X connect 78 0 46 0;
#X connect 78 0 133 0;
#X connect 79 0 78 0;
#X connect 80 0 95 0;
#X connect 81 0 93 0;
#X connect 82 0 97 0;
#X connect 83 0 99 0;
#X connect 84 0 101 0;
#X connect 85 0 103 0;
#X connect 86 0 105 0;
#X connect 87 0 78 0;
#X connect 88 0 91 0;
#X connect 89 0 25 1;
#X connect 90 0 108 0;
#X connect 91 0 107 0;
#X connect 91 0 125 0;
#X connect 92 0 91 0;
#X connect 93 0 12 0;
#X connect 93 0 126 0;
#X connect 94 0 93 0;
#X connect 95 0 17 0;
#X connect 95 0 127 0;
#X connect 96 0 95 0;
#X connect 97 0 22 0;
#X connect 97 0 128 0;
#X connect 98 0 97 0;
#X connect 99 0 27 0;
#X connect 99 0 129 0;
#X connect 100 0 99 0;
#X connect 101 0 31 0;
#X connect 101 0 130 0;
#X connect 102 0 101 0;
#X connect 103 0 36 0;
#X connect 103 0 131 0;
#X connect 104 0 103 0;
#X connect 105 0 41 0;
#X connect 105 0 132 0;
#X connect 106 0 105 0;
#X connect 107 0 7 0;
#X connect 108 0 88 0;
#X connect 109 0 111 0;
#X connect 110 0 112 0;
#X connect 111 0 81 0;
#X connect 112 0 80 0;
#X connect 113 0 114 0;
#X connect 114 0 82 0;
#X connect 115 0 116 0;
#X connect 116 0 83 0;
#X connect 117 0 118 0;
#X connect 118 0 84 0;
#X connect 119 0 120 0;
#X connect 120 0 85 0;
#X connect 121 0 122 0;
#X connect 122 0 86 0;
#X connect 123 0 124 0;
#X connect 124 0 87 0;
#X restore 262 120 pd Axial Largura;
#N canvas 0 65 1362 691 Axial 0;
#X obj 64 35 inlet;
#X obj 462 69 pow 0.5;
#X floatatom 461 118 5 0 0 0 - - -, f 5;
#X obj 461 92 * 20.1;
#X obj 461 43 + 273.15;
#X obj 154 472 *~;
#X msg 196 438 0.5;
#X obj 153 439 osc~;
#X obj 155 519 outlet~;
#X msg 195 415 0;
#X obj 250 474 *~;
#X msg 292 440 0.5;
#X obj 249 441 osc~;
#X obj 251 521 outlet~;
#X msg 291 417 0;
#X obj 356 477 *~;
#X msg 398 443 0.5;
#X obj 355 444 osc~;
#X obj 357 524 outlet~;
#X msg 397 420 0;
#X obj 454 475 *~;
#X msg 496 441 0.5;
#X obj 453 442 osc~;
#X obj 455 522 outlet~;
#X msg 495 418 0;
#X obj 554 472 *~;
#X msg 596 438 0.5;
#X obj 553 439 osc~;
#X obj 555 519 outlet~;
#X obj 655 474 *~;
#X msg 697 440 0.5;
#X obj 654 441 osc~;
#X obj 656 521 outlet~;
#X msg 696 417 0;
#X obj 756 476 *~;
#X msg 798 442 0.5;
#X obj 755 443 osc~;
#X obj 757 523 outlet~;
#X msg 797 419 0;
#X obj 858 476 *~;
#X msg 900 442 0.5;
#X obj 857 443 osc~;
#X obj 859 523 outlet~;
#X msg 899 419 0;
#X obj 966 480 *~;
#X msg 1008 446 0.5;
#X obj 965 447 osc~;
#X obj 967 527 outlet~;
#X msg 1007 423 0;
#X obj 203 364 select 1;
#X floatatom 203 340 5 0 0 0 - - -, f 5;
#X obj 282 364 select 1;
#X floatatom 282 340 5 0 0 0 - - -, f 5;
#X obj 369 359 select 1;
#X floatatom 369 335 5 0 0 0 - - -, f 5;
#X obj 473 361 select 1;
#X floatatom 473 337 5 0 0 0 - - -, f 5;
#X obj 568 362 select 1;
#X floatatom 568 338 5 0 0 0 - - -, f 5;
#X obj 684 365 select 1;
#X floatatom 684 341 5 0 0 0 - - -, f 5;
#X obj 801 362 select 1;
#X floatatom 801 338 5 0 0 0 - - -, f 5;
#X obj 881 362 select 1;
#X floatatom 881 338 5 0 0 0 - - -, f 5;
#X obj 988 369 select 1;
#X floatatom 988 345 5 0 0 0 - - -, f 5;
#X obj 203 304 receive a;
#X obj 282 303 receive b;
#X obj 369 303 receive c;
#X obj 473 304 receive d;
#X obj 568 306 receive e;
#X obj 684 305 receive f;
#X obj 801 307 receive g;
#X obj 881 308 receive h;
#X obj 988 312 receive i;
#X obj 462 21 inlet;
#X obj 460 141 / 2;
#X obj 438 256 *;
#X obj 440 227 bng 15 250 50 0 empty empty empty 17 7 0 10 -262144
-1 -1;
#X obj 134 172 /;
#X obj 92 180 /;
#X obj 181 172 /;
#X obj 217 171 /;
#X obj 272 172 /;
#X obj 303 170 /;
#X obj 335 171 /;
#X obj 372 169 /;
#X obj 58 181 /;
#X msg 595 415 0;
#X obj 32 95 bng 15 250 50 0 empty empty empty 17 7 0 10 -262144 -1
-1;
#X obj 54 269 *;
#X obj 54 243 bng 15 250 50 0 empty empty empty 17 7 0 10 -262144 -1
-1;
#X obj 100 260 *;
#X obj 100 234 bng 15 250 50 0 empty empty empty 17 7 0 10 -262144
-1 -1;
#X obj 151 252 *;
#X obj 151 226 bng 15 250 50 0 empty empty empty 17 7 0 10 -262144
-1 -1;
#X obj 186 252 *;
#X obj 186 226 bng 15 250 50 0 empty empty empty 17 7 0 10 -262144
-1 -1;
#X obj 248 253 *;
#X obj 248 227 bng 15 250 50 0 empty empty empty 17 7 0 10 -262144
-1 -1;
#X obj 303 256 *;
#X obj 303 230 bng 15 250 50 0 empty empty empty 17 7 0 10 -262144
-1 -1;
#X obj 341 250 *;
#X obj 341 224 bng 15 250 50 0 empty empty empty 17 7 0 10 -262144
-1 -1;
#X obj 382 247 *;
#X obj 382 221 bng 15 250 50 0 empty empty empty 17 7 0 10 -262144
-1 -1;
#X floatatom 63 335 5 0 0 0 - - -, f 5;
#X msg 25 137 1;
#X obj 88 103 bng 15 250 50 0 empty empty empty 17 7 0 10 -262144 -1
-1;
#X obj 124 104 bng 15 250 50 0 empty empty empty 17 7 0 10 -262144
-1 -1;
#X msg 81 145 2;
#X msg 122 147 3;
#X obj 176 100 bng 15 250 50 0 empty empty empty 17 7 0 10 -262144
-1 -1;
#X msg 169 142 4;
#X obj 214 101 bng 15 250 50 0 empty empty empty 17 7 0 10 -262144
-1 -1;
#X msg 207 143 5;
#X obj 254 105 bng 15 250 50 0 empty empty empty 17 7 0 10 -262144
-1 -1;
#X msg 247 147 6;
#X obj 301 99 bng 15 250 50 0 empty empty empty 17 7 0 10 -262144 -1
-1;
#X msg 294 141 7;
#X obj 333 97 bng 15 250 50 0 empty empty empty 17 7 0 10 -262144 -1
-1;
#X msg 326 139 8;
#X obj 377 94 bng 15 250 50 0 empty empty empty 17 7 0 10 -262144 -1
-1;
#X msg 370 136 9;
#X obj 498 163 send a1;
#X obj 498 184 send a2;
#X obj 498 206 send a3;
#X obj 497 227 send a4;
#X obj 497 249 send a5;
#X obj 563 163 send a6;
#X obj 565 187 send a7;
#X obj 566 215 send a8;
#X obj 568 246 send a9;
#X connect 0 0 81 1;
#X connect 0 0 88 1;
#X connect 0 0 80 1;
#X connect 0 0 82 1;
#X connect 0 0 83 1;
#X connect 0 0 84 1;
#X connect 0 0 85 1;
#X connect 0 0 86 1;
#X connect 0 0 87 1;
#X connect 0 0 90 0;
#X connect 0 0 109 0;
#X connect 0 0 110 0;
#X connect 0 0 113 0;
#X connect 0 0 115 0;
#X connect 0 0 117 0;
#X connect 0 0 119 0;
#X connect 0 0 121 0;
#X connect 0 0 123 0;
#X connect 1 0 3 0;
#X connect 2 0 77 0;
#X connect 3 0 2 0;
#X connect 4 0 1 0;
#X connect 5 0 8 0;
#X connect 6 0 5 1;
#X connect 7 0 5 0;
#X connect 9 0 5 1;
#X connect 10 0 13 0;
#X connect 11 0 10 1;
#X connect 12 0 10 0;
#X connect 14 0 10 1;
#X connect 15 0 18 0;
#X connect 16 0 15 1;
#X connect 17 0 15 0;
#X connect 19 0 15 1;
#X connect 20 0 23 0;
#X connect 21 0 20 1;
#X connect 22 0 20 0;
#X connect 24 0 20 1;
#X connect 25 0 28 0;
#X connect 26 0 25 1;
#X connect 27 0 25 0;
#X connect 29 0 32 0;
#X connect 30 0 29 1;
#X connect 31 0 29 0;
#X connect 33 0 29 1;
#X connect 34 0 37 0;
#X connect 35 0 34 1;
#X connect 36 0 34 0;
#X connect 38 0 34 1;
#X connect 39 0 42 0;
#X connect 40 0 39 1;
#X connect 41 0 39 0;
#X connect 43 0 39 1;
#X connect 44 0 47 0;
#X connect 45 0 44 1;
#X connect 46 0 44 0;
#X connect 48 0 44 1;
#X connect 49 0 6 0;
#X connect 49 1 9 0;
#X connect 50 0 49 0;
#X connect 51 0 11 0;
#X connect 51 1 14 0;
#X connect 52 0 51 0;
#X connect 53 0 16 0;
#X connect 53 1 19 0;
#X connect 54 0 53 0;
#X connect 55 0 21 0;
#X connect 55 1 24 0;
#X connect 56 0 55 0;
#X connect 57 0 26 0;
#X connect 57 1 89 0;
#X connect 58 0 57 0;
#X connect 59 0 30 0;
#X connect 59 1 33 0;
#X connect 60 0 59 0;
#X connect 61 0 35 0;
#X connect 61 1 38 0;
#X connect 62 0 61 0;
#X connect 63 0 40 0;
#X connect 63 1 43 0;
#X connect 64 0 63 0;
#X connect 65 0 45 0;
#X connect 65 1 48 0;
#X connect 66 0 65 0;
#X connect 67 0 50 0;
#X connect 68 0 52 0;
#X connect 69 0 54 0;
#X connect 70 0 56 0;
#X connect 71 0 58 0;
#X connect 72 0 60 0;
#X connect 73 0 62 0;
#X connect 74 0 64 0;
#X connect 75 0 66 0;
#X connect 76 0 4 0;
#X connect 77 0 78 1;
#X connect 77 0 79 0;
#X connect 77 0 105 1;
#X connect 77 0 106 0;
#X connect 77 0 103 1;
#X connect 77 0 104 0;
#X connect 77 0 101 1;
#X connect 77 0 102 0;
#X connect 77 0 99 1;
#X connect 77 0 100 0;
#X connect 77 0 97 1;
#X connect 77 0 98 0;
#X connect 77 0 95 1;
#X connect 77 0 96 0;
#X connect 77 0 93 1;
#X connect 77 0 94 0;
#X connect 77 0 91 1;
#X connect 77 0 92 0;
#X connect 78 0 46 0;
#X connect 78 0 133 0;
#X connect 79 0 78 0;
#X connect 80 0 95 0;
#X connect 81 0 93 0;
#X connect 82 0 97 0;
#X connect 83 0 99 0;
#X connect 84 0 101 0;
#X connect 85 0 103 0;
#X connect 86 0 105 0;
#X connect 87 0 78 0;
#X connect 88 0 91 0;
#X connect 89 0 25 1;
#X connect 90 0 108 0;
#X connect 91 0 107 0;
#X connect 91 0 125 0;
#X connect 92 0 91 0;
#X connect 93 0 12 0;
#X connect 93 0 126 0;
#X connect 94 0 93 0;
#X connect 95 0 17 0;
#X connect 95 0 127 0;
#X connect 96 0 95 0;
#X connect 97 0 22 0;
#X connect 97 0 128 0;
#X connect 98 0 97 0;
#X connect 99 0 27 0;
#X connect 99 0 129 0;
#X connect 100 0 99 0;
#X connect 101 0 31 0;
#X connect 101 0 130 0;
#X connect 102 0 101 0;
#X connect 103 0 36 0;
#X connect 103 0 131 0;
#X connect 104 0 103 0;
#X connect 105 0 41 0;
#X connect 105 0 132 0;
#X connect 106 0 105 0;
#X connect 107 0 7 0;
#X connect 108 0 88 0;
#X connect 109 0 111 0;
#X connect 110 0 112 0;
#X connect 111 0 81 0;
#X connect 112 0 80 0;
#X connect 113 0 114 0;
#X connect 114 0 82 0;
#X connect 115 0 116 0;
#X connect 116 0 83 0;
#X connect 117 0 118 0;
#X connect 118 0 84 0;
#X connect 119 0 120 0;
#X connect 120 0 85 0;
#X connect 121 0 122 0;
#X connect 122 0 86 0;
#X connect 123 0 124 0;
#X connect 124 0 87 0;
#X restore 99 120 pd Axial Comprimento;
#N canvas 0 104 1362 691 Axial 0;
#X obj 64 35 inlet;
#X obj 462 69 pow 0.5;
#X floatatom 461 118 5 0 0 0 - - -, f 5;
#X obj 461 92 * 20.1;
#X obj 461 43 + 273.15;
#X obj 154 472 *~;
#X msg 196 438 0.5;
#X obj 153 439 osc~;
#X obj 155 519 outlet~;
#X msg 195 415 0;
#X obj 250 474 *~;
#X msg 292 440 0.5;
#X obj 249 441 osc~;
#X obj 251 521 outlet~;
#X msg 291 417 0;
#X obj 356 477 *~;
#X msg 398 443 0.5;
#X obj 355 444 osc~;
#X obj 357 524 outlet~;
#X msg 397 420 0;
#X obj 454 475 *~;
#X msg 496 441 0.5;
#X obj 453 442 osc~;
#X obj 455 522 outlet~;
#X msg 495 418 0;
#X obj 554 472 *~;
#X msg 596 438 0.5;
#X obj 553 439 osc~;
#X obj 555 519 outlet~;
#X obj 655 474 *~;
#X msg 697 440 0.5;
#X obj 654 441 osc~;
#X obj 656 521 outlet~;
#X msg 696 417 0;
#X obj 756 476 *~;
#X msg 798 442 0.5;
#X obj 755 443 osc~;
#X obj 757 523 outlet~;
#X msg 797 419 0;
#X obj 858 476 *~;
#X msg 900 442 0.5;
#X obj 857 443 osc~;
#X obj 859 523 outlet~;
#X msg 899 419 0;
#X obj 966 480 *~;
#X msg 1008 446 0.5;
#X obj 965 447 osc~;
#X obj 967 527 outlet~;
#X msg 1007 423 0;
#X obj 203 364 select 1;
#X floatatom 203 340 5 0 0 0 - - -, f 5;
#X obj 282 364 select 1;
#X floatatom 282 340 5 0 0 0 - - -, f 5;
#X obj 369 359 select 1;
#X floatatom 369 335 5 0 0 0 - - -, f 5;
#X obj 473 361 select 1;
#X floatatom 473 337 5 0 0 0 - - -, f 5;
#X obj 568 362 select 1;
#X floatatom 568 338 5 0 0 0 - - -, f 5;
#X obj 684 365 select 1;
#X floatatom 684 341 5 0 0 0 - - -, f 5;
#X obj 801 362 select 1;
#X floatatom 801 338 5 0 0 0 - - -, f 5;
#X obj 881 362 select 1;
#X floatatom 881 338 5 0 0 0 - - -, f 5;
#X obj 988 369 select 1;
#X floatatom 988 345 5 0 0 0 - - -, f 5;
#X obj 203 304 receive a;
#X obj 282 303 receive b;
#X obj 369 303 receive c;
#X obj 473 304 receive d;
#X obj 568 306 receive e;
#X obj 684 305 receive f;
#X obj 801 307 receive g;
#X obj 881 308 receive h;
#X obj 988 312 receive i;
#X obj 462 21 inlet;
#X obj 460 141 / 2;
#X obj 438 256 *;
#X obj 440 227 bng 15 250 50 0 empty empty empty 17 7 0 10 -262144
-1 -1;
#X obj 134 172 /;
#X obj 92 180 /;
#X obj 181 172 /;
#X obj 217 171 /;
#X obj 272 172 /;
#X obj 303 170 /;
#X obj 335 171 /;
#X obj 372 169 /;
#X obj 58 181 /;
#X msg 595 415 0;
#X obj 32 95 bng 15 250 50 0 empty empty empty 17 7 0 10 -262144 -1
-1;
#X obj 54 269 *;
#X obj 54 243 bng 15 250 50 0 empty empty empty 17 7 0 10 -262144 -1
-1;
#X obj 100 260 *;
#X obj 100 234 bng 15 250 50 0 empty empty empty 17 7 0 10 -262144
-1 -1;
#X obj 151 252 *;
#X obj 151 226 bng 15 250 50 0 empty empty empty 17 7 0 10 -262144
-1 -1;
#X obj 186 252 *;
#X obj 186 226 bng 15 250 50 0 empty empty empty 17 7 0 10 -262144
-1 -1;
#X obj 248 253 *;
#X obj 248 227 bng 15 250 50 0 empty empty empty 17 7 0 10 -262144
-1 -1;
#X obj 303 256 *;
#X obj 303 230 bng 15 250 50 0 empty empty empty 17 7 0 10 -262144
-1 -1;
#X obj 341 250 *;
#X obj 341 224 bng 15 250 50 0 empty empty empty 17 7 0 10 -262144
-1 -1;
#X obj 382 247 *;
#X obj 382 221 bng 15 250 50 0 empty empty empty 17 7 0 10 -262144
-1 -1;
#X floatatom 63 335 5 0 0 0 - - -, f 5;
#X msg 25 137 1;
#X obj 88 103 bng 15 250 50 0 empty empty empty 17 7 0 10 -262144 -1
-1;
#X obj 124 104 bng 15 250 50 0 empty empty empty 17 7 0 10 -262144
-1 -1;
#X msg 81 145 2;
#X msg 122 147 3;
#X obj 176 100 bng 15 250 50 0 empty empty empty 17 7 0 10 -262144
-1 -1;
#X msg 169 142 4;
#X obj 214 101 bng 15 250 50 0 empty empty empty 17 7 0 10 -262144
-1 -1;
#X msg 207 143 5;
#X obj 254 105 bng 15 250 50 0 empty empty empty 17 7 0 10 -262144
-1 -1;
#X msg 247 147 6;
#X obj 301 99 bng 15 250 50 0 empty empty empty 17 7 0 10 -262144 -1
-1;
#X msg 294 141 7;
#X obj 333 97 bng 15 250 50 0 empty empty empty 17 7 0 10 -262144 -1
-1;
#X msg 326 139 8;
#X obj 377 94 bng 15 250 50 0 empty empty empty 17 7 0 10 -262144 -1
-1;
#X msg 370 136 9;
#X obj 498 163 send c1;
#X obj 498 184 send c2;
#X obj 497 206 send c3;
#X obj 497 228 send c4;
#X obj 497 249 send c5;
#X obj 563 163 send c6;
#X obj 565 187 send c7;
#X obj 566 215 send c8;
#X obj 568 246 send c9;
#X connect 0 0 81 1;
#X connect 0 0 88 1;
#X connect 0 0 80 1;
#X connect 0 0 82 1;
#X connect 0 0 83 1;
#X connect 0 0 84 1;
#X connect 0 0 85 1;
#X connect 0 0 86 1;
#X connect 0 0 87 1;
#X connect 0 0 90 0;
#X connect 0 0 109 0;
#X connect 0 0 110 0;
#X connect 0 0 113 0;
#X connect 0 0 115 0;
#X connect 0 0 117 0;
#X connect 0 0 119 0;
#X connect 0 0 121 0;
#X connect 0 0 123 0;
#X connect 1 0 3 0;
#X connect 2 0 77 0;
#X connect 3 0 2 0;
#X connect 4 0 1 0;
#X connect 5 0 8 0;
#X connect 6 0 5 1;
#X connect 7 0 5 0;
#X connect 9 0 5 1;
#X connect 10 0 13 0;
#X connect 11 0 10 1;
#X connect 12 0 10 0;
#X connect 14 0 10 1;
#X connect 15 0 18 0;
#X connect 16 0 15 1;
#X connect 17 0 15 0;
#X connect 19 0 15 1;
#X connect 20 0 23 0;
#X connect 21 0 20 1;
#X connect 22 0 20 0;
#X connect 24 0 20 1;
#X connect 25 0 28 0;
#X connect 26 0 25 1;
#X connect 27 0 25 0;
#X connect 29 0 32 0;
#X connect 30 0 29 1;
#X connect 31 0 29 0;
#X connect 33 0 29 1;
#X connect 34 0 37 0;
#X connect 35 0 34 1;
#X connect 36 0 34 0;
#X connect 38 0 34 1;
#X connect 39 0 42 0;
#X connect 40 0 39 1;
#X connect 41 0 39 0;
#X connect 43 0 39 1;
#X connect 44 0 47 0;
#X connect 45 0 44 1;
#X connect 46 0 44 0;
#X connect 48 0 44 1;
#X connect 49 0 6 0;
#X connect 49 1 9 0;
#X connect 50 0 49 0;
#X connect 51 0 11 0;
#X connect 51 1 14 0;
#X connect 52 0 51 0;
#X connect 53 0 16 0;
#X connect 53 1 19 0;
#X connect 54 0 53 0;
#X connect 55 0 21 0;
#X connect 55 1 24 0;
#X connect 56 0 55 0;
#X connect 57 0 26 0;
#X connect 57 1 89 0;
#X connect 58 0 57 0;
#X connect 59 0 30 0;
#X connect 59 1 33 0;
#X connect 60 0 59 0;
#X connect 61 0 35 0;
#X connect 61 1 38 0;
#X connect 62 0 61 0;
#X connect 63 0 40 0;
#X connect 63 1 43 0;
#X connect 64 0 63 0;
#X connect 65 0 45 0;
#X connect 65 1 48 0;
#X connect 66 0 65 0;
#X connect 67 0 50 0;
#X connect 68 0 52 0;
#X connect 69 0 54 0;
#X connect 70 0 56 0;
#X connect 71 0 58 0;
#X connect 72 0 60 0;
#X connect 73 0 62 0;
#X connect 74 0 64 0;
#X connect 75 0 66 0;
#X connect 76 0 4 0;
#X connect 77 0 78 1;
#X connect 77 0 79 0;
#X connect 77 0 105 1;
#X connect 77 0 106 0;
#X connect 77 0 103 1;
#X connect 77 0 104 0;
#X connect 77 0 101 1;
#X connect 77 0 102 0;
#X connect 77 0 99 1;
#X connect 77 0 100 0;
#X connect 77 0 97 1;
#X connect 77 0 98 0;
#X connect 77 0 95 1;
#X connect 77 0 96 0;
#X connect 77 0 93 1;
#X connect 77 0 94 0;
#X connect 77 0 91 1;
#X connect 77 0 92 0;
#X connect 78 0 46 0;
#X connect 78 0 133 0;
#X connect 79 0 78 0;
#X connect 80 0 95 0;
#X connect 81 0 93 0;
#X connect 82 0 97 0;
#X connect 83 0 99 0;
#X connect 84 0 101 0;
#X connect 85 0 103 0;
#X connect 86 0 105 0;
#X connect 87 0 78 0;
#X connect 88 0 91 0;
#X connect 89 0 25 1;
#X connect 90 0 108 0;
#X connect 91 0 107 0;
#X connect 91 0 125 0;
#X connect 92 0 91 0;
#X connect 93 0 12 0;
#X connect 93 0 126 0;
#X connect 94 0 93 0;
#X connect 95 0 17 0;
#X connect 95 0 127 0;
#X connect 96 0 95 0;
#X connect 97 0 22 0;
#X connect 97 0 128 0;
#X connect 98 0 97 0;
#X connect 99 0 27 0;
#X connect 99 0 129 0;
#X connect 100 0 99 0;
#X connect 101 0 31 0;
#X connect 101 0 130 0;
#X connect 102 0 101 0;
#X connect 103 0 36 0;
#X connect 103 0 131 0;
#X connect 104 0 103 0;
#X connect 105 0 41 0;
#X connect 105 0 132 0;
#X connect 106 0 105 0;
#X connect 107 0 7 0;
#X connect 108 0 88 0;
#X connect 109 0 111 0;
#X connect 110 0 112 0;
#X connect 111 0 81 0;
#X connect 112 0 80 0;
#X connect 113 0 114 0;
#X connect 114 0 82 0;
#X connect 115 0 116 0;
#X connect 116 0 83 0;
#X connect 117 0 118 0;
#X connect 118 0 84 0;
#X connect 119 0 120 0;
#X connect 120 0 85 0;
#X connect 121 0 122 0;
#X connect 122 0 86 0;
#X connect 123 0 124 0;
#X connect 124 0 87 0;
#X restore 388 119 pd Axial Altura;
#N canvas 0 50 1362 691 Obliqua 0;
#X obj 1301 58 pow 0.5;
#X floatatom 1300 107 5 0 0 0 - - -, f 5;
#X obj 1300 81 * 20.1;
#X obj 1300 32 + 273.15;
#X obj 146 600 *~;
#X msg 188 566 0.5;
#X obj 145 567 osc~;
#X obj 147 647 outlet~;
#X msg 187 543 0;
#X obj 242 602 *~;
#X msg 284 568 0.5;
#X obj 241 569 osc~;
#X obj 243 649 outlet~;
#X msg 283 545 0;
#X obj 348 605 *~;
#X msg 390 571 0.5;
#X obj 347 572 osc~;
#X obj 349 652 outlet~;
#X msg 389 548 0;
#X obj 446 603 *~;
#X msg 488 569 0.5;
#X obj 445 570 osc~;
#X obj 447 650 outlet~;
#X msg 487 546 0;
#X obj 546 600 *~;
#X msg 588 566 0.5;
#X obj 545 567 osc~;
#X obj 547 647 outlet~;
#X obj 647 602 *~;
#X msg 689 568 0.5;
#X obj 646 569 osc~;
#X obj 648 649 outlet~;
#X msg 688 545 0;
#X obj 748 604 *~;
#X msg 790 570 0.5;
#X obj 747 571 osc~;
#X obj 749 651 outlet~;
#X msg 789 547 0;
#X obj 850 604 *~;
#X msg 892 570 0.5;
#X obj 849 571 osc~;
#X obj 851 651 outlet~;
#X msg 891 547 0;
#X obj 958 608 *~;
#X msg 1000 574 0.5;
#X obj 957 575 osc~;
#X obj 959 655 outlet~;
#X msg 999 551 0;
#X obj 195 492 select 1;
#X floatatom 195 468 5 0 0 0 - - -, f 5;
#X obj 274 492 select 1;
#X floatatom 274 468 5 0 0 0 - - -, f 5;
#X obj 361 487 select 1;
#X floatatom 361 463 5 0 0 0 - - -, f 5;
#X obj 465 489 select 1;
#X floatatom 465 465 5 0 0 0 - - -, f 5;
#X obj 560 490 select 1;
#X floatatom 560 466 5 0 0 0 - - -, f 5;
#X obj 676 493 select 1;
#X floatatom 676 469 5 0 0 0 - - -, f 5;
#X obj 793 490 select 1;
#X floatatom 793 466 5 0 0 0 - - -, f 5;
#X obj 873 490 select 1;
#X floatatom 873 466 5 0 0 0 - - -, f 5;
#X obj 980 497 select 1;
#X floatatom 980 473 5 0 0 0 - - -, f 5;
#X obj 195 432 receive a;
#X obj 274 431 receive b;
#X obj 361 431 receive c;
#X obj 465 432 receive d;
#X obj 560 434 receive e;
#X obj 676 433 receive f;
#X obj 793 435 receive g;
#X obj 873 436 receive h;
#X obj 980 440 receive i;
#X obj 1301 10 inlet;
#X obj 1299 130 / 2;
#X obj 1279 216 bng 15 250 50 0 empty empty empty 17 7 0 10 -262144
-1 -1;
#X msg 587 543 0;
#X obj 56 307 *;
#X msg 44 96 1;
#X obj 44 76 bng 15 250 50 0 empty empty empty 17 7 0 10 -262144 -1
-1;
#X obj 31 134 /;
#X obj 68 133 /;
#X obj 26 174 pow 2;
#X obj 79 173 pow 2;
#X obj 91 81 bng 15 250 50 0 empty empty empty 17 7 0 10 -262144 -1
-1;
#X obj 56 216 +;
#X obj 60 196 bng 15 250 50 0 empty empty empty 17 7 0 10 -262144 -1
-1;
#X obj 56 283 pow 0.5;
#X msg 98 105 1;
#X msg 143 98 1;
#X obj 143 78 bng 15 250 50 0 empty empty empty 17 7 0 10 -262144 -1
-1;
#X obj 130 136 /;
#X obj 125 176 pow 2;
#X obj 56 254 +;
#X obj 99 209 bng 15 250 50 0 empty empty empty 17 7 0 10 -262144 -1
-1;
#X obj 202 309 *;
#X obj 190 78 bng 15 250 50 0 empty empty empty 17 7 0 10 -262144 -1
-1;
#X obj 177 136 /;
#X obj 214 135 /;
#X obj 172 176 pow 2;
#X obj 225 175 pow 2;
#X obj 237 83 bng 15 250 50 0 empty empty empty 17 7 0 10 -262144 -1
-1;
#X obj 202 218 +;
#X obj 206 198 bng 15 250 50 0 empty empty empty 17 7 0 10 -262144
-1 -1;
#X obj 202 285 pow 0.5;
#X msg 244 107 1;
#X msg 292 107 1;
#X obj 289 80 bng 15 250 50 0 empty empty empty 17 7 0 10 -262144 -1
-1;
#X obj 276 138 /;
#X obj 271 178 pow 2;
#X obj 202 256 +;
#X obj 245 211 bng 15 250 50 0 empty empty empty 17 7 0 10 -262144
-1 -1;
#X obj 350 308 *;
#X msg 338 97 1;
#X obj 338 77 bng 15 250 50 0 empty empty empty 17 7 0 10 -262144 -1
-1;
#X obj 325 135 /;
#X obj 362 134 /;
#X obj 320 175 pow 2;
#X obj 373 174 pow 2;
#X obj 385 82 bng 15 250 50 0 empty empty empty 17 7 0 10 -262144 -1
-1;
#X obj 350 217 +;
#X obj 354 197 bng 15 250 50 0 empty empty empty 17 7 0 10 -262144
-1 -1;
#X obj 350 284 pow 0.5;
#X msg 437 99 1;
#X obj 437 79 bng 15 250 50 0 empty empty empty 17 7 0 10 -262144 -1
-1;
#X obj 424 137 /;
#X obj 419 177 pow 2;
#X obj 350 255 +;
#X obj 393 210 bng 15 250 50 0 empty empty empty 17 7 0 10 -262144
-1 -1;
#X obj 506 311 *;
#X msg 494 100 1;
#X obj 494 80 bng 15 250 50 0 empty empty empty 17 7 0 10 -262144 -1
-1;
#X obj 481 138 /;
#X obj 518 137 /;
#X obj 476 178 pow 2;
#X obj 529 177 pow 2;
#X obj 541 85 bng 15 250 50 0 empty empty empty 17 7 0 10 -262144 -1
-1;
#X obj 506 220 +;
#X obj 510 200 bng 15 250 50 0 empty empty empty 17 7 0 10 -262144
-1 -1;
#X obj 506 287 pow 0.5;
#X msg 548 109 1;
#X obj 593 82 bng 15 250 50 0 empty empty empty 17 7 0 10 -262144 -1
-1;
#X obj 580 140 /;
#X obj 575 180 pow 2;
#X obj 506 258 +;
#X obj 549 213 bng 15 250 50 0 empty empty empty 17 7 0 10 -262144
-1 -1;
#X obj 658 309 *;
#X obj 646 78 bng 15 250 50 0 empty empty empty 17 7 0 10 -262144 -1
-1;
#X obj 633 136 /;
#X obj 670 135 /;
#X obj 628 176 pow 2;
#X obj 681 175 pow 2;
#X obj 693 83 bng 15 250 50 0 empty empty empty 17 7 0 10 -262144 -1
-1;
#X obj 658 218 +;
#X obj 662 198 bng 15 250 50 0 empty empty empty 17 7 0 10 -262144
-1 -1;
#X obj 658 285 pow 0.5;
#X obj 745 80 bng 15 250 50 0 empty empty empty 17 7 0 10 -262144 -1
-1;
#X obj 732 138 /;
#X obj 727 178 pow 2;
#X obj 658 256 +;
#X obj 701 211 bng 15 250 50 0 empty empty empty 17 7 0 10 -262144
-1 -1;
#X obj 803 310 *;
#X obj 791 79 bng 15 250 50 0 empty empty empty 17 7 0 10 -262144 -1
-1;
#X obj 778 137 /;
#X obj 815 136 /;
#X obj 773 177 pow 2;
#X obj 826 176 pow 2;
#X obj 838 84 bng 15 250 50 0 empty empty empty 17 7 0 10 -262144 -1
-1;
#X obj 803 219 +;
#X obj 807 199 bng 15 250 50 0 empty empty empty 17 7 0 10 -262144
-1 -1;
#X obj 803 286 pow 0.5;
#X obj 890 81 bng 15 250 50 0 empty empty empty 17 7 0 10 -262144 -1
-1;
#X obj 877 139 /;
#X obj 872 179 pow 2;
#X obj 803 257 +;
#X obj 846 212 bng 15 250 50 0 empty empty empty 17 7 0 10 -262144
-1 -1;
#X obj 954 311 *;
#X obj 942 80 bng 15 250 50 0 empty empty empty 17 7 0 10 -262144 -1
-1;
#X obj 929 138 /;
#X obj 966 137 /;
#X obj 924 178 pow 2;
#X obj 977 177 pow 2;
#X obj 989 85 bng 15 250 50 0 empty empty empty 17 7 0 10 -262144 -1
-1;
#X obj 954 220 +;
#X obj 958 200 bng 15 250 50 0 empty empty empty 17 7 0 10 -262144
-1 -1;
#X obj 954 287 pow 0.5;
#X obj 1041 82 bng 15 250 50 0 empty empty empty 17 7 0 10 -262144
-1 -1;
#X obj 1028 140 /;
#X obj 1023 180 pow 2;
#X obj 954 258 +;
#X obj 997 213 bng 15 250 50 0 empty empty empty 17 7 0 10 -262144
-1 -1;
#X obj 1101 313 *;
#X obj 1089 82 bng 15 250 50 0 empty empty empty 17 7 0 10 -262144
-1 -1;
#X obj 1076 140 /;
#X obj 1113 139 /;
#X obj 1071 180 pow 2;
#X obj 1124 179 pow 2;
#X obj 1136 87 bng 15 250 50 0 empty empty empty 17 7 0 10 -262144
-1 -1;
#X obj 1101 222 +;
#X obj 1105 202 bng 15 250 50 0 empty empty empty 17 7 0 10 -262144
-1 -1;
#X obj 1101 289 pow 0.5;
#X obj 1188 84 bng 15 250 50 0 empty empty empty 17 7 0 10 -262144
-1 -1;
#X obj 1175 142 /;
#X obj 1170 182 pow 2;
#X obj 1101 260 +;
#X obj 1144 215 bng 15 250 50 0 empty empty empty 17 7 0 10 -262144
-1 -1;
#X obj 1159 576 *;
#X obj 1147 345 bng 15 250 50 0 empty empty empty 17 7 0 10 -262144
-1 -1;
#X obj 1134 403 /;
#X obj 1171 402 /;
#X obj 1129 443 pow 2;
#X obj 1182 442 pow 2;
#X obj 1194 350 bng 15 250 50 0 empty empty empty 17 7 0 10 -262144
-1 -1;
#X obj 1159 485 +;
#X obj 1163 465 bng 15 250 50 0 empty empty empty 17 7 0 10 -262144
-1 -1;
#X obj 1159 552 pow 0.5;
#X obj 1246 347 bng 15 250 50 0 empty empty empty 17 7 0 10 -262144
-1 -1;
#X obj 1233 405 /;
#X obj 1228 445 pow 2;
#X obj 1159 523 +;
#X obj 1202 478 bng 15 250 50 0 empty empty empty 17 7 0 10 -262144
-1 -1;
#X msg 190 98 2;
#X msg 392 106 2;
#X msg 593 102 2;
#X msg 700 107 2;
#X msg 745 100 2;
#X msg 890 101 2;
#X msg 942 100 2;
#X msg 1188 104 3;
#X msg 646 98 2;
#X msg 1147 365 3;
#X msg 791 99 3;
#X msg 845 108 2;
#X msg 996 109 3;
#X msg 1040 102 2;
#X msg 1089 102 2;
#X msg 1143 111 2;
#X msg 1201 374 3;
#X msg 1246 367 3;
#X obj 191 16 inlet;
#X obj 54 32 inlet;
#X obj 10 34 inlet, f 6;
#X obj 110 362 send g1;
#X obj 211 370 send g2;
#X obj 299 367 send g3;
#X obj 363 370 send g4;
#X obj 436 371 send g5;
#X obj 500 370 send g6;
#X obj 570 369 send g7;
#X obj 635 373 send g8;
#X obj 718 375 send g9;
#X connect 0 0 2 0;
#X connect 1 0 76 0;
#X connect 2 0 1 0;
#X connect 3 0 0 0;
#X connect 4 0 7 0;
#X connect 5 0 4 1;
#X connect 6 0 4 0;
#X connect 8 0 4 1;
#X connect 9 0 12 0;
#X connect 10 0 9 1;
#X connect 11 0 9 0;
#X connect 13 0 9 1;
#X connect 14 0 17 0;
#X connect 15 0 14 1;
#X connect 16 0 14 0;
#X connect 18 0 14 1;
#X connect 19 0 22 0;
#X connect 20 0 19 1;
#X connect 21 0 19 0;
#X connect 23 0 19 1;
#X connect 24 0 27 0;
#X connect 25 0 24 1;
#X connect 26 0 24 0;
#X connect 28 0 31 0;
#X connect 29 0 28 1;
#X connect 30 0 28 0;
#X connect 32 0 28 1;
#X connect 33 0 36 0;
#X connect 34 0 33 1;
#X connect 35 0 33 0;
#X connect 37 0 33 1;
#X connect 38 0 41 0;
#X connect 39 0 38 1;
#X connect 40 0 38 0;
#X connect 42 0 38 1;
#X connect 43 0 46 0;
#X connect 44 0 43 1;
#X connect 45 0 43 0;
#X connect 47 0 43 1;
#X connect 48 0 5 0;
#X connect 48 1 8 0;
#X connect 49 0 48 0;
#X connect 50 0 10 0;
#X connect 50 1 13 0;
#X connect 51 0 50 0;
#X connect 52 0 15 0;
#X connect 52 1 18 0;
#X connect 53 0 52 0;
#X connect 54 0 20 0;
#X connect 54 1 23 0;
#X connect 55 0 54 0;
#X connect 56 0 25 0;
#X connect 56 1 78 0;
#X connect 57 0 56 0;
#X connect 58 0 29 0;
#X connect 58 1 32 0;
#X connect 59 0 58 0;
#X connect 60 0 34 0;
#X connect 60 1 37 0;
#X connect 61 0 60 0;
#X connect 62 0 39 0;
#X connect 62 1 42 0;
#X connect 63 0 62 0;
#X connect 64 0 44 0;
#X connect 64 1 47 0;
#X connect 65 0 64 0;
#X connect 66 0 49 0;
#X connect 67 0 51 0;
#X connect 68 0 53 0;
#X connect 69 0 55 0;
#X connect 70 0 57 0;
#X connect 71 0 59 0;
#X connect 72 0 61 0;
#X connect 73 0 63 0;
#X connect 74 0 65 0;
#X connect 75 0 3 0;
#X connect 76 0 77 0;
#X connect 76 0 79 1;
#X connect 76 0 97 1;
#X connect 76 0 114 1;
#X connect 76 0 131 1;
#X connect 76 0 148 1;
#X connect 76 0 163 1;
#X connect 76 0 178 1;
#X connect 76 0 193 1;
#X connect 76 0 208 1;
#X connect 77 0 79 0;
#X connect 77 0 97 0;
#X connect 77 0 131 0;
#X connect 77 0 163 0;
#X connect 77 0 148 0;
#X connect 77 0 178 0;
#X connect 77 0 193 0;
#X connect 77 0 208 0;
#X connect 78 0 24 1;
#X connect 79 0 6 0;
#X connect 79 0 244 0;
#X connect 80 0 82 0;
#X connect 81 0 80 0;
#X connect 81 0 82 0;
#X connect 82 0 84 0;
#X connect 83 0 85 0;
#X connect 84 0 87 0;
#X connect 85 0 87 1;
#X connect 85 0 88 0;
#X connect 86 0 83 0;
#X connect 86 0 90 0;
#X connect 87 0 95 0;
#X connect 88 0 87 0;
#X connect 89 0 79 0;
#X connect 90 0 83 0;
#X connect 91 0 93 0;
#X connect 92 0 91 0;
#X connect 92 0 93 0;
#X connect 93 0 94 0;
#X connect 94 0 95 1;
#X connect 94 0 96 0;
#X connect 95 0 89 0;
#X connect 96 0 95 0;
#X connect 97 0 11 0;
#X connect 97 0 245 0;
#X connect 98 0 223 0;
#X connect 98 0 99 0;
#X connect 99 0 101 0;
#X connect 100 0 102 0;
#X connect 101 0 104 0;
#X connect 102 0 104 1;
#X connect 102 0 105 0;
#X connect 103 0 100 0;
#X connect 103 0 107 0;
#X connect 104 0 112 0;
#X connect 105 0 104 0;
#X connect 106 0 97 0;
#X connect 107 0 100 0;
#X connect 108 0 110 0;
#X connect 109 0 108 0;
#X connect 109 0 110 0;
#X connect 110 0 111 0;
#X connect 111 0 112 1;
#X connect 111 0 113 0;
#X connect 112 0 106 0;
#X connect 113 0 112 0;
#X connect 114 0 16 0;
#X connect 114 0 246 0;
#X connect 115 0 117 0;
#X connect 116 0 115 0;
#X connect 116 0 117 0;
#X connect 117 0 119 0;
#X connect 118 0 120 0;
#X connect 119 0 122 0;
#X connect 120 0 122 1;
#X connect 120 0 123 0;
#X connect 121 0 118 0;
#X connect 121 0 224 0;
#X connect 122 0 129 0;
#X connect 123 0 122 0;
#X connect 124 0 114 0;
#X connect 125 0 127 0;
#X connect 126 0 125 0;
#X connect 126 0 127 0;
#X connect 127 0 128 0;
#X connect 128 0 129 1;
#X connect 128 0 130 0;
#X connect 129 0 124 0;
#X connect 130 0 129 0;
#X connect 131 0 21 0;
#X connect 131 0 247 0;
#X connect 132 0 134 0;
#X connect 133 0 132 0;
#X connect 133 0 134 0;
#X connect 134 0 136 0;
#X connect 135 0 137 0;
#X connect 136 0 139 0;
#X connect 137 0 139 1;
#X connect 137 0 140 0;
#X connect 138 0 135 0;
#X connect 138 0 142 0;
#X connect 139 0 146 0;
#X connect 140 0 139 0;
#X connect 141 0 131 0;
#X connect 142 0 135 0;
#X connect 143 0 225 0;
#X connect 143 0 144 0;
#X connect 144 0 145 0;
#X connect 145 0 146 1;
#X connect 145 0 147 0;
#X connect 146 0 141 0;
#X connect 147 0 146 0;
#X connect 148 0 26 0;
#X connect 148 0 248 0;
#X connect 149 0 231 0;
#X connect 149 0 150 0;
#X connect 150 0 152 0;
#X connect 151 0 153 0;
#X connect 152 0 155 0;
#X connect 153 0 155 1;
#X connect 153 0 156 0;
#X connect 154 0 151 0;
#X connect 154 0 226 0;
#X connect 155 0 161 0;
#X connect 156 0 155 0;
#X connect 157 0 148 0;
#X connect 158 0 227 0;
#X connect 158 0 159 0;
#X connect 159 0 160 0;
#X connect 160 0 161 1;
#X connect 160 0 162 0;
#X connect 161 0 157 0;
#X connect 162 0 161 0;
#X connect 163 0 30 0;
#X connect 163 0 249 0;
#X connect 164 0 233 0;
#X connect 164 0 165 0;
#X connect 165 0 167 0;
#X connect 166 0 168 0;
#X connect 167 0 170 0;
#X connect 168 0 170 1;
#X connect 168 0 171 0;
#X connect 169 0 166 0;
#X connect 169 0 234 0;
#X connect 170 0 176 0;
#X connect 171 0 170 0;
#X connect 172 0 163 0;
#X connect 173 0 228 0;
#X connect 173 0 174 0;
#X connect 174 0 175 0;
#X connect 175 0 176 1;
#X connect 175 0 177 0;
#X connect 176 0 172 0;
#X connect 177 0 176 0;
#X connect 178 0 35 0;
#X connect 178 0 250 0;
#X connect 179 0 229 0;
#X connect 179 0 180 0;
#X connect 180 0 182 0;
#X connect 181 0 183 0;
#X connect 182 0 185 0;
#X connect 183 0 185 1;
#X connect 183 0 186 0;
#X connect 184 0 181 0;
#X connect 184 0 235 0;
#X connect 185 0 191 0;
#X connect 186 0 185 0;
#X connect 187 0 178 0;
#X connect 188 0 236 0;
#X connect 188 0 189 0;
#X connect 189 0 190 0;
#X connect 190 0 191 1;
#X connect 190 0 192 0;
#X connect 191 0 187 0;
#X connect 192 0 191 0;
#X connect 193 0 40 0;
#X connect 193 0 251 0;
#X connect 194 0 237 0;
#X connect 194 0 195 0;
#X connect 195 0 197 0;
#X connect 196 0 198 0;
#X connect 197 0 200 0;
#X connect 198 0 200 1;
#X connect 198 0 201 0;
#X connect 199 0 196 0;
#X connect 199 0 238 0;
#X connect 200 0 206 0;
#X connect 201 0 200 0;
#X connect 202 0 193 0;
#X connect 203 0 230 0;
#X connect 203 0 204 0;
#X connect 204 0 205 0;
#X connect 205 0 206 1;
#X connect 205 0 207 0;
#X connect 206 0 202 0;
#X connect 207 0 206 0;
#X connect 208 0 45 0;
#X connect 208 0 252 0;
#X connect 209 0 232 0;
#X connect 209 0 210 0;
#X connect 210 0 212 0;
#X connect 211 0 213 0;
#X connect 212 0 215 0;
#X connect 213 0 215 1;
#X connect 213 0 216 0;
#X connect 214 0 211 0;
#X connect 214 0 239 0;
#X connect 215 0 221 0;
#X connect 216 0 215 0;
#X connect 217 0 208 0;
#X connect 218 0 240 0;
#X connect 218 0 219 0;
#X connect 219 0 220 0;
#X connect 220 0 221 1;
#X connect 220 0 222 0;
#X connect 221 0 217 0;
#X connect 222 0 221 0;
#X connect 223 0 99 0;
#X connect 224 0 118 0;
#X connect 225 0 144 0;
#X connect 226 0 151 0;
#X connect 227 0 159 0;
#X connect 228 0 174 0;
#X connect 229 0 180 0;
#X connect 230 0 204 0;
#X connect 231 0 150 0;
#X connect 232 0 210 0;
#X connect 233 0 165 0;
#X connect 234 0 166 0;
#X connect 235 0 181 0;
#X connect 236 0 189 0;
#X connect 237 0 195 0;
#X connect 238 0 196 0;
#X connect 239 0 211 0;
#X connect 240 0 219 0;
#X connect 241 0 92 0;
#X connect 241 0 93 1;
#X connect 241 0 109 0;
#X connect 241 0 110 1;
#X connect 241 0 126 0;
#X connect 241 0 127 1;
#X connect 241 0 143 0;
#X connect 241 0 144 1;
#X connect 241 0 158 0;
#X connect 241 0 159 1;
#X connect 241 0 173 0;
#X connect 241 0 174 1;
#X connect 241 0 188 0;
#X connect 241 0 189 1;
#X connect 241 0 203 0;
#X connect 241 0 204 1;
#X connect 241 0 218 0;
#X connect 241 0 219 1;
#X connect 241 0 81 0;
#X connect 241 0 86 0;
#X connect 241 0 98 0;
#X connect 241 0 103 0;
#X connect 241 0 116 0;
#X connect 241 0 121 0;
#X connect 241 0 133 0;
#X connect 241 0 138 0;
#X connect 241 0 149 0;
#X connect 241 0 154 0;
#X connect 241 0 164 0;
#X connect 241 0 169 0;
#X connect 241 0 179 0;
#X connect 241 0 184 0;
#X connect 241 0 194 0;
#X connect 241 0 199 0;
#X connect 241 0 209 0;
#X connect 241 0 214 0;
#X connect 242 0 86 0;
#X connect 242 0 83 1;
#X connect 242 0 103 0;
#X connect 242 0 100 1;
#X connect 242 0 121 0;
#X connect 242 0 118 1;
#X connect 242 0 138 0;
#X connect 242 0 135 1;
#X connect 242 0 154 0;
#X connect 242 0 151 1;
#X connect 242 0 169 0;
#X connect 242 0 166 1;
#X connect 242 0 184 0;
#X connect 242 0 181 1;
#X connect 242 0 199 0;
#X connect 242 0 196 1;
#X connect 242 0 214 0;
#X connect 242 0 211 1;
#X connect 242 0 81 0;
#X connect 242 0 92 0;
#X connect 242 0 98 0;
#X connect 242 0 109 0;
#X connect 242 0 116 0;
#X connect 242 0 126 0;
#X connect 242 0 133 0;
#X connect 242 0 143 0;
#X connect 242 0 149 0;
#X connect 242 0 158 0;
#X connect 242 0 164 0;
#X connect 242 0 173 0;
#X connect 242 0 179 0;
#X connect 242 0 188 0;
#X connect 242 0 194 0;
#X connect 242 0 203 0;
#X connect 242 0 209 0;
#X connect 242 0 218 0;
#X connect 243 0 81 0;
#X connect 243 0 82 1;
#X connect 243 0 98 0;
#X connect 243 0 99 1;
#X connect 243 0 116 0;
#X connect 243 0 117 1;
#X connect 243 0 133 0;
#X connect 243 0 134 1;
#X connect 243 0 149 0;
#X connect 243 0 150 1;
#X connect 243 0 164 0;
#X connect 243 0 165 1;
#X connect 243 0 179 0;
#X connect 243 0 180 1;
#X connect 243 0 194 0;
#X connect 243 0 195 1;
#X connect 243 0 209 0;
#X connect 243 0 210 1;
#X connect 243 0 86 0;
#X connect 243 0 92 0;
#X connect 243 0 103 0;
#X connect 243 0 109 0;
#X connect 243 0 121 0;
#X connect 243 0 126 0;
#X connect 243 0 138 0;
#X connect 243 0 143 0;
#X connect 243 0 154 0;
#X connect 243 0 158 0;
#X connect 243 0 169 0;
#X connect 243 0 173 0;
#X connect 243 0 184 0;
#X connect 243 0 188 0;
#X connect 243 0 199 0;
#X connect 243 0 203 0;
#X connect 243 0 214 0;
#X connect 243 0 218 0;
#X restore 908 124 pd Obliqua;
#X obj 151 294 dac~, f 12;
#N canvas 0 50 1362 691 selecao 0;
#X obj 23 110 *~;
#X msg 41 78 1;
#X msg 75 78 0;
#X obj 24 30 inlet~;
#X obj 22 143 outlet~;
#X obj 85 30 receive pa;
#X obj 173 30 receive pb;
#X obj 257 31 receive pc;
#X obj 339 31 receive pd;
#X obj 422 30 receive pe;
#X obj 507 32 receive pf;
#X obj 603 33 receive pg;
#X connect 0 0 4 0;
#X connect 1 0 0 1;
#X connect 2 0 0 1;
#X connect 3 0 0 0;
#X connect 5 0 1 0;
#X connect 6 0 2 0;
#X connect 7 0 2 0;
#X connect 8 0 2 0;
#X connect 9 0 2 0;
#X connect 10 0 2 0;
#X connect 11 0 2 0;
#X restore 55 189 pd selecao;
#N canvas 18 50 1330 691 Tangencial 0;
#X obj 32 10 inlet;
#X obj 154 472 *~;
#X msg 196 438 0.5;
#X obj 153 439 osc~;
#X obj 155 519 outlet~;
#X msg 195 415 0;
#X obj 250 474 *~;
#X msg 292 440 0.5;
#X obj 249 441 osc~;
#X obj 251 521 outlet~;
#X msg 291 417 0;
#X obj 356 477 *~;
#X msg 398 443 0.5;
#X obj 355 444 osc~;
#X obj 357 524 outlet~;
#X msg 397 420 0;
#X obj 454 475 *~;
#X msg 496 441 0.5;
#X obj 453 442 osc~;
#X obj 455 522 outlet~;
#X msg 495 418 0;
#X obj 554 472 *~;
#X msg 596 438 0.5;
#X obj 553 439 osc~;
#X obj 555 519 outlet~;
#X msg 595 415 0;
#X obj 655 474 *~;
#X msg 697 440 0.5;
#X obj 654 441 osc~;
#X obj 656 521 outlet~;
#X msg 696 417 0;
#X obj 756 476 *~;
#X msg 798 442 0.5;
#X obj 755 443 osc~;
#X obj 757 523 outlet~;
#X msg 797 419 0;
#X obj 858 476 *~;
#X msg 900 442 0.5;
#X obj 857 443 osc~;
#X obj 859 523 outlet~;
#X msg 899 419 0;
#X obj 966 480 *~;
#X msg 1008 446 0.5;
#X obj 965 447 osc~;
#X obj 967 527 outlet~;
#X msg 1007 423 0;
#X obj 184 386 select 1;
#X floatatom 184 362 5 0 0 0 - - -, f 5;
#X obj 263 386 select 1;
#X floatatom 263 362 5 0 0 0 - - -, f 5;
#X obj 350 381 select 1;
#X floatatom 350 357 5 0 0 0 - - -, f 5;
#X obj 454 383 select 1;
#X floatatom 454 359 5 0 0 0 - - -, f 5;
#X obj 549 384 select 1;
#X floatatom 549 360 5 0 0 0 - - -, f 5;
#X obj 665 387 select 1;
#X floatatom 665 363 5 0 0 0 - - -, f 5;
#X obj 782 384 select 1;
#X floatatom 782 360 5 0 0 0 - - -, f 5;
#X obj 862 384 select 1;
#X floatatom 862 360 5 0 0 0 - - -, f 5;
#X obj 969 391 select 1;
#X floatatom 969 367 5 0 0 0 - - -, f 5;
#X obj 184 326 receive a;
#X obj 263 325 receive b;
#X obj 350 325 receive c;
#X obj 454 326 receive d;
#X obj 549 328 receive e;
#X obj 665 327 receive f;
#X obj 782 329 receive g;
#X obj 862 330 receive h;
#X obj 969 334 receive i;
#X obj 1161 50 pow 0.5;
#X floatatom 1160 99 5 0 0 0 - - -, f 5;
#X obj 1160 73 * 20.1;
#X obj 1160 24 + 273.15;
#X obj 1161 2 inlet;
#X obj 1161 125 / 2;
#X obj 110 7 inlet;
#X obj 85 279 *;
#X obj 1121 116 bng 15 250 50 0 empty empty empty 17 7 0 10 -262144
-1 -1;
#X msg 75 103 1;
#X obj 63 84 bng 15 250 50 0 empty empty empty 17 7 0 10 -262144 -1
-1;
#X obj 45 143 /;
#X obj 98 142 /;
#X obj 40 183 pow 2;
#X obj 93 182 pow 2;
#X obj 122 90 bng 15 250 50 0 empty empty empty 17 7 0 10 -262144 -1
-1;
#X obj 70 225 +;
#X obj 74 205 bng 15 250 50 0 empty empty empty 17 7 0 10 -262144 -1
-1;
#X obj 70 248 pow 0.5;
#X obj 207 275 *;
#X msg 181 111 1;
#X obj 163 89 bng 15 250 50 0 empty empty empty 17 7 0 10 -262144 -1
-1;
#X obj 167 139 /;
#X obj 220 138 /;
#X obj 162 179 pow 2;
#X obj 215 178 pow 2;
#X obj 243 86 bng 15 250 50 0 empty empty empty 17 7 0 10 -262144 -1
-1;
#X obj 192 221 +;
#X obj 196 201 bng 15 250 50 0 empty empty empty 17 7 0 10 -262144
-1 -1;
#X obj 192 244 pow 0.5;
#X msg 244 110 2;
#X obj 327 276 *;
#X obj 300 82 bng 15 250 50 0 empty empty empty 17 7 0 10 -262144 -1
-1;
#X obj 287 140 /;
#X obj 340 139 /;
#X obj 282 180 pow 2;
#X obj 335 179 pow 2;
#X obj 363 87 bng 15 250 50 0 empty empty empty 17 7 0 10 -262144 -1
-1;
#X obj 312 222 +;
#X obj 316 202 bng 15 250 50 0 empty empty empty 17 7 0 10 -262144
-1 -1;
#X obj 312 245 pow 0.5;
#X msg 298 114 2;
#X msg 365 114 1;
#X obj 441 278 *;
#X obj 414 84 bng 15 250 50 0 empty empty empty 17 7 0 10 -262144 -1
-1;
#X obj 401 142 /;
#X obj 454 141 /;
#X obj 396 182 pow 2;
#X obj 449 181 pow 2;
#X obj 477 89 bng 15 250 50 0 empty empty empty 17 7 0 10 -262144 -1
-1;
#X obj 426 224 +;
#X obj 430 204 bng 15 250 50 0 empty empty empty 17 7 0 10 -262144
-1 -1;
#X obj 426 247 pow 0.5;
#X msg 412 116 2;
#X msg 479 116 2;
#X obj 554 277 *;
#X obj 527 83 bng 15 250 50 0 empty empty empty 17 7 0 10 -262144 -1
-1;
#X obj 514 141 /;
#X obj 567 140 /;
#X obj 509 181 pow 2;
#X obj 562 180 pow 2;
#X obj 590 88 bng 15 250 50 0 empty empty empty 17 7 0 10 -262144 -1
-1;
#X obj 539 223 +;
#X obj 543 203 bng 15 250 50 0 empty empty empty 17 7 0 10 -262144
-1 -1;
#X obj 539 246 pow 0.5;
#X msg 592 115 2;
#X msg 533 110 3;
#X obj 667 278 *;
#X obj 640 84 bng 15 250 50 0 empty empty empty 17 7 0 10 -262144 -1
-1;
#X obj 627 142 /;
#X obj 680 141 /;
#X obj 622 182 pow 2;
#X obj 675 181 pow 2;
#X obj 703 89 bng 15 250 50 0 empty empty empty 17 7 0 10 -262144 -1
-1;
#X obj 652 224 +;
#X obj 656 204 bng 15 250 50 0 empty empty empty 17 7 0 10 -262144
-1 -1;
#X obj 652 247 pow 0.5;
#X msg 638 116 2;
#X msg 705 116 3;
#X obj 786 280 *;
#X obj 759 86 bng 15 250 50 0 empty empty empty 17 7 0 10 -262144 -1
-1;
#X obj 746 144 /;
#X obj 797 149 /;
#X obj 741 184 pow 2;
#X obj 794 183 pow 2;
#X obj 822 91 bng 15 250 50 0 empty empty empty 17 7 0 10 -262144 -1
-1;
#X obj 771 226 +;
#X obj 775 206 bng 15 250 50 0 empty empty empty 17 7 0 10 -262144
-1 -1;
#X obj 771 249 pow 0.5;
#X msg 824 118 3;
#X msg 757 118 3;
#X obj 897 283 *;
#X obj 867 102 bng 15 250 50 0 empty empty empty 17 7 0 10 -262144
-1 -1;
#X obj 857 147 /;
#X obj 892 151 /;
#X obj 852 187 pow 2;
#X obj 905 186 pow 2;
#X obj 933 94 bng 15 250 50 0 empty empty empty 17 7 0 10 -262144 -1
-1;
#X obj 882 229 +;
#X obj 886 209 bng 15 250 50 0 empty empty empty 17 7 0 10 -262144
-1 -1;
#X obj 882 252 pow 0.5;
#X msg 935 121 3;
#X msg 868 121 4;
#X obj 1003 286 *;
#X obj 977 95 bng 15 250 50 0 empty empty empty 17 7 0 10 -262144 -1
-1;
#X obj 963 150 /;
#X obj 1016 149 /;
#X obj 958 190 pow 2;
#X obj 1011 189 pow 2;
#X obj 1039 97 bng 15 250 50 0 empty empty empty 17 7 0 10 -262144
-1 -1;
#X obj 988 232 +;
#X obj 992 212 bng 15 250 50 0 empty empty empty 17 7 0 10 -262144
-1 -1;
#X obj 988 255 pow 0.5;
#X msg 986 122 3;
#X msg 1041 124 4;
#X obj 29 556 send d1;
#X obj 129 564 send d2;
#X obj 218 561 send d3;
#X obj 282 564 send d4;
#X obj 355 565 send d5;
#X obj 419 564 send d6;
#X obj 489 563 send d7;
#X obj 554 567 send d8;
#X obj 637 569 send d9;
#X connect 0 0 83 0;
#X connect 0 0 84 1;
#X connect 0 0 95 1;
#X connect 0 0 94 0;
#X connect 0 0 106 1;
#X connect 0 0 105 0;
#X connect 0 0 118 1;
#X connect 0 0 117 0;
#X connect 0 0 130 1;
#X connect 0 0 129 0;
#X connect 0 0 142 1;
#X connect 0 0 141 0;
#X connect 0 0 154 1;
#X connect 0 0 153 0;
#X connect 0 0 177 0;
#X connect 0 0 178 1;
#X connect 0 0 166 1;
#X connect 0 0 165 0;
#X connect 0 0 88 0;
#X connect 0 0 99 0;
#X connect 0 0 110 0;
#X connect 0 0 122 0;
#X connect 0 0 134 0;
#X connect 0 0 146 0;
#X connect 0 0 158 0;
#X connect 0 0 170 0;
#X connect 0 0 182 0;
#X connect 1 0 4 0;
#X connect 2 0 1 1;
#X connect 3 0 1 0;
#X connect 5 0 1 1;
#X connect 6 0 9 0;
#X connect 7 0 6 1;
#X connect 8 0 6 0;
#X connect 10 0 6 1;
#X connect 11 0 14 0;
#X connect 12 0 11 1;
#X connect 13 0 11 0;
#X connect 15 0 11 1;
#X connect 16 0 19 0;
#X connect 17 0 16 1;
#X connect 18 0 16 0;
#X connect 20 0 16 1;
#X connect 21 0 24 0;
#X connect 22 0 21 1;
#X connect 23 0 21 0;
#X connect 25 0 21 1;
#X connect 26 0 29 0;
#X connect 27 0 26 1;
#X connect 28 0 26 0;
#X connect 30 0 26 1;
#X connect 31 0 34 0;
#X connect 32 0 31 1;
#X connect 33 0 31 0;
#X connect 35 0 31 1;
#X connect 36 0 39 0;
#X connect 37 0 36 1;
#X connect 38 0 36 0;
#X connect 40 0 36 1;
#X connect 41 0 44 0;
#X connect 42 0 41 1;
#X connect 43 0 41 0;
#X connect 45 0 41 1;
#X connect 46 0 2 0;
#X connect 46 1 5 0;
#X connect 47 0 46 0;
#X connect 48 0 7 0;
#X connect 48 1 10 0;
#X connect 49 0 48 0;
#X connect 50 0 12 0;
#X connect 50 1 15 0;
#X connect 51 0 50 0;
#X connect 52 0 17 0;
#X connect 52 1 20 0;
#X connect 53 0 52 0;
#X connect 54 0 22 0;
#X connect 54 1 25 0;
#X connect 55 0 54 0;
#X connect 56 0 27 0;
#X connect 56 1 30 0;
#X connect 57 0 56 0;
#X connect 58 0 32 0;
#X connect 58 1 35 0;
#X connect 59 0 58 0;
#X connect 60 0 37 0;
#X connect 60 1 40 0;
#X connect 61 0 60 0;
#X connect 62 0 42 0;
#X connect 62 1 45 0;
#X connect 63 0 62 0;
#X connect 64 0 47 0;
#X connect 65 0 49 0;
#X connect 66 0 51 0;
#X connect 67 0 53 0;
#X connect 68 0 55 0;
#X connect 69 0 57 0;
#X connect 70 0 59 0;
#X connect 71 0 61 0;
#X connect 72 0 63 0;
#X connect 73 0 75 0;
#X connect 74 0 78 0;
#X connect 75 0 74 0;
#X connect 76 0 73 0;
#X connect 77 0 76 0;
#X connect 78 0 80 1;
#X connect 78 0 81 0;
#X connect 78 0 92 1;
#X connect 78 0 104 1;
#X connect 78 0 116 1;
#X connect 78 0 128 1;
#X connect 78 0 140 1;
#X connect 78 0 152 1;
#X connect 78 0 164 1;
#X connect 78 0 176 1;
#X connect 79 0 85 1;
#X connect 79 0 88 0;
#X connect 79 0 96 1;
#X connect 79 0 99 0;
#X connect 79 0 107 1;
#X connect 79 0 110 0;
#X connect 79 0 119 1;
#X connect 79 0 122 0;
#X connect 79 0 131 1;
#X connect 79 0 134 0;
#X connect 79 0 143 1;
#X connect 79 0 146 0;
#X connect 79 0 155 1;
#X connect 79 0 158 0;
#X connect 79 0 179 1;
#X connect 79 0 182 0;
#X connect 79 0 170 0;
#X connect 79 0 167 1;
#X connect 79 0 83 0;
#X connect 79 0 94 0;
#X connect 79 0 105 0;
#X connect 79 0 117 0;
#X connect 79 0 129 0;
#X connect 79 0 153 0;
#X connect 79 0 165 0;
#X connect 79 0 177 0;
#X connect 79 0 141 0;
#X connect 80 0 3 0;
#X connect 80 0 188 0;
#X connect 81 0 80 0;
#X connect 81 0 92 0;
#X connect 81 0 104 0;
#X connect 81 0 116 0;
#X connect 81 0 128 0;
#X connect 81 0 140 0;
#X connect 81 0 152 0;
#X connect 81 0 164 0;
#X connect 81 0 176 0;
#X connect 82 0 84 0;
#X connect 82 0 85 0;
#X connect 83 0 82 0;
#X connect 83 0 84 0;
#X connect 84 0 86 0;
#X connect 85 0 87 0;
#X connect 86 0 89 0;
#X connect 87 0 89 1;
#X connect 87 0 90 0;
#X connect 88 0 85 0;
#X connect 89 0 91 0;
#X connect 90 0 89 0;
#X connect 91 0 80 0;
#X connect 92 0 8 0;
#X connect 92 0 189 0;
#X connect 93 0 95 0;
#X connect 94 0 93 0;
#X connect 94 0 95 0;
#X connect 95 0 97 0;
#X connect 96 0 98 0;
#X connect 97 0 100 0;
#X connect 98 0 100 1;
#X connect 98 0 101 0;
#X connect 99 0 103 0;
#X connect 99 0 96 0;
#X connect 100 0 102 0;
#X connect 101 0 100 0;
#X connect 102 0 92 0;
#X connect 103 0 96 0;
#X connect 104 0 13 0;
#X connect 104 0 190 0;
#X connect 105 0 114 0;
#X connect 105 0 106 0;
#X connect 106 0 108 0;
#X connect 107 0 109 0;
#X connect 108 0 111 0;
#X connect 109 0 111 1;
#X connect 109 0 112 0;
#X connect 110 0 115 0;
#X connect 110 0 107 0;
#X connect 111 0 113 0;
#X connect 112 0 111 0;
#X connect 113 0 104 0;
#X connect 114 0 106 0;
#X connect 115 0 107 0;
#X connect 116 0 18 0;
#X connect 116 0 191 0;
#X connect 117 0 126 0;
#X connect 117 0 118 0;
#X connect 118 0 120 0;
#X connect 119 0 121 0;
#X connect 120 0 123 0;
#X connect 121 0 123 1;
#X connect 121 0 124 0;
#X connect 122 0 127 0;
#X connect 122 0 119 0;
#X connect 123 0 125 0;
#X connect 124 0 123 0;
#X connect 125 0 116 0;
#X connect 126 0 118 0;
#X connect 127 0 119 0;
#X connect 128 0 23 0;
#X connect 128 0 192 0;
#X connect 129 0 139 0;
#X connect 129 0 130 0;
#X connect 130 0 132 0;
#X connect 131 0 133 0;
#X connect 132 0 135 0;
#X connect 133 0 135 1;
#X connect 133 0 136 0;
#X connect 134 0 138 0;
#X connect 134 0 131 0;
#X connect 135 0 137 0;
#X connect 136 0 135 0;
#X connect 137 0 128 0;
#X connect 138 0 131 0;
#X connect 139 0 130 0;
#X connect 140 0 28 0;
#X connect 140 0 193 0;
#X connect 141 0 150 0;
#X connect 141 0 142 0;
#X connect 142 0 144 0;
#X connect 143 0 145 0;
#X connect 144 0 147 0;
#X connect 145 0 147 1;
#X connect 145 0 148 0;
#X connect 146 0 151 0;
#X connect 146 0 143 0;
#X connect 147 0 149 0;
#X connect 148 0 147 0;
#X connect 149 0 140 0;
#X connect 150 0 142 0;
#X connect 151 0 143 0;
#X connect 152 0 33 0;
#X connect 152 0 194 0;
#X connect 153 0 163 0;
#X connect 153 0 154 0;
#X connect 154 0 156 0;
#X connect 155 0 157 0;
#X connect 156 0 159 0;
#X connect 157 0 159 1;
#X connect 157 0 160 0;
#X connect 158 0 162 0;
#X connect 158 0 155 0;
#X connect 159 0 161 0;
#X connect 160 0 159 0;
#X connect 161 0 152 0;
#X connect 162 0 155 0;
#X connect 163 0 154 0;
#X connect 164 0 38 0;
#X connect 164 0 195 0;
#X connect 165 0 175 0;
#X connect 165 0 166 0;
#X connect 166 0 168 0;
#X connect 167 0 169 0;
#X connect 168 0 171 0;
#X connect 169 0 171 1;
#X connect 169 0 172 0;
#X connect 170 0 174 0;
#X connect 170 0 167 0;
#X connect 171 0 173 0;
#X connect 172 0 171 0;
#X connect 173 0 164 0;
#X connect 174 0 167 0;
#X connect 175 0 166 0;
#X connect 176 0 43 0;
#X connect 176 0 196 0;
#X connect 177 0 186 0;
#X connect 177 0 178 0;
#X connect 178 0 180 0;
#X connect 179 0 181 0;
#X connect 180 0 183 0;
#X connect 181 0 183 1;
#X connect 181 0 184 0;
#X connect 182 0 187 0;
#X connect 182 0 179 0;
#X connect 183 0 185 0;
#X connect 184 0 183 0;
#X connect 185 0 176 0;
#X connect 186 0 178 0;
#X connect 187 0 179 0;
#X restore 504 133 pd Tangencial CL;
#N canvas 18 50 1330 691 Tangencial 0;
#X obj 32 10 inlet;
#X obj 154 472 *~;
#X msg 196 438 0.5;
#X obj 153 439 osc~;
#X obj 155 519 outlet~;
#X msg 195 415 0;
#X obj 250 474 *~;
#X msg 292 440 0.5;
#X obj 249 441 osc~;
#X obj 251 521 outlet~;
#X msg 291 417 0;
#X obj 356 477 *~;
#X msg 398 443 0.5;
#X obj 355 444 osc~;
#X obj 357 524 outlet~;
#X msg 397 420 0;
#X obj 454 475 *~;
#X msg 496 441 0.5;
#X obj 453 442 osc~;
#X obj 455 522 outlet~;
#X msg 495 418 0;
#X obj 554 472 *~;
#X msg 596 438 0.5;
#X obj 553 439 osc~;
#X obj 555 519 outlet~;
#X msg 595 415 0;
#X obj 655 474 *~;
#X msg 697 440 0.5;
#X obj 654 441 osc~;
#X obj 656 521 outlet~;
#X msg 696 417 0;
#X obj 756 476 *~;
#X msg 798 442 0.5;
#X obj 755 443 osc~;
#X obj 757 523 outlet~;
#X msg 797 419 0;
#X obj 858 476 *~;
#X msg 900 442 0.5;
#X obj 857 443 osc~;
#X obj 859 523 outlet~;
#X msg 899 419 0;
#X obj 966 480 *~;
#X msg 1008 446 0.5;
#X obj 965 447 osc~;
#X obj 967 527 outlet~;
#X msg 1007 423 0;
#X obj 184 386 select 1;
#X floatatom 184 362 5 0 0 0 - - -, f 5;
#X obj 263 386 select 1;
#X floatatom 263 362 5 0 0 0 - - -, f 5;
#X obj 350 381 select 1;
#X floatatom 350 357 5 0 0 0 - - -, f 5;
#X obj 454 383 select 1;
#X floatatom 454 359 5 0 0 0 - - -, f 5;
#X obj 549 384 select 1;
#X floatatom 549 360 5 0 0 0 - - -, f 5;
#X obj 665 387 select 1;
#X floatatom 665 363 5 0 0 0 - - -, f 5;
#X obj 782 384 select 1;
#X floatatom 782 360 5 0 0 0 - - -, f 5;
#X obj 862 384 select 1;
#X floatatom 862 360 5 0 0 0 - - -, f 5;
#X obj 969 391 select 1;
#X floatatom 969 367 5 0 0 0 - - -, f 5;
#X obj 184 326 receive a;
#X obj 263 325 receive b;
#X obj 350 325 receive c;
#X obj 454 326 receive d;
#X obj 549 328 receive e;
#X obj 665 327 receive f;
#X obj 782 329 receive g;
#X obj 862 330 receive h;
#X obj 969 334 receive i;
#X obj 1161 50 pow 0.5;
#X floatatom 1160 99 5 0 0 0 - - -, f 5;
#X obj 1160 73 * 20.1;
#X obj 1160 24 + 273.15;
#X obj 1161 2 inlet;
#X obj 1161 125 / 2;
#X obj 110 7 inlet;
#X obj 85 279 *;
#X obj 1121 116 bng 15 250 50 0 empty empty empty 17 7 0 10 -262144
-1 -1;
#X msg 58 105 1;
#X obj 58 85 bng 15 250 50 0 empty empty empty 17 7 0 10 -262144 -1
-1;
#X obj 45 143 /;
#X obj 98 142 /;
#X obj 40 183 pow 2;
#X obj 93 182 pow 2;
#X obj 121 90 bng 15 250 50 0 empty empty empty 17 7 0 10 -262144 -1
-1;
#X obj 70 225 +;
#X obj 74 205 bng 15 250 50 0 empty empty empty 17 7 0 10 -262144 -1
-1;
#X obj 70 248 pow 0.5;
#X obj 207 275 *;
#X msg 178 113 1;
#X obj 180 81 bng 15 250 50 0 empty empty empty 17 7 0 10 -262144 -1
-1;
#X obj 167 139 /;
#X obj 220 138 /;
#X obj 162 179 pow 2;
#X obj 215 178 pow 2;
#X obj 243 86 bng 15 250 50 0 empty empty empty 17 7 0 10 -262144 -1
-1;
#X obj 192 221 +;
#X obj 196 201 bng 15 250 50 0 empty empty empty 17 7 0 10 -262144
-1 -1;
#X obj 192 244 pow 0.5;
#X msg 245 113 2;
#X obj 327 276 *;
#X obj 300 82 bng 15 250 50 0 empty empty empty 17 7 0 10 -262144 -1
-1;
#X obj 287 140 /;
#X obj 340 139 /;
#X obj 282 180 pow 2;
#X obj 335 179 pow 2;
#X obj 363 87 bng 15 250 50 0 empty empty empty 17 7 0 10 -262144 -1
-1;
#X obj 312 222 +;
#X obj 316 202 bng 15 250 50 0 empty empty empty 17 7 0 10 -262144
-1 -1;
#X obj 312 245 pow 0.5;
#X msg 298 114 2;
#X msg 365 114 1;
#X obj 441 278 *;
#X obj 414 84 bng 15 250 50 0 empty empty empty 17 7 0 10 -262144 -1
-1;
#X obj 401 142 /;
#X obj 454 141 /;
#X obj 396 182 pow 2;
#X obj 449 181 pow 2;
#X obj 477 89 bng 15 250 50 0 empty empty empty 17 7 0 10 -262144 -1
-1;
#X obj 426 224 +;
#X obj 430 204 bng 15 250 50 0 empty empty empty 17 7 0 10 -262144
-1 -1;
#X obj 426 247 pow 0.5;
#X msg 412 116 2;
#X msg 479 116 2;
#X obj 554 277 *;
#X obj 527 83 bng 15 250 50 0 empty empty empty 17 7 0 10 -262144 -1
-1;
#X obj 514 141 /;
#X obj 567 140 /;
#X obj 509 181 pow 2;
#X obj 562 180 pow 2;
#X obj 590 88 bng 15 250 50 0 empty empty empty 17 7 0 10 -262144 -1
-1;
#X obj 539 223 +;
#X obj 543 203 bng 15 250 50 0 empty empty empty 17 7 0 10 -262144
-1 -1;
#X obj 539 246 pow 0.5;
#X msg 592 115 2;
#X msg 525 115 3;
#X obj 667 278 *;
#X obj 640 84 bng 15 250 50 0 empty empty empty 17 7 0 10 -262144 -1
-1;
#X obj 627 142 /;
#X obj 680 141 /;
#X obj 622 182 pow 2;
#X obj 675 181 pow 2;
#X obj 703 89 bng 15 250 50 0 empty empty empty 17 7 0 10 -262144 -1
-1;
#X obj 652 224 +;
#X obj 656 204 bng 15 250 50 0 empty empty empty 17 7 0 10 -262144
-1 -1;
#X obj 652 247 pow 0.5;
#X msg 638 116 2;
#X msg 705 116 3;
#X obj 786 280 *;
#X obj 759 86 bng 15 250 50 0 empty empty empty 17 7 0 10 -262144 -1
-1;
#X obj 746 144 /;
#X obj 799 143 /;
#X obj 741 184 pow 2;
#X obj 794 183 pow 2;
#X obj 822 91 bng 15 250 50 0 empty empty empty 17 7 0 10 -262144 -1
-1;
#X obj 771 226 +;
#X obj 775 206 bng 15 250 50 0 empty empty empty 17 7 0 10 -262144
-1 -1;
#X obj 771 249 pow 0.5;
#X msg 824 118 3;
#X msg 757 118 3;
#X obj 897 283 *;
#X obj 868 101 bng 15 250 50 0 empty empty empty 17 7 0 10 -262144
-1 -1;
#X obj 857 147 /;
#X obj 910 146 /;
#X obj 852 187 pow 2;
#X obj 905 186 pow 2;
#X obj 933 94 bng 15 250 50 0 empty empty empty 17 7 0 10 -262144 -1
-1;
#X obj 882 229 +;
#X obj 886 209 bng 15 250 50 0 empty empty empty 17 7 0 10 -262144
-1 -1;
#X obj 882 252 pow 0.5;
#X msg 935 121 3;
#X msg 868 121 4;
#X obj 1003 286 *;
#X obj 977 95 bng 15 250 50 0 empty empty empty 17 7 0 10 -262144 -1
-1;
#X obj 963 150 /;
#X obj 1016 149 /;
#X obj 958 190 pow 2;
#X obj 1011 189 pow 2;
#X obj 1039 97 bng 15 250 50 0 empty empty empty 17 7 0 10 -262144
-1 -1;
#X obj 988 232 +;
#X obj 992 212 bng 15 250 50 0 empty empty empty 17 7 0 10 -262144
-1 -1;
#X obj 988 255 pow 0.5;
#X msg 974 124 3;
#X msg 1041 124 4;
#X obj 226 576 send e1;
#X obj 326 584 send e2;
#X obj 415 581 send e3;
#X obj 479 584 send e4;
#X obj 552 585 send e5;
#X obj 616 584 send e6;
#X obj 686 583 send e7;
#X obj 751 587 send e8;
#X obj 834 589 send e9;
#X connect 0 0 83 0;
#X connect 0 0 84 1;
#X connect 0 0 95 1;
#X connect 0 0 94 0;
#X connect 0 0 106 1;
#X connect 0 0 105 0;
#X connect 0 0 118 1;
#X connect 0 0 117 0;
#X connect 0 0 130 1;
#X connect 0 0 129 0;
#X connect 0 0 142 1;
#X connect 0 0 141 0;
#X connect 0 0 154 1;
#X connect 0 0 153 0;
#X connect 0 0 177 0;
#X connect 0 0 178 1;
#X connect 0 0 166 1;
#X connect 0 0 165 0;
#X connect 0 0 88 0;
#X connect 0 0 99 0;
#X connect 0 0 110 0;
#X connect 0 0 122 0;
#X connect 0 0 134 0;
#X connect 0 0 146 0;
#X connect 0 0 158 0;
#X connect 0 0 170 0;
#X connect 0 0 182 0;
#X connect 1 0 4 0;
#X connect 2 0 1 1;
#X connect 3 0 1 0;
#X connect 5 0 1 1;
#X connect 6 0 9 0;
#X connect 7 0 6 1;
#X connect 8 0 6 0;
#X connect 10 0 6 1;
#X connect 11 0 14 0;
#X connect 12 0 11 1;
#X connect 13 0 11 0;
#X connect 15 0 11 1;
#X connect 16 0 19 0;
#X connect 17 0 16 1;
#X connect 18 0 16 0;
#X connect 20 0 16 1;
#X connect 21 0 24 0;
#X connect 22 0 21 1;
#X connect 23 0 21 0;
#X connect 25 0 21 1;
#X connect 26 0 29 0;
#X connect 27 0 26 1;
#X connect 28 0 26 0;
#X connect 30 0 26 1;
#X connect 31 0 34 0;
#X connect 32 0 31 1;
#X connect 33 0 31 0;
#X connect 35 0 31 1;
#X connect 36 0 39 0;
#X connect 37 0 36 1;
#X connect 38 0 36 0;
#X connect 40 0 36 1;
#X connect 41 0 44 0;
#X connect 42 0 41 1;
#X connect 43 0 41 0;
#X connect 45 0 41 1;
#X connect 46 0 2 0;
#X connect 46 1 5 0;
#X connect 47 0 46 0;
#X connect 48 0 7 0;
#X connect 48 1 10 0;
#X connect 49 0 48 0;
#X connect 50 0 12 0;
#X connect 50 1 15 0;
#X connect 51 0 50 0;
#X connect 52 0 17 0;
#X connect 52 1 20 0;
#X connect 53 0 52 0;
#X connect 54 0 22 0;
#X connect 54 1 25 0;
#X connect 55 0 54 0;
#X connect 56 0 27 0;
#X connect 56 1 30 0;
#X connect 57 0 56 0;
#X connect 58 0 32 0;
#X connect 58 1 35 0;
#X connect 59 0 58 0;
#X connect 60 0 37 0;
#X connect 60 1 40 0;
#X connect 61 0 60 0;
#X connect 62 0 42 0;
#X connect 62 1 45 0;
#X connect 63 0 62 0;
#X connect 64 0 47 0;
#X connect 65 0 49 0;
#X connect 66 0 51 0;
#X connect 67 0 53 0;
#X connect 68 0 55 0;
#X connect 69 0 57 0;
#X connect 70 0 59 0;
#X connect 71 0 61 0;
#X connect 72 0 63 0;
#X connect 73 0 75 0;
#X connect 74 0 78 0;
#X connect 75 0 74 0;
#X connect 76 0 73 0;
#X connect 77 0 76 0;
#X connect 78 0 80 1;
#X connect 78 0 81 0;
#X connect 78 0 92 1;
#X connect 78 0 104 1;
#X connect 78 0 116 1;
#X connect 78 0 128 1;
#X connect 78 0 140 1;
#X connect 78 0 152 1;
#X connect 78 0 164 1;
#X connect 78 0 176 1;
#X connect 79 0 85 1;
#X connect 79 0 88 0;
#X connect 79 0 96 1;
#X connect 79 0 99 0;
#X connect 79 0 107 1;
#X connect 79 0 110 0;
#X connect 79 0 119 1;
#X connect 79 0 122 0;
#X connect 79 0 131 1;
#X connect 79 0 134 0;
#X connect 79 0 143 1;
#X connect 79 0 146 0;
#X connect 79 0 155 1;
#X connect 79 0 158 0;
#X connect 79 0 179 1;
#X connect 79 0 182 0;
#X connect 79 0 170 0;
#X connect 79 0 167 1;
#X connect 79 0 83 0;
#X connect 79 0 94 0;
#X connect 79 0 105 0;
#X connect 79 0 117 0;
#X connect 79 0 129 0;
#X connect 79 0 141 0;
#X connect 79 0 153 0;
#X connect 79 0 165 0;
#X connect 79 0 177 0;
#X connect 80 0 3 0;
#X connect 80 0 188 0;
#X connect 81 0 80 0;
#X connect 81 0 92 0;
#X connect 81 0 104 0;
#X connect 81 0 116 0;
#X connect 81 0 128 0;
#X connect 81 0 140 0;
#X connect 81 0 152 0;
#X connect 81 0 164 0;
#X connect 81 0 176 0;
#X connect 82 0 84 0;
#X connect 82 0 85 0;
#X connect 83 0 82 0;
#X connect 83 0 84 0;
#X connect 84 0 86 0;
#X connect 85 0 87 0;
#X connect 86 0 89 0;
#X connect 87 0 89 1;
#X connect 87 0 90 0;
#X connect 88 0 85 0;
#X connect 89 0 91 0;
#X connect 90 0 89 0;
#X connect 91 0 80 0;
#X connect 92 0 8 0;
#X connect 92 0 189 0;
#X connect 93 0 95 0;
#X connect 94 0 93 0;
#X connect 94 0 95 0;
#X connect 95 0 97 0;
#X connect 96 0 98 0;
#X connect 97 0 100 0;
#X connect 98 0 100 1;
#X connect 98 0 101 0;
#X connect 99 0 103 0;
#X connect 99 0 96 0;
#X connect 100 0 102 0;
#X connect 101 0 100 0;
#X connect 102 0 92 0;
#X connect 103 0 96 0;
#X connect 104 0 13 0;
#X connect 104 0 190 0;
#X connect 105 0 114 0;
#X connect 105 0 106 0;
#X connect 106 0 108 0;
#X connect 107 0 109 0;
#X connect 108 0 111 0;
#X connect 109 0 111 1;
#X connect 109 0 112 0;
#X connect 110 0 115 0;
#X connect 110 0 107 0;
#X connect 111 0 113 0;
#X connect 112 0 111 0;
#X connect 113 0 104 0;
#X connect 114 0 106 0;
#X connect 115 0 107 0;
#X connect 116 0 18 0;
#X connect 116 0 191 0;
#X connect 117 0 126 0;
#X connect 117 0 118 0;
#X connect 118 0 120 0;
#X connect 119 0 121 0;
#X connect 120 0 123 0;
#X connect 121 0 123 1;
#X connect 121 0 124 0;
#X connect 122 0 127 0;
#X connect 122 0 119 0;
#X connect 123 0 125 0;
#X connect 124 0 123 0;
#X connect 125 0 116 0;
#X connect 126 0 118 0;
#X connect 127 0 119 0;
#X connect 128 0 23 0;
#X connect 128 0 192 0;
#X connect 129 0 139 0;
#X connect 129 0 130 0;
#X connect 130 0 132 0;
#X connect 131 0 133 0;
#X connect 132 0 135 0;
#X connect 133 0 135 1;
#X connect 133 0 136 0;
#X connect 134 0 138 0;
#X connect 134 0 131 0;
#X connect 135 0 137 0;
#X connect 136 0 135 0;
#X connect 137 0 128 0;
#X connect 138 0 131 0;
#X connect 139 0 130 0;
#X connect 140 0 28 0;
#X connect 140 0 193 0;
#X connect 141 0 150 0;
#X connect 141 0 142 0;
#X connect 142 0 144 0;
#X connect 143 0 145 0;
#X connect 144 0 147 0;
#X connect 145 0 147 1;
#X connect 145 0 148 0;
#X connect 146 0 151 0;
#X connect 146 0 143 0;
#X connect 147 0 149 0;
#X connect 148 0 147 0;
#X connect 149 0 140 0;
#X connect 150 0 142 0;
#X connect 151 0 143 0;
#X connect 152 0 33 0;
#X connect 152 0 194 0;
#X connect 153 0 163 0;
#X connect 153 0 154 0;
#X connect 154 0 156 0;
#X connect 155 0 157 0;
#X connect 156 0 159 0;
#X connect 157 0 159 1;
#X connect 157 0 160 0;
#X connect 158 0 162 0;
#X connect 158 0 155 0;
#X connect 159 0 161 0;
#X connect 160 0 159 0;
#X connect 161 0 152 0;
#X connect 162 0 155 0;
#X connect 163 0 154 0;
#X connect 164 0 38 0;
#X connect 164 0 195 0;
#X connect 165 0 175 0;
#X connect 165 0 166 0;
#X connect 166 0 168 0;
#X connect 167 0 169 0;
#X connect 168 0 171 0;
#X connect 169 0 171 1;
#X connect 169 0 172 0;
#X connect 170 0 174 0;
#X connect 170 0 167 0;
#X connect 171 0 173 0;
#X connect 172 0 171 0;
#X connect 173 0 164 0;
#X connect 174 0 167 0;
#X connect 175 0 166 0;
#X connect 176 0 43 0;
#X connect 176 0 196 0;
#X connect 177 0 186 0;
#X connect 177 0 178 0;
#X connect 178 0 180 0;
#X connect 179 0 181 0;
#X connect 180 0 183 0;
#X connect 181 0 183 1;
#X connect 181 0 184 0;
#X connect 182 0 187 0;
#X connect 182 0 179 0;
#X connect 183 0 185 0;
#X connect 184 0 183 0;
#X connect 185 0 176 0;
#X connect 186 0 178 0;
#X connect 187 0 179 0;
#X restore 633 128 pd Tangencial CA;
#N canvas 18 50 1330 691 Tangencial 0;
#X obj 32 10 inlet;
#X obj 154 472 *~;
#X msg 196 438 0.5;
#X obj 153 439 osc~;
#X obj 155 519 outlet~;
#X msg 195 415 0;
#X obj 250 474 *~;
#X msg 292 440 0.5;
#X obj 249 441 osc~;
#X obj 251 521 outlet~;
#X msg 291 417 0;
#X obj 356 477 *~;
#X msg 398 443 0.5;
#X obj 355 444 osc~;
#X obj 357 524 outlet~;
#X msg 397 420 0;
#X obj 454 475 *~;
#X msg 496 441 0.5;
#X obj 453 442 osc~;
#X obj 455 522 outlet~;
#X msg 495 418 0;
#X obj 554 472 *~;
#X msg 596 438 0.5;
#X obj 553 439 osc~;
#X obj 555 519 outlet~;
#X msg 595 415 0;
#X obj 655 474 *~;
#X msg 697 440 0.5;
#X obj 654 441 osc~;
#X obj 656 521 outlet~;
#X msg 696 417 0;
#X obj 756 476 *~;
#X msg 798 442 0.5;
#X obj 755 443 osc~;
#X obj 757 523 outlet~;
#X msg 797 419 0;
#X obj 858 476 *~;
#X msg 900 442 0.5;
#X obj 857 443 osc~;
#X obj 859 523 outlet~;
#X msg 899 419 0;
#X obj 966 480 *~;
#X msg 1008 446 0.5;
#X obj 965 447 osc~;
#X obj 967 527 outlet~;
#X msg 1007 423 0;
#X obj 184 386 select 1;
#X floatatom 184 362 5 0 0 0 - - -, f 5;
#X obj 263 386 select 1;
#X floatatom 263 362 5 0 0 0 - - -, f 5;
#X obj 350 381 select 1;
#X floatatom 350 357 5 0 0 0 - - -, f 5;
#X obj 454 383 select 1;
#X floatatom 454 359 5 0 0 0 - - -, f 5;
#X obj 549 384 select 1;
#X floatatom 549 360 5 0 0 0 - - -, f 5;
#X obj 665 387 select 1;
#X floatatom 665 363 5 0 0 0 - - -, f 5;
#X obj 782 384 select 1;
#X floatatom 782 360 5 0 0 0 - - -, f 5;
#X obj 862 384 select 1;
#X floatatom 862 360 5 0 0 0 - - -, f 5;
#X obj 969 391 select 1;
#X floatatom 969 367 5 0 0 0 - - -, f 5;
#X obj 184 326 receive a;
#X obj 263 325 receive b;
#X obj 350 325 receive c;
#X obj 454 326 receive d;
#X obj 549 328 receive e;
#X obj 665 327 receive f;
#X obj 782 329 receive g;
#X obj 862 330 receive h;
#X obj 969 334 receive i;
#X obj 1161 50 pow 0.5;
#X floatatom 1160 99 5 0 0 0 - - -, f 5;
#X obj 1160 73 * 20.1;
#X obj 1160 24 + 273.15;
#X obj 1161 2 inlet;
#X obj 1161 125 / 2;
#X obj 554 6 inlet;
#X obj 85 279 *;
#X obj 1121 116 bng 15 250 50 0 empty empty empty 17 7 0 10 -262144
-1 -1;
#X msg 58 105 1;
#X obj 58 85 bng 15 250 50 0 empty empty empty 17 7 0 10 -262144 -1
-1;
#X obj 45 143 /;
#X obj 98 142 /;
#X obj 40 183 pow 2;
#X obj 93 182 pow 2;
#X obj 121 90 bng 15 250 50 0 empty empty empty 17 7 0 10 -262144 -1
-1;
#X obj 70 225 +;
#X obj 74 205 bng 15 250 50 0 empty empty empty 17 7 0 10 -262144 -1
-1;
#X obj 70 248 pow 0.5;
#X obj 207 275 *;
#X msg 178 113 1;
#X obj 180 81 bng 15 250 50 0 empty empty empty 17 7 0 10 -262144 -1
-1;
#X obj 167 139 /;
#X obj 220 138 /;
#X obj 162 179 pow 2;
#X obj 215 178 pow 2;
#X obj 243 86 bng 15 250 50 0 empty empty empty 17 7 0 10 -262144 -1
-1;
#X obj 192 221 +;
#X obj 196 201 bng 15 250 50 0 empty empty empty 17 7 0 10 -262144
-1 -1;
#X obj 192 244 pow 0.5;
#X msg 245 113 2;
#X obj 327 276 *;
#X obj 300 82 bng 15 250 50 0 empty empty empty 17 7 0 10 -262144 -1
-1;
#X obj 287 140 /;
#X obj 340 139 /;
#X obj 282 180 pow 2;
#X obj 335 179 pow 2;
#X obj 363 87 bng 15 250 50 0 empty empty empty 17 7 0 10 -262144 -1
-1;
#X obj 312 222 +;
#X obj 316 202 bng 15 250 50 0 empty empty empty 17 7 0 10 -262144
-1 -1;
#X obj 312 245 pow 0.5;
#X msg 298 114 2;
#X msg 365 114 1;
#X obj 441 278 *;
#X obj 414 84 bng 15 250 50 0 empty empty empty 17 7 0 10 -262144 -1
-1;
#X obj 401 142 /;
#X obj 454 141 /;
#X obj 396 182 pow 2;
#X obj 449 181 pow 2;
#X obj 477 89 bng 15 250 50 0 empty empty empty 17 7 0 10 -262144 -1
-1;
#X obj 426 224 +;
#X obj 430 204 bng 15 250 50 0 empty empty empty 17 7 0 10 -262144
-1 -1;
#X obj 426 247 pow 0.5;
#X msg 412 116 2;
#X msg 479 116 2;
#X obj 554 277 *;
#X obj 527 83 bng 15 250 50 0 empty empty empty 17 7 0 10 -262144 -1
-1;
#X obj 514 141 /;
#X obj 567 140 /;
#X obj 509 181 pow 2;
#X obj 562 180 pow 2;
#X obj 590 88 bng 15 250 50 0 empty empty empty 17 7 0 10 -262144 -1
-1;
#X obj 539 223 +;
#X obj 543 203 bng 15 250 50 0 empty empty empty 17 7 0 10 -262144
-1 -1;
#X obj 539 246 pow 0.5;
#X msg 592 115 2;
#X msg 525 115 3;
#X obj 667 278 *;
#X obj 640 84 bng 15 250 50 0 empty empty empty 17 7 0 10 -262144 -1
-1;
#X obj 627 142 /;
#X obj 680 141 /;
#X obj 622 182 pow 2;
#X obj 675 181 pow 2;
#X obj 703 89 bng 15 250 50 0 empty empty empty 17 7 0 10 -262144 -1
-1;
#X obj 652 224 +;
#X obj 656 204 bng 15 250 50 0 empty empty empty 17 7 0 10 -262144
-1 -1;
#X obj 652 247 pow 0.5;
#X msg 638 116 2;
#X msg 705 116 3;
#X obj 786 280 *;
#X obj 759 86 bng 15 250 50 0 empty empty empty 17 7 0 10 -262144 -1
-1;
#X obj 746 144 /;
#X obj 799 143 /;
#X obj 741 184 pow 2;
#X obj 794 183 pow 2;
#X obj 823 92 bng 15 250 50 0 empty empty empty 17 7 0 10 -262144 -1
-1;
#X obj 771 226 +;
#X obj 775 206 bng 15 250 50 0 empty empty empty 17 7 0 10 -262144
-1 -1;
#X obj 771 249 pow 0.5;
#X msg 824 118 3;
#X msg 757 118 3;
#X obj 901 297 *;
#X obj 866 96 bng 15 250 50 0 empty empty empty 17 7 0 10 -262144 -1
-1;
#X obj 857 147 /;
#X obj 910 146 /;
#X obj 852 187 pow 2;
#X obj 905 186 pow 2;
#X obj 925 103 bng 15 250 50 0 empty empty empty 17 7 0 10 -262144
-1 -1;
#X obj 886 243 +;
#X obj 885 209 bng 15 250 50 0 empty empty empty 17 7 0 10 -262144
-1 -1;
#X obj 886 266 pow 0.5;
#X msg 941 126 3;
#X msg 868 121 4;
#X obj 1003 286 *;
#X obj 977 95 bng 15 250 50 0 empty empty empty 17 7 0 10 -262144 -1
-1;
#X obj 963 150 /;
#X obj 1016 149 /;
#X obj 958 190 pow 2;
#X obj 1011 189 pow 2;
#X obj 1039 97 bng 15 250 50 0 empty empty empty 17 7 0 10 -262144
-1 -1;
#X obj 988 232 +;
#X obj 992 212 bng 15 250 50 0 empty empty empty 17 7 0 10 -262144
-1 -1;
#X obj 988 255 pow 0.5;
#X msg 974 124 3;
#X msg 1041 124 4;
#X obj 216 574 send f1;
#X obj 316 582 send f2;
#X obj 405 579 send f3;
#X obj 469 582 send f4;
#X obj 542 583 send f5;
#X obj 606 582 send f6;
#X obj 676 581 send f7;
#X obj 741 585 send f8;
#X obj 824 587 send f9;
#X connect 0 0 83 0;
#X connect 0 0 84 1;
#X connect 0 0 95 1;
#X connect 0 0 94 0;
#X connect 0 0 106 1;
#X connect 0 0 105 0;
#X connect 0 0 118 1;
#X connect 0 0 117 0;
#X connect 0 0 130 1;
#X connect 0 0 129 0;
#X connect 0 0 142 1;
#X connect 0 0 141 0;
#X connect 0 0 154 1;
#X connect 0 0 153 0;
#X connect 0 0 177 0;
#X connect 0 0 178 1;
#X connect 0 0 166 1;
#X connect 0 0 165 0;
#X connect 0 0 88 0;
#X connect 0 0 99 0;
#X connect 0 0 110 0;
#X connect 0 0 122 0;
#X connect 0 0 134 0;
#X connect 0 0 146 0;
#X connect 0 0 158 0;
#X connect 0 0 170 0;
#X connect 0 0 182 0;
#X connect 1 0 4 0;
#X connect 2 0 1 1;
#X connect 3 0 1 0;
#X connect 5 0 1 1;
#X connect 6 0 9 0;
#X connect 7 0 6 1;
#X connect 8 0 6 0;
#X connect 10 0 6 1;
#X connect 11 0 14 0;
#X connect 12 0 11 1;
#X connect 13 0 11 0;
#X connect 15 0 11 1;
#X connect 16 0 19 0;
#X connect 17 0 16 1;
#X connect 18 0 16 0;
#X connect 20 0 16 1;
#X connect 21 0 24 0;
#X connect 22 0 21 1;
#X connect 23 0 21 0;
#X connect 25 0 21 1;
#X connect 26 0 29 0;
#X connect 27 0 26 1;
#X connect 28 0 26 0;
#X connect 30 0 26 1;
#X connect 31 0 34 0;
#X connect 32 0 31 1;
#X connect 33 0 31 0;
#X connect 35 0 31 1;
#X connect 36 0 39 0;
#X connect 37 0 36 1;
#X connect 38 0 36 0;
#X connect 40 0 36 1;
#X connect 41 0 44 0;
#X connect 42 0 41 1;
#X connect 43 0 41 0;
#X connect 45 0 41 1;
#X connect 46 0 2 0;
#X connect 46 1 5 0;
#X connect 47 0 46 0;
#X connect 48 0 7 0;
#X connect 48 1 10 0;
#X connect 49 0 48 0;
#X connect 50 0 12 0;
#X connect 50 1 15 0;
#X connect 51 0 50 0;
#X connect 52 0 17 0;
#X connect 52 1 20 0;
#X connect 53 0 52 0;
#X connect 54 0 22 0;
#X connect 54 1 25 0;
#X connect 55 0 54 0;
#X connect 56 0 27 0;
#X connect 56 1 30 0;
#X connect 57 0 56 0;
#X connect 58 0 32 0;
#X connect 58 1 35 0;
#X connect 59 0 58 0;
#X connect 60 0 37 0;
#X connect 60 1 40 0;
#X connect 61 0 60 0;
#X connect 62 0 42 0;
#X connect 62 1 45 0;
#X connect 63 0 62 0;
#X connect 64 0 47 0;
#X connect 65 0 49 0;
#X connect 66 0 51 0;
#X connect 67 0 53 0;
#X connect 68 0 55 0;
#X connect 69 0 57 0;
#X connect 70 0 59 0;
#X connect 71 0 61 0;
#X connect 72 0 63 0;
#X connect 73 0 75 0;
#X connect 74 0 78 0;
#X connect 75 0 74 0;
#X connect 76 0 73 0;
#X connect 77 0 76 0;
#X connect 78 0 80 1;
#X connect 78 0 81 0;
#X connect 78 0 92 1;
#X connect 78 0 104 1;
#X connect 78 0 116 1;
#X connect 78 0 128 1;
#X connect 78 0 140 1;
#X connect 78 0 152 1;
#X connect 78 0 164 1;
#X connect 78 0 176 1;
#X connect 79 0 85 1;
#X connect 79 0 88 0;
#X connect 79 0 96 1;
#X connect 79 0 99 0;
#X connect 79 0 107 1;
#X connect 79 0 110 0;
#X connect 79 0 119 1;
#X connect 79 0 122 0;
#X connect 79 0 131 1;
#X connect 79 0 134 0;
#X connect 79 0 143 1;
#X connect 79 0 146 0;
#X connect 79 0 155 1;
#X connect 79 0 158 0;
#X connect 79 0 179 1;
#X connect 79 0 182 0;
#X connect 79 0 170 0;
#X connect 79 0 83 0;
#X connect 79 0 94 0;
#X connect 79 0 117 0;
#X connect 79 0 129 0;
#X connect 79 0 141 0;
#X connect 79 0 153 0;
#X connect 79 0 165 0;
#X connect 79 0 177 0;
#X connect 80 0 3 0;
#X connect 80 0 188 0;
#X connect 81 0 80 0;
#X connect 81 0 92 0;
#X connect 81 0 104 0;
#X connect 81 0 116 0;
#X connect 81 0 128 0;
#X connect 81 0 140 0;
#X connect 81 0 152 0;
#X connect 81 0 164 0;
#X connect 81 0 176 0;
#X connect 82 0 84 0;
#X connect 82 0 85 0;
#X connect 83 0 82 0;
#X connect 83 0 84 0;
#X connect 84 0 86 0;
#X connect 85 0 87 0;
#X connect 86 0 89 0;
#X connect 87 0 89 1;
#X connect 87 0 90 0;
#X connect 88 0 85 0;
#X connect 89 0 91 0;
#X connect 90 0 89 0;
#X connect 91 0 80 0;
#X connect 92 0 8 0;
#X connect 92 0 189 0;
#X connect 93 0 95 0;
#X connect 94 0 93 0;
#X connect 94 0 95 0;
#X connect 95 0 97 0;
#X connect 96 0 98 0;
#X connect 97 0 100 0;
#X connect 98 0 100 1;
#X connect 98 0 101 0;
#X connect 99 0 103 0;
#X connect 99 0 96 0;
#X connect 100 0 102 0;
#X connect 101 0 100 0;
#X connect 102 0 92 0;
#X connect 103 0 96 0;
#X connect 104 0 13 0;
#X connect 104 0 190 0;
#X connect 105 0 114 0;
#X connect 105 0 106 0;
#X connect 106 0 108 0;
#X connect 107 0 109 0;
#X connect 108 0 111 0;
#X connect 109 0 111 1;
#X connect 109 0 112 0;
#X connect 110 0 115 0;
#X connect 110 0 107 0;
#X connect 111 0 113 0;
#X connect 112 0 111 0;
#X connect 113 0 104 0;
#X connect 114 0 106 0;
#X connect 115 0 107 0;
#X connect 116 0 18 0;
#X connect 116 0 191 0;
#X connect 117 0 126 0;
#X connect 117 0 118 0;
#X connect 118 0 120 0;
#X connect 119 0 121 0;
#X connect 120 0 123 0;
#X connect 121 0 123 1;
#X connect 121 0 124 0;
#X connect 122 0 127 0;
#X connect 122 0 119 0;
#X connect 123 0 125 0;
#X connect 124 0 123 0;
#X connect 125 0 116 0;
#X connect 126 0 118 0;
#X connect 127 0 119 0;
#X connect 128 0 23 0;
#X connect 128 0 192 0;
#X connect 129 0 139 0;
#X connect 129 0 130 0;
#X connect 130 0 132 0;
#X connect 131 0 133 0;
#X connect 132 0 135 0;
#X connect 133 0 135 1;
#X connect 133 0 136 0;
#X connect 134 0 138 0;
#X connect 134 0 131 0;
#X connect 135 0 137 0;
#X connect 136 0 135 0;
#X connect 137 0 128 0;
#X connect 138 0 131 0;
#X connect 139 0 130 0;
#X connect 140 0 28 0;
#X connect 140 0 193 0;
#X connect 141 0 150 0;
#X connect 141 0 142 0;
#X connect 142 0 144 0;
#X connect 143 0 145 0;
#X connect 144 0 147 0;
#X connect 145 0 147 1;
#X connect 145 0 148 0;
#X connect 146 0 151 0;
#X connect 146 0 143 0;
#X connect 147 0 149 0;
#X connect 148 0 147 0;
#X connect 149 0 140 0;
#X connect 150 0 142 0;
#X connect 151 0 143 0;
#X connect 152 0 33 0;
#X connect 152 0 194 0;
#X connect 153 0 163 0;
#X connect 153 0 154 0;
#X connect 154 0 156 0;
#X connect 155 0 157 0;
#X connect 156 0 159 0;
#X connect 157 0 159 1;
#X connect 157 0 160 0;
#X connect 158 0 162 0;
#X connect 158 0 155 0;
#X connect 159 0 161 0;
#X connect 160 0 159 0;
#X connect 161 0 152 0;
#X connect 162 0 155 0;
#X connect 163 0 154 0;
#X connect 164 0 38 0;
#X connect 164 0 195 0;
#X connect 165 0 175 0;
#X connect 165 0 166 0;
#X connect 166 0 168 0;
#X connect 167 0 169 0;
#X connect 168 0 171 0;
#X connect 169 0 171 1;
#X connect 169 0 172 0;
#X connect 170 0 174 0;
#X connect 170 0 167 0;
#X connect 171 0 173 0;
#X connect 172 0 171 0;
#X connect 173 0 164 0;
#X connect 174 0 167 0;
#X connect 175 0 166 0;
#X connect 176 0 43 0;
#X connect 176 0 196 0;
#X connect 177 0 186 0;
#X connect 177 0 178 0;
#X connect 178 0 180 0;
#X connect 179 0 181 0;
#X connect 180 0 183 0;
#X connect 181 0 183 1;
#X connect 181 0 184 0;
#X connect 182 0 187 0;
#X connect 182 0 179 0;
#X connect 183 0 185 0;
#X connect 184 0 183 0;
#X connect 185 0 176 0;
#X connect 186 0 178 0;
#X connect 187 0 179 0;
#X restore 765 121 pd Tangencial LA;
#N canvas 0 204 1362 691 selecao 0;
#X obj 23 110 *~;
#X msg 41 78 1;
#X msg 75 78 0;
#X obj 24 30 inlet~;
#X obj 22 143 outlet~;
#X obj 85 30 receive pa;
#X obj 173 30 receive pb;
#X obj 257 31 receive pc;
#X obj 339 31 receive pd;
#X obj 422 30 receive pe;
#X obj 507 32 receive pf;
#X obj 603 33 receive pg;
#X connect 0 0 4 0;
#X connect 1 0 0 1;
#X connect 2 0 0 1;
#X connect 3 0 0 0;
#X connect 5 0 2 0;
#X connect 6 0 2 0;
#X connect 7 0 2 0;
#X connect 8 0 1 0;
#X connect 9 0 2 0;
#X connect 10 0 2 0;
#X connect 11 0 2 0;
#X restore 490 178 pd selecao;
#N canvas 0 50 1362 691 selecao 0;
#X obj 23 110 *~;
#X msg 41 78 1;
#X msg 75 78 0;
#X obj 24 30 inlet~;
#X obj 22 143 outlet~;
#X obj 85 30 receive pa;
#X obj 173 30 receive pb;
#X obj 257 31 receive pc;
#X obj 339 31 receive pd;
#X obj 422 30 receive pe;
#X obj 507 32 receive pf;
#X obj 603 33 receive pg;
#X connect 0 0 4 0;
#X connect 1 0 0 1;
#X connect 2 0 0 1;
#X connect 3 0 0 0;
#X connect 5 0 2 0;
#X connect 6 0 2 0;
#X connect 7 0 1 0;
#X connect 8 0 2 0;
#X connect 9 0 2 0;
#X connect 10 0 2 0;
#X connect 11 0 2 0;
#X restore 356 186 pd selecao;
#N canvas 0 50 1362 691 selecao 0;
#X obj 23 110 *~;
#X msg 41 78 1;
#X msg 75 78 0;
#X obj 24 30 inlet~;
#X obj 22 143 outlet~;
#X obj 85 30 receive pa;
#X obj 173 30 receive pb;
#X obj 257 31 receive pc;
#X obj 339 31 receive pd;
#X obj 422 30 receive pe;
#X obj 507 32 receive pf;
#X obj 603 33 receive pg;
#X connect 0 0 4 0;
#X connect 1 0 0 1;
#X connect 2 0 0 1;
#X connect 3 0 0 0;
#X connect 5 0 2 0;
#X connect 6 0 2 0;
#X connect 7 0 2 0;
#X connect 8 0 2 0;
#X connect 9 0 1 0;
#X connect 10 0 2 0;
#X connect 11 0 2 0;
#X restore 629 182 pd selecao;
#N canvas 0 50 1362 691 selecao 0;
#X obj 23 110 *~;
#X msg 41 78 1;
#X msg 75 78 0;
#X obj 24 30 inlet~;
#X obj 22 143 outlet~;
#X obj 85 30 receive pa;
#X obj 173 30 receive pb;
#X obj 257 31 receive pc;
#X obj 339 31 receive pd;
#X obj 422 30 receive pe;
#X obj 507 32 receive pf;
#X obj 603 33 receive pg;
#X connect 0 0 4 0;
#X connect 1 0 0 1;
#X connect 2 0 0 1;
#X connect 3 0 0 0;
#X connect 5 0 2 0;
#X connect 6 0 2 0;
#X connect 7 0 2 0;
#X connect 8 0 2 0;
#X connect 9 0 2 0;
#X connect 10 0 1 0;
#X connect 11 0 2 0;
#X restore 751 181 pd selecao;
#N canvas 0 50 1362 691 selecao 0;
#X obj 23 110 *~;
#X msg 41 78 1;
#X msg 75 78 0;
#X obj 24 30 inlet~;
#X obj 22 143 outlet~;
#X obj 85 30 receive pa;
#X obj 173 30 receive pb;
#X obj 257 31 receive pc;
#X obj 339 31 receive pd;
#X obj 422 30 receive pe;
#X obj 507 32 receive pf;
#X obj 603 33 receive pg;
#X connect 0 0 4 0;
#X connect 1 0 0 1;
#X connect 2 0 0 1;
#X connect 3 0 0 0;
#X connect 5 0 2 0;
#X connect 6 0 2 0;
#X connect 7 0 2 0;
#X connect 8 0 2 0;
#X connect 9 0 2 0;
#X connect 10 0 2 0;
#X connect 11 0 1 0;
#X restore 899 183 pd selecao;
#N canvas 0 50 1362 691 selecao 0;
#X obj 23 110 *~;
#X msg 41 78 1;
#X msg 75 78 0;
#X obj 24 30 inlet~;
#X obj 22 143 outlet~;
#X obj 85 30 receive pa;
#X obj 173 30 receive pb;
#X obj 257 31 receive pc;
#X obj 339 31 receive pd;
#X obj 422 30 receive pe;
#X obj 507 32 receive pf;
#X obj 603 33 receive pg;
#X connect 0 0 4 0;
#X connect 1 0 0 1;
#X connect 2 0 0 1;
#X connect 3 0 0 0;
#X connect 5 0 2 0;
#X connect 6 0 1 0;
#X connect 7 0 2 0;
#X connect 8 0 2 0;
#X connect 9 0 2 0;
#X connect 10 0 2 0;
#X connect 11 0 2 0;
#X restore 241 180 pd selecao;
#X connect 0 0 5 1;
#X connect 0 0 4 1;
#X connect 0 0 6 1;
#X connect 0 0 10 2;
#X connect 0 0 11 2;
#X connect 0 0 12 2;
#X connect 0 0 7 3;
#X connect 1 0 4 0;
#X connect 1 0 10 1;
#X connect 1 0 12 0;
#X connect 1 0 7 1;
#X connect 2 0 5 0;
#X connect 2 0 10 0;
#X connect 2 0 11 0;
#X connect 2 0 7 0;
#X connect 3 0 6 0;
#X connect 3 0 11 1;
#X connect 3 0 12 1;
#X connect 3 0 7 2;
#X connect 4 0 18 0;
#X connect 4 1 18 0;
#X connect 4 2 18 0;
#X connect 4 3 18 0;
#X connect 4 4 18 0;
#X connect 4 5 18 0;
#X connect 4 6 18 0;
#X connect 4 7 18 0;
#X connect 4 8 18 0;
#X connect 5 0 9 0;
#X connect 5 1 9 0;
#X connect 5 2 9 0;
#X connect 5 3 9 0;
#X connect 5 4 9 0;
#X connect 5 5 9 0;
#X connect 5 6 9 0;
#X connect 5 7 9 0;
#X connect 5 8 9 0;
#X connect 6 0 14 0;
#X connect 6 1 14 0;
#X connect 6 2 14 0;
#X connect 6 3 14 0;
#X connect 6 4 14 0;
#X connect 6 5 14 0;
#X connect 6 6 14 0;
#X connect 6 7 14 0;
#X connect 6 8 14 0;
#X connect 7 0 17 0;
#X connect 7 1 17 0;
#X connect 7 2 17 0;
#X connect 7 3 17 0;
#X connect 7 4 17 0;
#X connect 7 5 17 0;
#X connect 7 6 17 0;
#X connect 7 7 17 0;
#X connect 7 8 17 0;
#X connect 9 0 8 0;
#X connect 9 0 8 1;
#X connect 10 0 13 0;
#X connect 10 1 13 0;
#X connect 10 2 13 0;
#X connect 10 3 13 0;
#X connect 10 4 13 0;
#X connect 10 5 13 0;
#X connect 10 6 13 0;
#X connect 10 7 13 0;
#X connect 10 8 13 0;
#X connect 11 0 15 0;
#X connect 11 1 15 0;
#X connect 11 2 15 0;
#X connect 11 3 15 0;
#X connect 11 4 15 0;
#X connect 11 5 15 0;
#X connect 11 6 15 0;
#X connect 11 7 15 0;
#X connect 11 8 15 0;
#X connect 12 0 16 0;
#X connect 12 1 16 0;
#X connect 12 2 16 0;
#X connect 12 3 16 0;
#X connect 12 4 16 0;
#X connect 12 5 16 0;
#X connect 12 6 16 0;
#X connect 12 7 16 0;
#X connect 12 8 16 0;
#X connect 13 0 8 0;
#X connect 13 0 8 1;
#X connect 14 0 8 1;
#X connect 14 0 8 0;
#X connect 15 0 8 1;
#X connect 15 0 8 0;
#X connect 16 0 8 1;
#X connect 16 0 8 0;
#X connect 17 0 8 1;
#X connect 17 0 8 0;
#X connect 18 0 8 0;
#X connect 18 0 8 1;
#X restore 135 99 pd;
#X text 157 52 Temperatura;
#X text 676 6 O patch gera ondas estacionárias nos três diferentes
modos de sala. Assim \, ele possui módulos para geração de ondas
estacionárias \, sendo esses os três eixos dos modos axiais \, as
três combinações dos modos tangênciais e modo oblíquo \, gerando
9 ondas estacionárias para cada módulo. Para a utilização do patch
ligar o dsp \, adicionar as informações de dimensão da sala \, bem
como a temperatura do ambiente \, então selecionar as ondas que devem
tocar e o módulo desejado.;
#X obj 98 1 loadbang;
#N canvas 0 50 1362 691 Frequências 0;
#X obj 84 65 receive a1;
#X floatatom 84 109 5 0 0 0 - - -, f 5;
#X floatatom 260 110 5 0 0 0 - - -, f 5;
#X floatatom 174 110 5 0 0 0 - - -, f 5;
#X floatatom 350 113 5 0 0 0 - - -, f 5;
#X floatatom 438 112 5 0 0 0 - - -, f 5;
#X floatatom 528 116 5 0 0 0 - - -, f 5;
#X floatatom 614 117 5 0 0 0 - - -, f 5;
#X floatatom 704 119 5 0 0 0 - - -, f 5;
#X floatatom 784 118 5 0 0 0 - - -, f 5;
#X obj 174 66 receive a2;
#X obj 259 70 receive a3;
#X obj 350 71 receive a4;
#X obj 438 70 receive a5;
#X obj 528 71 receive a6;
#X obj 614 75 receive a7;
#X obj 704 76 receive a8;
#X obj 784 77 receive a9;
#X connect 0 0 1 0;
#X connect 10 0 3 0;
#X connect 11 0 2 0;
#X connect 12 0 4 0;
#X connect 13 0 5 0;
#X connect 14 0 6 0;
#X connect 15 0 7 0;
#X connect 16 0 8 0;
#X connect 17 0 9 0;
#X restore 404 135 pd Frequências Axial Comprimento;
#N canvas 0 50 1362 691 Frequências 0;
#X floatatom 84 109 5 0 0 0 - - -, f 5;
#X floatatom 260 110 5 0 0 0 - - -, f 5;
#X floatatom 174 110 5 0 0 0 - - -, f 5;
#X floatatom 350 113 5 0 0 0 - - -, f 5;
#X floatatom 438 112 5 0 0 0 - - -, f 5;
#X floatatom 528 116 5 0 0 0 - - -, f 5;
#X floatatom 614 117 5 0 0 0 - - -, f 5;
#X floatatom 704 119 5 0 0 0 - - -, f 5;
#X floatatom 784 118 5 0 0 0 - - -, f 5;
#X obj 84 67 receive b1;
#X obj 174 66 receive b2;
#X obj 259 70 receive b3;
#X obj 350 71 receive b4;
#X obj 438 70 receive b5;
#X obj 528 71 receive b6;
#X obj 614 75 receive b7;
#X obj 704 75 receive b8;
#X obj 784 77 receive b9;
#X connect 9 0 0 0;
#X connect 10 0 2 0;
#X connect 11 0 1 0;
#X connect 12 0 3 0;
#X connect 13 0 4 0;
#X connect 14 0 5 0;
#X connect 15 0 6 0;
#X connect 16 0 7 0;
#X connect 17 0 8 0;
#X restore 404 152 pd Frequências Axial Largura;
#N canvas 0 50 1362 691 Frequências 0;
#X floatatom 84 109 5 0 0 0 - - -, f 5;
#X floatatom 260 110 5 0 0 0 - - -, f 5;
#X floatatom 174 110 5 0 0 0 - - -, f 5;
#X floatatom 350 113 5 0 0 0 - - -, f 5;
#X floatatom 438 112 5 0 0 0 - - -, f 5;
#X floatatom 528 116 5 0 0 0 - - -, f 5;
#X floatatom 614 117 5 0 0 0 - - -, f 5;
#X floatatom 704 119 5 0 0 0 - - -, f 5;
#X floatatom 784 118 5 0 0 0 - - -, f 5;
#X obj 84 65 receive c1;
#X obj 174 66 receive c2;
#X obj 259 70 receive c3;
#X obj 350 71 receive c4;
#X obj 438 70 receive c5;
#X obj 528 71 receive c6;
#X obj 614 75 receive c7;
#X obj 704 76 receive c8;
#X obj 784 77 receive c9;
#X connect 9 0 0 0;
#X connect 10 0 2 0;
#X connect 11 0 1 0;
#X connect 12 0 3 0;
#X connect 13 0 4 0;
#X connect 14 0 5 0;
#X connect 15 0 6 0;
#X connect 16 0 7 0;
#X connect 17 0 8 0;
#X restore 404 170 pd Frequências Axial Altura;
#N canvas 0 50 1362 691 Frequências 0;
#X floatatom 84 109 5 0 0 0 - - -, f 5;
#X floatatom 260 110 5 0 0 0 - - -, f 5;
#X floatatom 174 110 5 0 0 0 - - -, f 5;
#X floatatom 350 113 5 0 0 0 - - -, f 5;
#X floatatom 438 112 5 0 0 0 - - -, f 5;
#X floatatom 528 116 5 0 0 0 - - -, f 5;
#X floatatom 614 117 5 0 0 0 - - -, f 5;
#X floatatom 704 119 5 0 0 0 - - -, f 5;
#X floatatom 784 118 5 0 0 0 - - -, f 5;
#X obj 84 65 receive d1;
#X obj 174 66 receive d2;
#X obj 259 70 receive d3;
#X obj 350 71 receive d4;
#X obj 438 70 receive d5;
#X obj 528 71 receive d6;
#X obj 614 75 receive d7;
#X obj 704 76 receive d8;
#X obj 784 77 receive d9;
#X connect 9 0 0 0;
#X connect 10 0 2 0;
#X connect 11 0 1 0;
#X connect 12 0 3 0;
#X connect 13 0 4 0;
#X connect 14 0 5 0;
#X connect 15 0 6 0;
#X connect 16 0 7 0;
#X connect 17 0 8 0;
#X restore 404 188 pd Frequências Tangencial CL;
#N canvas 0 50 1362 691 Frequências 0;
#X floatatom 84 109 5 0 0 0 - - -, f 5;
#X floatatom 260 110 5 0 0 0 - - -, f 5;
#X floatatom 174 110 5 0 0 0 - - -, f 5;
#X floatatom 350 113 5 0 0 0 - - -, f 5;
#X floatatom 438 112 5 0 0 0 - - -, f 5;
#X floatatom 528 116 5 0 0 0 - - -, f 5;
#X floatatom 614 117 5 0 0 0 - - -, f 5;
#X floatatom 704 119 5 0 0 0 - - -, f 5;
#X floatatom 784 118 5 0 0 0 - - -, f 5;
#X obj 84 65 receive e1;
#X obj 174 66 receive e2;
#X obj 259 70 receive e3;
#X obj 350 71 receive e4;
#X obj 438 70 receive e5;
#X obj 528 71 receive e6;
#X obj 614 75 receive e7;
#X obj 704 76 receive e8;
#X obj 784 77 receive e9;
#X connect 9 0 0 0;
#X connect 10 0 2 0;
#X connect 11 0 1 0;
#X connect 12 0 3 0;
#X connect 13 0 4 0;
#X connect 14 0 5 0;
#X connect 15 0 6 0;
#X connect 16 0 7 0;
#X connect 17 0 8 0;
#X restore 404 205 pd Frequências Tangencial CA;
#N canvas 0 50 1362 691 Frequências 0;
#X floatatom 84 109 5 0 0 0 - - -, f 5;
#X floatatom 260 110 5 0 0 0 - - -, f 5;
#X floatatom 174 110 5 0 0 0 - - -, f 5;
#X floatatom 350 113 5 0 0 0 - - -, f 5;
#X floatatom 438 112 5 0 0 0 - - -, f 5;
#X floatatom 528 116 5 0 0 0 - - -, f 5;
#X floatatom 614 117 5 0 0 0 - - -, f 5;
#X floatatom 704 119 5 0 0 0 - - -, f 5;
#X floatatom 784 118 5 0 0 0 - - -, f 5;
#X obj 84 65 receive f1;
#X obj 174 66 receive f2;
#X obj 258 70 receive f3;
#X obj 350 71 receive f4;
#X obj 438 70 receive f5;
#X obj 528 71 receive f6;
#X obj 614 75 receive f7;
#X obj 704 76 receive f8;
#X obj 784 77 receive f9;
#X connect 9 0 0 0;
#X connect 10 0 2 0;
#X connect 11 0 1 0;
#X connect 12 0 3 0;
#X connect 13 0 4 0;
#X connect 14 0 5 0;
#X connect 15 0 6 0;
#X connect 16 0 7 0;
#X connect 17 0 8 0;
#X restore 404 222 pd Frequências Tangencial LA;
#N canvas 0 50 1362 691 Frequências 0;
#X floatatom 84 109 5 0 0 0 - - -, f 5;
#X floatatom 260 110 5 0 0 0 - - -, f 5;
#X floatatom 174 110 5 0 0 0 - - -, f 5;
#X floatatom 350 113 5 0 0 0 - - -, f 5;
#X floatatom 438 112 5 0 0 0 - - -, f 5;
#X floatatom 528 116 5 0 0 0 - - -, f 5;
#X floatatom 614 117 5 0 0 0 - - -, f 5;
#X floatatom 704 119 5 0 0 0 - - -, f 5;
#X floatatom 784 118 5 0 0 0 - - -, f 5;
#X obj 84 65 receive g1;
#X obj 174 66 receive g2;
#X obj 259 70 receive g3;
#X obj 350 71 receive g4;
#X obj 438 70 receive g5;
#X obj 528 71 receive g6;
#X obj 614 75 receive g7;
#X obj 704 76 receive g8;
#X obj 784 77 receive g9;
#X connect 9 0 0 0;
#X connect 10 0 2 0;
#X connect 11 0 1 0;
#X connect 12 0 3 0;
#X connect 13 0 4 0;
#X connect 14 0 5 0;
#X connect 15 0 6 0;
#X connect 16 0 7 0;
#X connect 17 0 8 0;
#X restore 404 240 pd Frequências Obliquas;
#X text 138 54 m;
#X text 140 72 m;
#X text 139 33 m;
#X text 288 53 C°;
#X text 40 380 www.nucleomusicanova.com | www.unespar.edu.br;
#X text 40 347 © 2016 Grupo de Pesquisa Núcleo Música Nova (CNPq/UNESPAR)
;
#X text 40 330 BiA – Acoustics Library;
#X text 40 364 patch by Pedro Samsel Geraldo;
#X connect 0 0 36 0;
#X connect 1 0 36 1;
#X connect 2 0 36 2;
#X connect 9 0 8 0;
#X connect 10 0 8 1;
#X connect 11 0 8 2;
#X connect 12 0 8 3;
#X connect 13 0 8 4;
#X connect 14 0 8 5;
#X connect 15 0 16 0;
#X connect 17 0 7 0;
#X connect 18 0 7 3;
#X connect 19 0 7 1;
#X connect 20 0 7 4;
#X connect 21 0 7 5;
#X connect 22 0 7 6;
#X connect 23 0 7 7;
#X connect 24 0 7 8;
#X connect 25 0 7 2;
#X connect 26 0 36 3;
#X connect 34 0 8 6;
#X connect 39 0 0 0;
#X connect 39 0 1 0;
#X connect 39 0 2 0;
#X connect 39 0 26 0;
