#N canvas 890 244 511 543 10;
#X obj 27 439 cnv 15 456 85 empty empty empty 20 12 0 14 -228856 -66577
0;
#X obj 156 154 osc~;
#X obj 187 206 *~;
#X floatatom 156 126 5 0 0 1 Hz - -, f 5;
#X floatatom 232 166 5 0 0 0 - - -, f 5;
#X obj 187 265 +~;
#X obj 187 290 osc~;
#X obj 187 353 *~;
#X floatatom 202 325 4 0 1 1 amplitude_do_sinal - -, f 4;
#X obj 187 389 dac~;
#X text 47 497 www.nucleomusicanova.com | www.unespar.edu.br;
#X text 47 481 patch by Felipe de Almeida Ribeiro;
#X text 47 447 BiA – Acoustics Library;
#X text 46 464 © 2017 Grupo de Pesquisa Núcleo Música Nova (CNPq/UNESPAR)
;
#X text 153 106 Frequência Moduladora;
#X obj 27 27 cnv 15 456 35 empty \$0-pddp.cnv.header Síntese\ FM 3
12 0 18 -204280 -1 0;
#X text 1002 120;
#X text 231 148 Amplitude da moduladora;
#X floatatom 226 238 5 0 0 1 Hz - -, f 5;
#X text 223 218 Frequência da Carregadora;
#X connect 1 0 2 0;
#X connect 2 0 5 0;
#X connect 3 0 1 0;
#X connect 4 0 2 1;
#X connect 5 0 6 0;
#X connect 6 0 7 0;
#X connect 7 0 9 0;
#X connect 7 0 9 1;
#X connect 8 0 7 1;
#X connect 18 0 5 1;
