#N canvas 269 208 506 605 10;
#X obj 370 352 outcontrol~;
#N canvas 10 23 1089 657 Mask 0;
#X obj 845 7 r MFslidedb;
#X obj 272 110 s MFslidedb;
#X obj 288 136 s MFslidefreqin;
#X obj 36 212 r MFRadiofreq;
#X obj 154 101 s MFRadiofreqin;
#X obj 172 130 s MIRadiodbin;
#X obj 425 110 osc~;
#X obj 461 110 == 0;
#X obj 425 183 *~;
#X obj 727 98 phasor~;
#X obj 727 121 expr~ ($v1-0.5)*2;
#X obj 778 98 == 2;
#X obj 727 192 *~;
#X obj 563 106 phasor~;
#X obj 584 129 *~ -1;
#X obj 584 154 +~ 1;
#X obj 563 178 min~;
#X obj 563 202 expr~ (($v1*2)-0.5)*2;
#X obj 563 264 *~;
#X obj 884 112 expr~ (($v1>0.5)-0.5)*2;
#X obj 884 87 phasor~;
#X obj 938 86 == 3;
#X obj 884 178 *~;
#X obj 633 106 == 1;
#X floatatom 713 46 5 0 0 0 - - -, f 5;
#X obj 425 216 throw~ L;
#X obj 479 216 throw~ R;
#X obj 563 298 throw~ L;
#X obj 618 298 throw~ R;
#X obj 727 224 throw~ L;
#X obj 782 224 throw~ R;
#X obj 884 213 throw~ L;
#X obj 939 213 throw~ R;
#X obj 425 440 osc~;
#X obj 461 440 == 0;
#X obj 425 514 *~;
#X obj 727 428 phasor~;
#X obj 727 451 expr~ ($v1-0.5)*2;
#X obj 778 428 == 2;
#X obj 727 522 *~;
#X obj 563 436 phasor~;
#X obj 584 459 *~ -1;
#X obj 584 484 +~ 1;
#X obj 563 508 min~;
#X obj 563 532 expr~ (($v1*2)-0.5)*2;
#X obj 563 594 *~;
#X obj 884 442 expr~ (($v1>0.5)-0.5)*2;
#X obj 884 417 phasor~;
#X obj 938 416 == 3;
#X obj 884 518 *~;
#X obj 633 436 == 1;
#X floatatom 703 376 5 0 0 0 - - -, f 5;
#X obj 425 546 throw~ L;
#X obj 479 546 throw~ R;
#X obj 563 628 throw~ L;
#X obj 618 628 throw~ R;
#X obj 727 554 throw~ L;
#X obj 782 554 throw~ R;
#X obj 884 553 throw~ L;
#X obj 939 553 throw~ R;
#X obj 36 237 sel 0 1 2 3 4;
#X msg 36 277 80;
#X msg 51 303 500;
#X msg 66 326 400;
#X msg 81 352 1200;
#X msg 96 377 2400;
#X obj 36 402 s MFRadioFreqout;
#X obj 703 351 r MFRadioFreqout;
#X obj 205 15 loadbang;
#X msg 205 41 0;
#X obj 425 484 *~;
#X floatatom 814 371 5 0 0 0 - - -, f 5;
#X obj 563 564 *~;
#X obj 727 484 *~;
#X obj 884 480 *~;
#X obj 813 326 r MIRadiodbout;
#X obj 156 237 sel 0 1 2 3 4;
#X obj 461 389 r MFRadioSynth;
#X obj 713 22 r MFslidefreq;
#X obj 461 59 r MFRadioSynth;
#X obj 425 150 *~;
#X obj 727 159 *~;
#X obj 563 231 *~;
#X obj 884 145 *~;
#X floatatom 845 52 5 0 0 0 - - -, f 5;
#X msg 216 377 90;
#X msg 201 352 80;
#X msg 186 326 70;
#X msg 171 303 60;
#X msg 156 277 50;
#X obj 813 348 dbtorms;
#X obj 845 29 dbtorms;
#X obj 156 213 r MIRadiodb;
#X obj 156 402 s MIRadiodbout;
#X connect 0 0 91 0;
#X connect 3 0 60 0;
#X connect 6 0 80 0;
#X connect 7 0 80 1;
#X connect 8 0 25 0;
#X connect 8 0 26 0;
#X connect 9 0 10 0;
#X connect 10 0 81 0;
#X connect 11 0 81 1;
#X connect 12 0 29 0;
#X connect 12 0 30 0;
#X connect 13 0 14 0;
#X connect 13 0 16 0;
#X connect 14 0 15 0;
#X connect 15 0 16 1;
#X connect 16 0 17 0;
#X connect 17 0 82 0;
#X connect 18 0 27 0;
#X connect 18 0 28 0;
#X connect 19 0 83 0;
#X connect 20 0 19 0;
#X connect 21 0 83 1;
#X connect 22 0 31 0;
#X connect 22 0 32 0;
#X connect 23 0 82 1;
#X connect 24 0 6 0;
#X connect 24 0 13 0;
#X connect 24 0 9 0;
#X connect 24 0 20 0;
#X connect 33 0 70 0;
#X connect 34 0 70 1;
#X connect 35 0 52 0;
#X connect 35 0 53 0;
#X connect 36 0 37 0;
#X connect 37 0 73 0;
#X connect 38 0 73 1;
#X connect 39 0 56 0;
#X connect 39 0 57 0;
#X connect 40 0 41 0;
#X connect 40 0 43 0;
#X connect 41 0 42 0;
#X connect 42 0 43 1;
#X connect 43 0 44 0;
#X connect 44 0 72 0;
#X connect 45 0 54 0;
#X connect 45 0 55 0;
#X connect 46 0 74 0;
#X connect 47 0 46 0;
#X connect 48 0 74 1;
#X connect 49 0 58 0;
#X connect 49 0 59 0;
#X connect 50 0 72 1;
#X connect 51 0 33 0;
#X connect 51 0 40 0;
#X connect 51 0 36 0;
#X connect 51 0 47 0;
#X connect 60 0 61 0;
#X connect 60 1 62 0;
#X connect 60 2 63 0;
#X connect 60 3 64 0;
#X connect 60 4 65 0;
#X connect 61 0 66 0;
#X connect 62 0 66 0;
#X connect 63 0 66 0;
#X connect 64 0 66 0;
#X connect 65 0 66 0;
#X connect 67 0 51 0;
#X connect 68 0 69 0;
#X connect 69 0 1 0;
#X connect 69 0 4 0;
#X connect 69 0 2 0;
#X connect 69 0 5 0;
#X connect 70 0 35 0;
#X connect 71 0 35 1;
#X connect 71 0 45 1;
#X connect 71 0 39 1;
#X connect 71 0 49 1;
#X connect 72 0 45 0;
#X connect 73 0 39 0;
#X connect 74 0 49 0;
#X connect 75 0 90 0;
#X connect 76 0 89 0;
#X connect 76 1 88 0;
#X connect 76 2 87 0;
#X connect 76 3 86 0;
#X connect 76 4 85 0;
#X connect 77 0 34 0;
#X connect 77 0 50 0;
#X connect 77 0 38 0;
#X connect 77 0 48 0;
#X connect 78 0 24 0;
#X connect 79 0 7 0;
#X connect 79 0 23 0;
#X connect 79 0 11 0;
#X connect 79 0 21 0;
#X connect 80 0 8 0;
#X connect 81 0 12 0;
#X connect 82 0 18 0;
#X connect 83 0 22 0;
#X connect 84 0 22 1;
#X connect 84 0 12 1;
#X connect 84 0 18 1;
#X connect 84 0 8 1;
#X connect 85 0 93 0;
#X connect 86 0 93 0;
#X connect 87 0 93 0;
#X connect 88 0 93 0;
#X connect 89 0 93 0;
#X connect 90 0 71 0;
#X connect 91 0 84 0;
#X connect 92 0 76 0;
#X restore 379 302 pd Mask;
#X obj 42 206 vradio 15 1 0 5 MFRadiofreq MFRadioIn empty 0 -8 0 10
-262144 -1 -1 1;
#X obj 157 221 vsl 15 155 20 2500 0 0 empty MFslidefreqin empty 0 -9
0 10 -262144 -1 -1 0 1;
#X text 179 355 20 Hz;
#X text 176 211 <-----;
#X text 176 365 <-----;
#X text 62 204 80 Hz;
#X obj 44 343 vradio 15 1 0 5 MIRadiodb MIRadiodbin empty 0 -8 0 10
-262144 -1 -1 0;
#X text 62 220 500 Hz;
#X text 62 235 800 Hz;
#X text 62 250 1.2 kHz;
#X text 62 265 2.4 kHz;
#X obj 257 221 vsl 15 155 0 100 0 0 empty MFslidedbin empty 0 -9 0
10 -262144 -1 -1 0 1;
#X text 276 211 <-----;
#X text 276 365 <-----;
#X text 279 355 0 dB;
#X text 278 225 100 dB;
#X floatatom 157 388 5 0 0 0 - - MFslidefreq, f 5;
#X floatatom 257 388 5 0 0 0 - - MFslidedb, f 5;
#X obj 364 204 vradio 15 1 0 4 MFRadioSynth empty empty 0 -8 0 10 -262144
-1 -1 0;
#X text 178 225 2.5 kHz;
#X text 65 342 50 dB;
#X text 65 357 60 dB;
#X text 65 372 70 dB;
#X text 65 387 80 dB;
#X text 65 402 90 dB;
#X text 182 7 Auditory Masking;
#X text 46 30 Auditory Masking occurs when a first sound prevents the
perception of a second one \, both with distinct frequencies and intensities.
;
#X text 46 69 Sounds closer in frequency are more susceptible to auditory
masking. Lower frequency sounds also lean to mask high frequency sounds
easily.;
#X text 46 111 The higher the intensity of a sound \, larger is the
band of frequencies that it can mask.;
#X text 39 169 Masked;
#X text 38 183 Frequency;
#X text 43 309 Masked;
#X text 42 323 Intensity;
#X text 154 175 Masking;
#X text 153 188 Frequency;
#X text 251 175 Masking;
#X text 250 188 Intensity;
#X text 362 176 Waveform;
#X text 386 202 Sine;
#X text 386 218 Triangle;
#X text 387 234 Sawtooth;
#X text 387 248 Square;
#X text 42 538 www.nucleomusicanova.com | www.unespar.edu.br;
#X text 42 459 BiA – Acoustics Library;
#X text 42 522 patch by Clayton Rosa Mamedes;
#X text 42 476 © 2016 Grupo de Pesquisa Núcleo Música Nova (CNPq/UNESPAR)
Grupo de Pesquisa em Criação Musical \, Gesto e Processos de Interação
Artística (UFPR);
#X connect 3 0 18 0;
#X connect 13 0 19 0;
