#N canvas 257 23 626 820 10;
#X obj 501 579 outcontrol~;
#X obj 101 204 vsl 15 256 0 255 0 0 HASlideFreq empty empty 0 -9 0
10 -262144 -1 -1 0 1;
#X obj 102 491 vradio 15 1 0 5 HARadio HARadioIn empty 0 -8 0 10 -262144
-1 -1 0;
#X text 127 451 <--------;
#X text 127 197 <--------;
#X text 126 213 2xs;
#X text 123 535 750 Hz;
#X text 123 519 440 Hz;
#X text 123 503 210 Hz;
#X text 128 488 80 Hz;
#X text 130 550 1 kHz;
#N canvas 0 22 450 278 (subpatch) 0;
#X array fc1 256 float 2;
#X coords 0 0 256 256 140 140 1 0 0;
#X restore 233 160 graph;
#X text 380 287 <--------;
#X text 379 151 <--------;
#N canvas 0 22 450 278 (subpatch) 0;
#X array fc2 256 float 2;
#X coords 0 0 256 256 140 140 1 0 0;
#X restore 234 324 graph;
#X text 381 451 <--------;
#X text 380 315 <--------;
#X text 381 611 <--------;
#X text 380 475 <--------;
#N canvas 436 49 676 515 (subpatch) 0;
#X array fc3 256 float 2;
#X coords 0 0 256 256 140 140 1 0 0;
#X restore 234 484 graph;
#X text 127 322 <--------;
#X text 126 338 3/2xs;
#X floatatom 381 215 5 0 0 0 - HAfc1 -, f 5;
#X floatatom 381 384 5 0 0 0 - HAfc2 -, f 5;
#X floatatom 381 539 5 0 0 0 - HAfc3 -, f 5;
#X text 380 437 0 Hz;
#X text 379 273 0 Hz;
#X text 380 597 0 Hz;
#X text 230 7 Aural Harmonics;
#X text 104 75 Two sinusoidal sounds different in frequency and played
simultaneously result in harmonic distortions \, being perceived more
clearly in higher intensities.;
#X text 126 243 Frequency;
#X text 126 228 Selected;
#X text 126 353 Selected;
#X text 126 368 Frequency;
#X text 126 422 Selected;
#X text 126 437 Frequency;
#X text 39 290 Variable;
#X text 33 305 Frequency;
#X text 57 510 Fixed;
#X text 33 525 Frequency;
#X text 379 490 Selected;
#X text 379 505 Frequency;
#X text 379 330 Selected;
#X text 379 345 Frequency;
#X text 378 164 Selected;
#X text 378 179 Frequency;
#X text 420 207 Aural;
#X text 420 222 Frequency fc1;
#X text 420 376 Aural;
#X text 420 391 Frequency fc2;
#X text 420 531 Aural;
#X text 420 546 Frequency fc3;
#N canvas 173 102 878 520 AH 0;
#X obj 223 241 osc~;
#X obj 615 249 osc~;
#X obj 16 47 sel 0 1 2 3 4;
#X msg 16 87 80;
#X msg 31 113 210;
#X msg 46 136 440;
#X msg 61 162 750;
#X msg 76 187 1000;
#X obj 16 212 s HARadioFreq;
#X obj 349 28 r HARadioFreq;
#X obj 225 28 r HASlideFreq;
#X floatatom 258 166 5 0 0 0 - - -, f 5;
#X obj 223 109 expr (($f1/255)+1)*$f2;
#X obj 16 18 r HARadio;
#X floatatom 239 57 5 0 0 0 - - -, f 5;
#X obj 509 168 expr (3*$f2)-(2*$f1);
#X floatatom 509 267 5 0 0 0 - - HAfc3, f 5;
#X floatatom 399 195 5 0 0 0 - - HAfc2, f 5;
#X text 554 267 fc3;
#X text 440 194 fc2;
#X floatatom 309 195 5 0 0 0 - - HAfc1, f 5;
#X text 350 194 fc1;
#X obj 309 168 expr $f1-$f2;
#X obj 399 168 expr (2*$f2)-$f1;
#X obj 509 193 moses 0;
#X msg 509 242 0;
#X obj 509 217 t b;
#N canvas 41 291 611 369 plottables 0;
#X obj 390 203 tabwrite fc3;
#X obj 390 179 pack 0 0;
#X obj 312 33 inlet;
#X obj 272 181 pack 0 0;
#X obj 272 205 tabwrite fc2;
#X obj 166 183 pack 0 0;
#X obj 166 207 tabwrite fc1;
#X obj 166 153 expr 256-$f1;
#X obj 312 61 t f f;
#X obj 475 162 print;
#X obj 389 121 expr $f1*2;
#X obj 390 153 min 256;
#X connect 1 0 0 0;
#X connect 2 0 8 0;
#X connect 3 0 4 0;
#X connect 5 0 6 0;
#X connect 7 0 5 0;
#X connect 8 0 3 0;
#X connect 8 0 7 0;
#X connect 8 0 10 0;
#X connect 8 1 1 1;
#X connect 8 1 3 1;
#X connect 8 1 5 1;
#X connect 10 0 9 0;
#X connect 10 0 11 0;
#X connect 11 0 1 0;
#X restore 133 80 pd plottables;
#X obj 532 310 throw~ L;
#X obj 594 310 throw~ R;
#X obj 635 41 loadbang;
#N canvas 610 326 450 300 setup 0;
#X obj 101 92 s HARadioIn;
#X msg 101 66 0;
#X obj 101 39 inlet;
#X connect 1 0 0 0;
#X connect 2 0 1 0;
#X restore 635 70 pd setup;
#X connect 0 0 28 0;
#X connect 0 0 29 0;
#X connect 1 0 28 0;
#X connect 1 0 29 0;
#X connect 2 0 3 0;
#X connect 2 1 4 0;
#X connect 2 2 5 0;
#X connect 2 3 6 0;
#X connect 2 4 7 0;
#X connect 3 0 8 0;
#X connect 4 0 8 0;
#X connect 5 0 8 0;
#X connect 6 0 8 0;
#X connect 7 0 8 0;
#X connect 9 0 1 0;
#X connect 9 0 12 1;
#X connect 9 0 15 1;
#X connect 9 0 23 1;
#X connect 9 0 22 1;
#X connect 10 0 12 0;
#X connect 10 0 14 0;
#X connect 10 0 27 0;
#X connect 12 0 11 0;
#X connect 12 0 0 0;
#X connect 12 0 22 0;
#X connect 12 0 23 0;
#X connect 12 0 15 0;
#X connect 13 0 2 0;
#X connect 15 0 24 0;
#X connect 22 0 20 0;
#X connect 23 0 17 0;
#X connect 24 0 26 0;
#X connect 24 1 16 0;
#X connect 25 0 16 0;
#X connect 26 0 25 0;
#X connect 30 0 31 0;
#X restore 534 529 pd AH;
#X text 104 33 Aural Harmonics are frequencies perceived due to nonlinearities
of our hearing system \, either when these frequencies are not present
in the sound stimulus.;
#X text 50 756 www.nucleomusicanova.com | www.unespar.edu.br;
#X text 50 677 BiA – Acoustics Library;
#X text 50 740 patch by Clayton Rosa Mamedes;
#X text 50 694 © 2016 Grupo de Pesquisa Núcleo Música Nova (CNPq/UNESPAR)
Grupo de Pesquisa em Criação Musical \, Gesto e Processos de Interação
Artística (UFPR);
