#N canvas 392 39 459 622 10;
#X obj 305 215 vradio 15 1 0 4 BCRadioSynth empty empty 0 -8 0 10 -262144
-1 -1 0;
#X obj 107 176 vsl 15 128 100 1000 0 0 empty empty empty 0 -9 0 10
-262144 -1 -1 0 1;
#X text 142 320 Hz;
#X text 24 247 100Hz a 1kHz;
#X floatatom 107 319 5 0 0 0 - - BCfrequency1, f 5;
#X obj 172 176 vsl 15 128 100 1000 0 0 empty empty empty 0 -9 0 10
-262144 -1 -1 0 1;
#X text 207 320 Hz;
#X text 189 247 100Hz a 1kHz;
#X floatatom 172 319 5 0 0 0 - - BCfrequency2, f 5;
#X obj 321 357 outcontrol~;
#X floatatom 136 393 10 0 0 0 - BCFrequencyDifferencePC -, f 10;
#X floatatom 136 368 10 0 0 0 - BCFrequencyDifference -, f 10;
#X text 200 367 Hz;
#X text 201 393 %;
#X text 71 370 Frequency;
#X text 65 387 Difference;
#X text 170 6 Critical Bands;
#X text 49 27 Critical Bands comprehends the perception of dissonance
between two close frequencies.;
#X text 48 125 Critical Bands are dependent of frequency and spectral
complexity \, being larger to higher frequencies.;
#X text 48 57 When the difference in frequency between two sounds is
greater than their critical bands \, we perceive the sound as consonant.
But if the separation between frequencies is smaller the critical bands
\, we perceive the interval as dissonant.;
#X text 29 225 Frequency 1;
#X text 190 225 Frequency 2;
#X text 303 187 Waveform;
#X text 327 229 Triangle;
#X text 327 213 Sine;
#X text 328 261 Square;
#X text 328 245 Sawtooth;
#N canvas 0 23 874 616 CB 0;
#X obj 35 110 osc~;
#X obj 71 110 == 0;
#X obj 35 143 *~;
#X obj 337 98 phasor~;
#X obj 337 121 expr~ ($v1-0.5)*2;
#X obj 388 98 == 2;
#X obj 337 152 *~;
#X obj 173 106 phasor~;
#X obj 194 129 *~ -1;
#X obj 194 154 +~ 1;
#X obj 173 178 min~;
#X obj 173 202 expr~ (($v1*2)-0.5)*2;
#X obj 173 224 *~;
#X obj 494 112 expr~ (($v1>0.5)-0.5)*2;
#X obj 494 87 phasor~;
#X obj 548 86 == 3;
#X obj 494 138 *~;
#X obj 243 106 == 1;
#X floatatom 323 46 5 0 0 0 - - -, f 5;
#X obj 323 22 r BCfrequency1;
#X obj 35 176 throw~ L;
#X obj 89 176 throw~ R;
#X obj 173 258 throw~ L;
#X obj 228 258 throw~ R;
#X obj 337 184 throw~ L;
#X obj 392 184 throw~ R;
#X obj 494 173 throw~ L;
#X obj 549 173 throw~ R;
#X obj 35 400 osc~;
#X obj 71 400 == 0;
#X obj 35 433 *~;
#X obj 337 388 phasor~;
#X obj 337 411 expr~ ($v1-0.5)*2;
#X obj 388 388 == 2;
#X obj 337 442 *~;
#X obj 173 396 phasor~;
#X obj 194 419 *~ -1;
#X obj 194 444 +~ 1;
#X obj 173 468 min~;
#X obj 173 492 expr~ (($v1*2)-0.5)*2;
#X obj 173 514 *~;
#X obj 494 402 expr~ (($v1>0.5)-0.5)*2;
#X obj 494 377 phasor~;
#X obj 548 376 == 3;
#X obj 494 428 *~;
#X obj 243 396 == 1;
#X floatatom 323 336 5 0 0 0 - - -, f 5;
#X obj 35 466 throw~ L;
#X obj 89 466 throw~ R;
#X obj 173 548 throw~ L;
#X obj 228 548 throw~ R;
#X obj 337 474 throw~ L;
#X obj 392 474 throw~ R;
#X obj 494 463 throw~ L;
#X obj 549 463 throw~ R;
#X obj 323 312 r BCfrequency2;
#X obj 71 59 r BCRadioSynth;
#X obj 71 349 r BCRadioSynth1;
#X obj 655 87 -;
#X obj 727 51 t b f;
#X obj 655 113 s BCFrequencyDifference;
#X obj 709 133 s BCFrequencyDifferencePC;
#X obj 633 22 r BCfrequency2;
#X obj 727 23 r BCfrequency1;
#X obj 661 179 / 100;
#X obj 659 152 abs;
#X floatatom 660 204 5 0 0 0 - - -, f 5;
#X obj 709 87 expr (($f1-$f2)/$f2)*100;
#X connect 0 0 2 0;
#X connect 1 0 2 1;
#X connect 2 0 20 0;
#X connect 2 0 21 0;
#X connect 3 0 4 0;
#X connect 4 0 6 0;
#X connect 5 0 6 1;
#X connect 6 0 24 0;
#X connect 6 0 25 0;
#X connect 7 0 8 0;
#X connect 7 0 10 0;
#X connect 8 0 9 0;
#X connect 9 0 10 1;
#X connect 10 0 11 0;
#X connect 11 0 12 0;
#X connect 12 0 22 0;
#X connect 12 0 23 0;
#X connect 13 0 16 0;
#X connect 14 0 13 0;
#X connect 15 0 16 1;
#X connect 16 0 26 0;
#X connect 16 0 27 0;
#X connect 17 0 12 1;
#X connect 18 0 0 0;
#X connect 18 0 7 0;
#X connect 18 0 3 0;
#X connect 18 0 14 0;
#X connect 19 0 18 0;
#X connect 28 0 30 0;
#X connect 29 0 30 1;
#X connect 30 0 47 0;
#X connect 30 0 48 0;
#X connect 31 0 32 0;
#X connect 32 0 34 0;
#X connect 33 0 34 1;
#X connect 34 0 51 0;
#X connect 34 0 52 0;
#X connect 35 0 36 0;
#X connect 35 0 38 0;
#X connect 36 0 37 0;
#X connect 37 0 38 1;
#X connect 38 0 39 0;
#X connect 39 0 40 0;
#X connect 40 0 49 0;
#X connect 40 0 50 0;
#X connect 41 0 44 0;
#X connect 42 0 41 0;
#X connect 43 0 44 1;
#X connect 44 0 53 0;
#X connect 44 0 54 0;
#X connect 45 0 40 1;
#X connect 46 0 28 0;
#X connect 46 0 35 0;
#X connect 46 0 31 0;
#X connect 46 0 42 0;
#X connect 55 0 46 0;
#X connect 56 0 1 0;
#X connect 56 0 17 0;
#X connect 56 0 5 0;
#X connect 56 0 15 0;
#X connect 57 0 29 0;
#X connect 57 0 45 0;
#X connect 57 0 33 0;
#X connect 57 0 43 0;
#X connect 58 0 60 0;
#X connect 58 0 65 0;
#X connect 59 0 58 0;
#X connect 59 0 67 0;
#X connect 59 1 58 1;
#X connect 59 1 67 1;
#X connect 62 0 58 0;
#X connect 62 0 67 0;
#X connect 63 0 59 0;
#X connect 64 0 66 0;
#X connect 65 0 64 0;
#X connect 67 0 61 0;
#X restore 336 315 pd CB;
#X text 42 538 www.nucleomusicanova.com | www.unespar.edu.br;
#X text 42 459 BiA – Acoustics Library;
#X text 42 522 patch by Clayton Rosa Mamedes;
#X text 42 476 © 2016 Grupo de Pesquisa Núcleo Música Nova (CNPq/UNESPAR)
Grupo de Pesquisa em Criação Musical \, Gesto e Processos de Interação
Artística (UFPR);
#X connect 1 0 4 0;
#X connect 5 0 8 0;
