#N canvas 293 143 538 554 10;
#X obj 349 208 cnv 15 160 80 empty empty empty 20 12 0 14 -204786 -66577
0;
#X obj 165 222 cnv 15 180 110 empty empty empty 20 12 0 14 -204800
-66577 0;
#X obj 107 206 vsl 15 128 100 1000 0 0 empty empty empty 0 -9 0 10
-262144 -1 -1 0 1;
#X obj 130 173 hsl 251 15 0 250 0 0 JNDIntensidadeLR JNDIntensidadeLRlb
empty -2 -8 0 10 -262144 -1 -1 12500 1;
#X text 142 350 Hz;
#X text 24 277 100Hz a 1kHz;
#X floatatom 107 349 5 0 0 0 - - JNDfrequency, f 5;
#X obj 385 225 vradio 15 1 0 4 JNDRadioSynthR empty empty 0 -8 0 10
-262144 -1 -1 0;
#X text 112 172 L;
#X text 393 172 R;
#X floatatom 202 307 5 0 0 0 - IntensidadeTotaldB -, f 5;
#X floatatom 201 277 5 0 0 0 - JNDIntensidadedBL -, f 5;
#X floatatom 279 278 5 0 0 0 - JNDIntensidadedBR -, f 5;
#X text 185 277 L;
#X text 267 278 R;
#X obj 359 225 vradio 15 1 0 4 JNDRadioSynthL empty empty 0 -8 0 10
-262144 -1 -1 0;
#X text 361 208 L;
#X text 388 207 R;
#X text 314 279 dB;
#X text 235 279 dB;
#X text 235 309 dB;
#N canvas 0 23 807 696 JND 0;
#X floatatom 55 59 5 0 0 0 - - -, f 5;
#X obj 55 26 r JNDfrequency;
#X obj 55 220 osc~;
#X obj 444 482 *~;
#X obj 496 480 *~;
#X obj 459 359 r JNDIntensidadeLR;
#X floatatom 459 420 5 0 0 0 - - -, f 5;
#X floatatom 511 419 5 0 0 0 - - -, f 5;
#X obj 459 391 expr 250-$f1;
#X obj 203 34 loadbang;
#X msg 203 70 125;
#X obj 203 98 s JNDIntensidadeLRlb;
#X obj 91 220 == 0;
#X obj 55 253 *~;
#X obj 468 26 r JNDRadioSynthL;
#X obj 585 26 r JNDRadioSynthR;
#X obj 128 219 == 0;
#X obj 105 253 *~;
#X obj 337 208 phasor~;
#X obj 337 231 expr~ ($v1-0.5)*2;
#X obj 388 208 == 2;
#X obj 425 207 == 2;
#X obj 337 262 *~;
#X obj 387 262 *~;
#X obj 173 216 phasor~;
#X obj 194 239 *~ -1;
#X obj 194 264 +~ 1;
#X obj 173 288 min~;
#X obj 173 312 expr~ (($v1*2)-0.5)*2;
#X obj 173 334 *~;
#X obj 223 334 *~;
#X obj 494 232 expr~ (($v1>0.5)-0.5)*2;
#X obj 494 207 phasor~;
#X obj 585 206 == 3;
#X obj 548 206 == 3;
#X obj 494 258 *~;
#X obj 544 258 *~;
#X obj 554 419 catch~ JNDmixR;
#X obj 357 421 catch~ JNDmixL;
#X obj 55 286 throw~ JNDmixL;
#X obj 64 311 throw~ JNDmixR;
#X obj 173 368 throw~ JNDmixL;
#X obj 182 393 throw~ JNDmixR;
#X obj 337 295 throw~ JNDmixL;
#X obj 346 320 throw~ JNDmixR;
#X obj 494 292 throw~ JNDmixL;
#X obj 503 317 throw~ JNDmixR;
#X obj 511 448 / 250;
#X obj 459 448 / 250;
#X obj 586 476 * 1;
#X obj 259 477 * 1;
#X obj 586 500 powtodb;
#X obj 259 501 powtodb;
#X obj 259 535 s JNDIntensidadedBL;
#X obj 586 532 s JNDIntensidadedBR;
#X obj 435 574 s JNDdB;
#X obj 435 548 expr abs($f1-$f2);
#X obj 601 450 r IntensidadeTotalLinear;
#X obj 243 216 == 1;
#X obj 280 215 == 1;
#X obj 418 512 throw~ L;
#X obj 496 512 throw~ R;
#X obj 265 13 r JNDIntSetCenter;
#X obj 264 34 t b b;
#X connect 0 0 2 0;
#X connect 0 0 18 0;
#X connect 0 0 24 0;
#X connect 0 0 32 0;
#X connect 1 0 0 0;
#X connect 2 0 13 0;
#X connect 2 0 17 0;
#X connect 3 0 60 0;
#X connect 4 0 61 0;
#X connect 5 0 8 0;
#X connect 5 0 7 0;
#X connect 6 0 48 0;
#X connect 7 0 47 0;
#X connect 8 0 6 0;
#X connect 9 0 10 0;
#X connect 10 0 11 0;
#X connect 12 0 13 1;
#X connect 13 0 39 0;
#X connect 14 0 12 0;
#X connect 14 0 20 0;
#X connect 14 0 34 0;
#X connect 14 0 58 0;
#X connect 15 0 16 0;
#X connect 15 0 21 0;
#X connect 15 0 33 0;
#X connect 15 0 59 0;
#X connect 16 0 17 1;
#X connect 17 0 40 0;
#X connect 18 0 19 0;
#X connect 19 0 22 0;
#X connect 19 0 23 0;
#X connect 20 0 22 1;
#X connect 21 0 23 1;
#X connect 22 0 43 0;
#X connect 23 0 44 0;
#X connect 24 0 25 0;
#X connect 24 0 27 0;
#X connect 25 0 26 0;
#X connect 26 0 27 1;
#X connect 27 0 28 0;
#X connect 28 0 29 0;
#X connect 28 0 30 0;
#X connect 29 0 41 0;
#X connect 30 0 42 0;
#X connect 31 0 35 0;
#X connect 31 0 36 0;
#X connect 32 0 31 0;
#X connect 33 0 36 1;
#X connect 34 0 35 1;
#X connect 35 0 45 0;
#X connect 36 0 46 0;
#X connect 37 0 4 0;
#X connect 38 0 3 0;
#X connect 47 0 4 1;
#X connect 47 0 49 0;
#X connect 48 0 3 1;
#X connect 48 0 50 0;
#X connect 49 0 51 0;
#X connect 50 0 52 0;
#X connect 51 0 54 0;
#X connect 51 0 56 1;
#X connect 52 0 53 0;
#X connect 52 0 56 0;
#X connect 56 0 55 0;
#X connect 57 0 49 1;
#X connect 57 0 50 1;
#X connect 58 0 29 1;
#X connect 59 0 30 1;
#X connect 62 0 63 0;
#X connect 63 0 10 0;
#X connect 63 1 10 0;
#X restore 287 347 pd JND;
#X floatatom 238 248 5 0 0 0 - JNDdB -, f 5;
#X text 272 249 dB JND;
#X obj 377 328 outcontrol~;
#X obj 247 192 bng 15 250 50 0 JNDIntSetCenter empty empty 17 7 0 10
-262144 -1 -1;
#X text 264 192 Set Center;
#X text 133 12 Just Noticeable Difference;
#X text 49 41 Just Noticeable Difference is a measure or our power
to identify different intensities.;
#X text 50 112 1 decibel of JND is closer to the mean perceptual value
associated to JND.;
#X text 224 152 Intensity;
#X text 407 223 Sine;
#X text 407 239 Triangle;
#X text 408 255 Sawtooth;
#X text 408 269 Square;
#X text 259 299 Total;
#X text 260 312 Intensity;
#X text 188 225 Intensity dB (0 a 100);
#X text 34 255 Frequency;
#X text 50 69 E. H. Weber \, in 1829 \, observed that two sound stimuli
need to differ in a certain amount of intensity so we can perceive
their difference in intensity.;
#X text 44 496 www.nucleomusicanova.com | www.unespar.edu.br;
#X text 44 417 BiA – Acoustics Library;
#X text 44 480 patch by Clayton Rosa Mamedes;
#X text 44 434 © 2016 Grupo de Pesquisa Núcleo Música Nova (CNPq/UNESPAR)
Grupo de Pesquisa em Criação Musical \, Gesto e Processos de Interação
Artística (UFPR);
#X connect 2 0 6 0;
