#N canvas 371 140 514 589 10;
#X obj 415 382 outcontrol~;
#X obj 42 206 vradio 15 1 0 10 PIRadio PIRadioIn empty 0 -8 0 10 -262144
-1 -1 8;
#X obj 157 205 vsl 15 155 20 12500 0 0 PIslidefreq empty empty 0 -9
0 10 -262144 -1 -1 0 1;
#X text 179 339 20 Hz;
#X text 176 195 <-----;
#X text 178 209 12.5 kHz;
#X text 176 349 <-----;
#N canvas 0 22 450 278 (subpatch) 0;
#X array fletcherandmunsoncurve 12501 float 2;
#X coords 0 225 12501 -20 200 140 1 0 0;
#X restore 262 203 graph;
#X text 67 204 10 dB SPL;
#X text 67 220 20 dB SPL;
#X text 67 235 30 dB SPL;
#X text 67 250 40 dB SPL;
#X text 67 265 50 dB SPL;
#X text 67 280 60 dB SPL;
#X text 67 295 70 dB SPL;
#X text 67 310 80 dB SPL;
#X text 67 325 90 dB SPL;
#X text 62 340 100 dB SPL;
#X obj 42 382 vradio 15 1 0 2 PIradiogate empty empty 0 -8 0 10 -262144
-1 -1 1;
#X text 186 9 Loudness;
#X text 49 38 Loudness comprehends the perception of intensity associated
to a sound.;
#X text 49 66 Loudnes changes according to frequency \, as it is described
by Fletcher & Munson's curves. These curves were elaborated from perceptual
experiments based in sinusoidal sound stimuli.;
#X text 50 125 The present implementation follows the norms ISO 226:2003
\, an atualized version of Fletcher & Munson's curves.;
#X text 42 179 Intensity;
#X text 154 180 Frequency;
#X text 61 396 Intensity according to Fletcher & Munson's curves;
#X text 61 380 Fixed intensity;
#N canvas 529 109 675 406 LDN 0;
#N canvas 474 23 1173 609 iso226 0;
#X obj 51 -15 inlet;
#X obj 795 431 list split 1;
#X obj 795 387 until;
#X obj 795 408 list append;
#X obj 831 364 t b l;
#X obj 876 431 bang;
#N canvas 0 22 450 278 (subpatch) 0;
#X array exponentofloudnessperception 29 float 2;
#X coords 0 1 29 0 200 140 1 0 0;
#X restore 163 373 graph;
#N canvas 0 22 577 365 (subpatch) 0;
#X array magnitudeoflineartransferfunction 29 float 2;
#X coords 0 3 29 -31.6 200 140 1 0 0;
#X restore 540 365 graph;
#N canvas 0 22 450 278 (subpatch) 0;
#X array thresholdofhearing 29 float 0;
#X coords 0 79 28 -6 200 140 1 0 0;
#X restore 912 371 graph;
#X obj 796 521 tabwrite thresholdofhearing;
#X obj 856 477 + 1;
#X msg 876 455 0;
#X obj 796 500 pack 0 0;
#X msg 775 302 78.5 68.7 59.5 51.1 44 37.5 31.5 26.5 22.1 17.9 14.4
11.4 8.6 6.2 4.4 3 2.2 2.4 3.5 1.7 -1.3 -4.2 -6 -5.4 -1.5 6 12.6 13.9
12.3;
#X obj 414 431 list split 1;
#X obj 414 387 until;
#X obj 414 408 list append;
#X obj 450 364 t b l;
#X obj 495 431 bang;
#X obj 475 477 + 1;
#X msg 495 455 0;
#X obj 415 500 pack 0 0;
#X obj 415 521 tabwrite magnitudeoflineartransferfunction;
#X obj 442 477 f;
#X obj 823 477 f;
#X obj 415 454 t f b;
#X obj 796 454 t f b;
#X msg 10 306 0.532 0.506 0.48 0.455 0.432 0.409 0.387 0.367 0.349
0.33 0.315 0.301 0.288 0.276 0.267 0.259 0.253 0.25 0.246 0.244 0.243
0.243 0.243 0.242 0.242 0.245 0.254 0.271 0.301;
#X obj 38 435 list split 1;
#X obj 38 391 until;
#X obj 38 412 list append;
#X obj 74 368 t b l;
#X obj 118 435 bang;
#X obj 99 481 + 1;
#X msg 118 458 0;
#X obj 39 504 pack 0 0;
#X obj 66 481 f;
#X obj 39 458 t f b;
#X obj 39 525 tabwrite exponentofloudnessperception;
#X obj 108 111 tabread thresholdofhearing;
#X obj 127 132 tabread magnitudeoflineartransferfunction;
#X obj 147 153 tabread exponentofloudnessperception;
#X obj 108 35 until;
#X obj 141 59 + 1;
#X obj 108 59 f;
#X obj 128 -16 sel 28;
#X obj 128 8 t b b;
#X msg 149 34 0;
#X obj 108 86 t f f f;
#X obj 108 180 pack 0 0 0;
#X obj 285 42 sel 28;
#X msg 273 16 0;
#X obj 258 43 + 1;
#X obj 249 16 f;
#X obj 437 126 tabwrite fletcherandmunsoncurve;
#X obj 22 235 expr ((10. / $f4) * log10(0.00447 * (pow(10. \, 0.025*$f1)
- 1.15) + pow(0.4*pow(10. \, ((($f2+$f3)/10.)-9. ) ) \, $f4))) - $f3
+ 94;
#X msg 768 43 20 25 31.5 40 50 63 80 100 125 160 200 250 315 400 500
630 800 1000 1250 1600 2000 2500 3150 4000 5000 6300 8000 10000 12500
;
#X obj 784 173 list split 1;
#X obj 784 129 until;
#X obj 784 150 list append;
#X obj 820 106 t b l;
#X obj 865 173 bang;
#X obj 845 219 + 1;
#X msg 865 197 0;
#X obj 785 242 pack 0 0;
#X obj 812 219 f;
#X obj 785 196 t f b;
#X obj 785 263 tabwrite referencefrequencies;
#N canvas 0 22 450 278 (subpatch) 0;
#X array referencefrequencies 29 float 2;
#X coords 0 12500 29 20 200 140 1 0 0;
#X restore 914 106 graph;
#X obj 249 65 tabread referencefrequencies;
#X obj 52 10 t b b f;
#N canvas 573 23 1200 740 mosesloop 0;
#X obj 275 35 moses 20;
#X obj 320 58 moses 25;
#X obj 275 58 * 0;
#X obj 365 107 moses 31.5;
#X obj 422 158 moses 40;
#X obj 467 207 moses 50;
#X obj 512 253 moses 63;
#X obj 557 302 moses 80;
#X obj 602 353 moses 100;
#X obj 653 402 moses 125;
#X obj 680 448 moses 160;
#X obj 731 497 moses 200;
#X obj 782 544 moses 250;
#X obj 833 593 moses 315;
#X obj 884 639 moses 400;
#X obj 155 202 moses 500;
#X obj 206 253 moses 630;
#X obj 257 302 moses 800;
#X obj 308 348 moses 1000;
#X obj 365 397 moses 1250;
#X obj 422 448 moses 1600;
#X obj 479 497 moses 2000;
#X obj 536 543 moses 2500;
#X obj 593 592 moses 3150;
#X obj 650 643 moses 4000;
#X obj 143 412 moses 5000;
#X obj 200 468 moses 6300;
#X obj 257 517 moses 8000;
#X obj 314 568 moses 10000;
#X obj 377 617 moses 12500;
#X obj 440 663 moses 22050;
#X obj 486 -10 inlet;
#X obj 657 19 unpack 0 0 0 0 0 0 0 0 0 0 0 0 0 0 0 0 0 0 0 0 0 0 0
0 0 0 0 0 0;
#X obj 122 53 until;
#X obj 466 15 t b l;
#X obj 122 78 f;
#X msg 172 179 0;
#X obj 150 79 + 1;
#X msg 121 30 22051;
#X obj 185 155 t b;
#X obj 122 130 moses 22050;
#X obj 122 104 t f f f f;
#X obj 77 685 outlet;
#X obj 77 653 pack 0 0;
#X obj 320 81 expr (($f1*0.2)*($f3-$f2))+$f2;
#X obj 365 130 expr (($f1*0.153)*($f3-$f2))+$f2;
#X obj 422 181 expr (($f1*0.117)*($f3-$f2))+$f2;
#X obj 467 230 expr (($f1*0.1)*($f3-$f2))+$f2;
#X obj 512 276 expr (($f1*0.076)*($f3-$f2))+$f2;
#X obj 557 325 expr (($f1*0.058)*($f3-$f2))+$f2;
#X obj 602 376 expr (($f1*0.04)*($f3-$f2))+$f2;
#X obj 653 425 expr (($f1*0.028)*($f3-$f2))+$f2;
#X obj 680 471 expr (($f1*0.025)*($f3-$f2))+$f2;
#X obj 731 520 expr (($f1*0.02)*($f3-$f2))+$f2;
#X obj 782 567 expr (($f1*0.015)*($f3-$f2))+$f2;
#X obj 833 616 expr (($f1*0.011)*($f3-$f2))+$f2;
#X obj 884 662 expr (($f1*0.01)*($f3-$f2))+$f2;
#X obj 155 225 expr (($f1*0.0075)*($f3-$f2))+$f2;
#X obj 206 276 expr (($f1*0.0058)*($f3-$f2))+$f2;
#X obj 257 325 expr (($f1*0.005)*($f3-$f2))+$f2;
#X obj 308 371 expr (($f1*0.004)*($f3-$f2))+$f2;
#X obj 365 420 expr (($f1*0.0028)*($f3-$f2))+$f2;
#X obj 422 471 expr (($f1*0.0025)*($f3-$f2))+$f2;
#X obj 479 520 expr (($f1*0.002)*($f3-$f2))+$f2;
#X obj 536 566 expr (($f1*0.0015)*($f3-$f2))+$f2;
#X obj 593 615 expr (($f1*0.00117)*($f3-$f2))+$f2;
#X obj 650 666 expr (($f1*0.001)*($f3-$f2))+$f2;
#X obj 143 435 expr (($f1*0.00076)*($f3-$f2))+$f2;
#X obj 200 491 expr (($f1*0.00058)*($f3-$f2))+$f2;
#X obj 257 540 expr (($f1*0.0005)*($f3-$f2))+$f2;
#X obj 314 591 expr (($f1*0.0004)*($f3-$f2))+$f2;
#X obj 377 640 expr (($f1*0.0001)*($f3-$f2))+$f2;
#X obj 440 685 expr (($f1*0.0001)*($f3-$f2))+$f2;
#X connect 0 0 2 0;
#X connect 0 1 1 0;
#X connect 1 0 44 0;
#X connect 1 1 3 0;
#X connect 2 0 43 0;
#X connect 3 0 45 0;
#X connect 3 1 4 0;
#X connect 4 0 46 0;
#X connect 4 1 5 0;
#X connect 5 0 47 0;
#X connect 5 1 6 0;
#X connect 6 0 48 0;
#X connect 6 1 7 0;
#X connect 7 0 49 0;
#X connect 7 1 8 0;
#X connect 8 0 50 0;
#X connect 8 1 9 0;
#X connect 9 0 51 0;
#X connect 9 1 10 0;
#X connect 10 0 52 0;
#X connect 10 1 11 0;
#X connect 11 0 53 0;
#X connect 11 1 12 0;
#X connect 12 0 54 0;
#X connect 12 1 13 0;
#X connect 13 0 55 0;
#X connect 13 1 14 0;
#X connect 14 0 56 0;
#X connect 14 1 15 0;
#X connect 15 0 57 0;
#X connect 15 1 16 0;
#X connect 16 0 58 0;
#X connect 16 1 17 0;
#X connect 17 0 59 0;
#X connect 17 1 18 0;
#X connect 18 0 60 0;
#X connect 18 1 19 0;
#X connect 19 0 61 0;
#X connect 19 1 20 0;
#X connect 20 0 62 0;
#X connect 20 1 21 0;
#X connect 21 0 63 0;
#X connect 21 1 22 0;
#X connect 22 0 64 0;
#X connect 22 1 23 0;
#X connect 23 0 65 0;
#X connect 23 1 24 0;
#X connect 24 0 66 0;
#X connect 24 1 25 0;
#X connect 25 0 67 0;
#X connect 25 1 26 0;
#X connect 26 0 68 0;
#X connect 26 1 27 0;
#X connect 27 0 69 0;
#X connect 27 1 28 0;
#X connect 28 0 70 0;
#X connect 28 1 29 0;
#X connect 29 0 71 0;
#X connect 29 1 30 0;
#X connect 30 0 72 0;
#X connect 31 0 34 0;
#X connect 32 0 44 1;
#X connect 32 1 44 2;
#X connect 32 1 45 1;
#X connect 32 2 45 2;
#X connect 32 2 46 1;
#X connect 32 3 46 2;
#X connect 32 3 47 1;
#X connect 32 4 47 2;
#X connect 32 4 48 1;
#X connect 32 5 48 2;
#X connect 32 5 49 1;
#X connect 32 6 49 2;
#X connect 32 6 50 1;
#X connect 32 7 50 2;
#X connect 32 7 51 1;
#X connect 32 8 51 2;
#X connect 32 8 52 1;
#X connect 32 9 52 2;
#X connect 32 9 53 1;
#X connect 32 10 53 2;
#X connect 32 10 54 1;
#X connect 32 11 54 2;
#X connect 32 11 55 1;
#X connect 32 12 55 2;
#X connect 32 12 56 1;
#X connect 32 13 56 2;
#X connect 32 13 57 1;
#X connect 32 14 57 2;
#X connect 32 14 58 1;
#X connect 32 15 58 2;
#X connect 32 15 59 1;
#X connect 32 16 59 2;
#X connect 32 16 60 1;
#X connect 32 17 60 2;
#X connect 32 17 61 1;
#X connect 32 18 61 2;
#X connect 32 18 62 1;
#X connect 32 19 62 2;
#X connect 32 19 63 1;
#X connect 32 20 63 2;
#X connect 32 20 64 1;
#X connect 32 21 64 2;
#X connect 32 21 65 1;
#X connect 32 22 65 2;
#X connect 32 22 66 1;
#X connect 32 23 66 2;
#X connect 32 23 67 1;
#X connect 32 24 67 2;
#X connect 32 24 68 1;
#X connect 32 25 68 2;
#X connect 32 25 69 1;
#X connect 32 26 69 2;
#X connect 32 26 70 1;
#X connect 32 27 70 2;
#X connect 32 27 71 1;
#X connect 32 28 71 2;
#X connect 32 28 72 1;
#X connect 32 28 72 2;
#X connect 33 0 35 0;
#X connect 34 0 38 0;
#X connect 34 1 32 0;
#X connect 35 0 41 0;
#X connect 36 0 35 1;
#X connect 37 0 35 1;
#X connect 38 0 33 0;
#X connect 39 0 36 0;
#X connect 40 1 39 0;
#X connect 41 0 43 1;
#X connect 41 1 40 0;
#X connect 41 2 37 0;
#X connect 41 3 0 0;
#X connect 43 0 42 0;
#X connect 44 0 43 0;
#X connect 45 0 43 0;
#X connect 46 0 43 0;
#X connect 47 0 43 0;
#X connect 48 0 43 0;
#X connect 49 0 43 0;
#X connect 50 0 43 0;
#X connect 51 0 43 0;
#X connect 52 0 43 0;
#X connect 53 0 43 0;
#X connect 54 0 43 0;
#X connect 55 0 43 0;
#X connect 56 0 43 0;
#X connect 57 0 43 0;
#X connect 58 0 43 0;
#X connect 59 0 43 0;
#X connect 60 0 43 0;
#X connect 61 0 43 0;
#X connect 62 0 43 0;
#X connect 63 0 43 0;
#X connect 64 0 43 0;
#X connect 65 0 43 0;
#X connect 66 0 43 0;
#X connect 67 0 43 0;
#X connect 68 0 43 0;
#X connect 69 0 43 0;
#X connect 70 0 43 0;
#X connect 71 0 43 0;
#X connect 72 0 43 0;
#X restore 437 99 pd mosesloop;
#X obj 526 24 t l;
#X obj 436 78 list;
#X obj 396 -17 sel 12500;
#X obj 457 48 list prepend;
#X msg 397 302 -31.6 -27.2 -23 -19.1 -15.9 -13 -10.3 -8.1 -6.2 -4.5
-3.1 -2 -1.1 -0.4 0 0.3 0.5 0 -2.7 -4.1 -1 1.7 2.5 1.2 -2.1 -7.1 -11.2
-17 -31;
#X obj 559 234 loadbang;
#X obj 559 255 t b b b b;
#X obj 249 -16 t b f;
#X obj 397 5 t b b b;
#X obj 22 208 list prepend;
#X connect 0 0 70 0;
#X connect 1 0 26 0;
#X connect 1 1 3 1;
#X connect 1 2 5 0;
#X connect 2 0 3 0;
#X connect 3 0 1 0;
#X connect 4 0 2 0;
#X connect 4 1 3 1;
#X connect 5 0 2 1;
#X connect 5 0 11 0;
#X connect 10 0 24 1;
#X connect 11 0 24 1;
#X connect 12 0 9 0;
#X connect 13 0 4 0;
#X connect 14 0 25 0;
#X connect 14 1 16 1;
#X connect 14 2 18 0;
#X connect 15 0 16 0;
#X connect 16 0 14 0;
#X connect 17 0 15 0;
#X connect 17 1 16 1;
#X connect 18 0 15 1;
#X connect 18 0 20 0;
#X connect 19 0 23 1;
#X connect 20 0 23 1;
#X connect 21 0 22 0;
#X connect 23 0 19 0;
#X connect 23 0 21 1;
#X connect 24 0 10 0;
#X connect 24 0 12 1;
#X connect 25 0 21 0;
#X connect 25 1 23 0;
#X connect 26 0 12 0;
#X connect 26 1 24 0;
#X connect 27 0 31 0;
#X connect 28 0 37 0;
#X connect 28 1 30 1;
#X connect 28 2 32 0;
#X connect 29 0 30 0;
#X connect 30 0 28 0;
#X connect 31 0 29 0;
#X connect 31 1 30 1;
#X connect 32 0 29 1;
#X connect 32 0 34 0;
#X connect 33 0 36 1;
#X connect 34 0 36 1;
#X connect 35 0 38 0;
#X connect 36 0 33 0;
#X connect 36 0 35 1;
#X connect 37 0 35 0;
#X connect 37 1 36 0;
#X connect 39 0 49 0;
#X connect 40 0 49 1;
#X connect 41 0 49 2;
#X connect 42 0 44 0;
#X connect 43 0 44 1;
#X connect 44 0 43 0;
#X connect 44 0 45 0;
#X connect 44 0 48 0;
#X connect 45 0 46 0;
#X connect 46 0 47 0;
#X connect 46 1 42 1;
#X connect 47 0 44 1;
#X connect 48 0 39 0;
#X connect 48 1 40 0;
#X connect 48 2 41 0;
#X connect 49 0 81 0;
#X connect 50 0 51 0;
#X connect 51 0 53 1;
#X connect 52 0 53 1;
#X connect 53 0 52 0;
#X connect 53 0 50 0;
#X connect 53 0 69 0;
#X connect 55 0 79 0;
#X connect 56 0 60 0;
#X connect 57 0 66 0;
#X connect 57 1 59 1;
#X connect 57 2 61 0;
#X connect 58 0 59 0;
#X connect 59 0 57 0;
#X connect 60 0 58 0;
#X connect 60 1 59 1;
#X connect 61 0 58 1;
#X connect 61 0 63 0;
#X connect 62 0 65 1;
#X connect 63 0 65 1;
#X connect 64 0 67 0;
#X connect 65 0 62 0;
#X connect 65 0 64 1;
#X connect 66 0 64 0;
#X connect 66 1 65 0;
#X connect 69 0 74 0;
#X connect 70 1 42 0;
#X connect 70 2 81 1;
#X connect 71 0 54 0;
#X connect 72 0 75 1;
#X connect 73 0 71 0;
#X connect 74 0 80 0;
#X connect 75 0 72 0;
#X connect 75 0 73 1;
#X connect 76 0 17 0;
#X connect 77 0 78 0;
#X connect 78 0 27 0;
#X connect 78 1 76 0;
#X connect 78 2 13 0;
#X connect 78 3 56 0;
#X connect 79 0 53 0;
#X connect 79 1 75 0;
#X connect 80 0 73 1;
#X connect 80 1 75 1;
#X connect 80 2 73 0;
#X connect 81 0 55 0;
#X restore 46 304 pd iso226;
#X obj 144 250 s PIRadioDB;
#X msg 23 233 10;
#X msg 36 214 20;
#X msg 50 195 30;
#X msg 63 176 40;
#X msg 77 157 50;
#X msg 90 138 60;
#X msg 104 119 70;
#X msg 117 100 80;
#X msg 131 81 90;
#X msg 144 62 100;
#X obj 46 284 r PIRadioDB;
#X obj 246 47 tabread4 fletcherandmunsoncurve;
#X obj 231 26 r PIslidefreq;
#X obj 246 198 line~;
#X obj 23 6 r PIRadio;
#X obj 246 136 pack 0 20;
#X obj 246 91 pow 0.5;
#X obj 246 113 * 0.1;
#X obj 23 35 sel 0 1 2 3 4 5 6 7 8 9;
#X obj 231 248 line~;
#X obj 231 226 pack 0 20;
#X obj 231 269 osc~;
#X obj 231 293 *~;
#X obj 231 320 throw~ L;
#X obj 291 320 throw~ R;
#X obj 336 198 line~;
#X obj 336 136 pack 0 20;
#X obj 336 91 pow 0.5;
#X obj 336 113 * 0.1;
#X obj 336 26 r PIRadioDB;
#X obj 444 24 r PIradiogate;
#X obj 444 59 sel 0 1;
#X msg 553 111 0;
#X msg 514 153 1;
#X obj 336 165 spigot;
#X obj 514 89 t b b b;
#X msg 533 131 0;
#X obj 246 166 spigot;
#X msg 483 111 0;
#X msg 444 153 1;
#X msg 463 131 0;
#X obj 444 86 t b b b;
#X obj 336 68 f;
#X obj 246 69 f;
#X connect 2 0 1 0;
#X connect 3 0 1 0;
#X connect 4 0 1 0;
#X connect 5 0 1 0;
#X connect 6 0 1 0;
#X connect 7 0 1 0;
#X connect 8 0 1 0;
#X connect 9 0 1 0;
#X connect 10 0 1 0;
#X connect 11 0 1 0;
#X connect 12 0 0 0;
#X connect 13 0 45 0;
#X connect 14 0 13 0;
#X connect 14 0 22 0;
#X connect 15 0 24 1;
#X connect 16 0 20 0;
#X connect 17 0 39 0;
#X connect 18 0 19 0;
#X connect 19 0 17 0;
#X connect 20 0 2 0;
#X connect 20 1 3 0;
#X connect 20 2 4 0;
#X connect 20 3 5 0;
#X connect 20 4 6 0;
#X connect 20 5 7 0;
#X connect 20 6 8 0;
#X connect 20 7 9 0;
#X connect 20 8 10 0;
#X connect 20 9 11 0;
#X connect 21 0 23 0;
#X connect 22 0 21 0;
#X connect 23 0 24 0;
#X connect 24 0 26 0;
#X connect 24 0 25 0;
#X connect 27 0 24 1;
#X connect 28 0 36 0;
#X connect 29 0 30 0;
#X connect 30 0 28 0;
#X connect 31 0 44 0;
#X connect 32 0 33 0;
#X connect 33 0 43 0;
#X connect 33 1 37 0;
#X connect 34 0 28 0;
#X connect 35 0 39 1;
#X connect 36 0 27 0;
#X connect 37 0 35 0;
#X connect 37 0 45 0;
#X connect 37 1 38 0;
#X connect 37 2 34 0;
#X connect 38 0 36 1;
#X connect 39 0 15 0;
#X connect 40 0 17 0;
#X connect 41 0 36 1;
#X connect 42 0 39 1;
#X connect 43 0 41 0;
#X connect 43 0 44 0;
#X connect 43 1 42 0;
#X connect 43 2 40 0;
#X connect 44 0 29 0;
#X connect 45 0 18 0;
#X restore 427 352 pd LDN;
#X text 42 538 www.nucleomusicanova.com | www.unespar.edu.br;
#X text 42 459 BiA – Acoustics Library;
#X text 42 522 patch by Clayton Rosa Mamedes;
#X text 42 476 © 2016 Grupo de Pesquisa Núcleo Música Nova (CNPq/UNESPAR)
Grupo de Pesquisa em Criação Musical \, Gesto e Processos de Interação
Artística (UFPR);
