#N canvas 593 164 486 565 10;
#X obj 13 106 hsl 42 23 0.01 1 1 0 \$0-v \$0-v volume 7 13 1 9 -245500
-13381 -1 0 0;
#X obj 57 106 tgl 18 0 THIS_IS_HERE_TO_GET_RID_OF_THE_OUTLET \$0-dsp-toggle
dsp 2 9 1 9 -262144 -195568 -33289 0 1;
#N canvas 366 514 482 356 dsp 0;
#X obj 11 7 inlet;
#X obj 92 226 select 0 1;
#X msg 125 248 6;
#X obj 92 57 route dsp;
#X obj 92 36 receive pd;
#X obj 206 138 loadbang;
#X msg 11 220 dsp \$1;
#X obj 11 245 send pd;
#X msg 206 278 set \$1;
#X obj 206 174 value GLOBAL_PDDP_DSP;
#X msg 109 278 color \$1 20 12;
#X obj 180 309 send \$0-dsp-toggle;
#X obj 92 115 change;
#X msg 92 247 0;
#X connect 0 0 6 0;
#X connect 0 0 12 0;
#X connect 1 0 13 0;
#X connect 1 1 2 0;
#X connect 2 0 10 0;
#X connect 3 0 12 0;
#X connect 4 0 3 0;
#X connect 5 0 9 0;
#X connect 6 0 7 0;
#X connect 8 0 11 0;
#X connect 9 0 8 0;
#X connect 9 0 1 0;
#X connect 10 0 11 0;
#X connect 12 0 8 0;
#X connect 12 0 1 0;
#X connect 12 0 9 0;
#X connect 13 0 10 0;
#X restore 82 158 pd dsp logic;
#X obj 86 283 line~;
#X obj 186 343 *~;
#X obj 206 373 dac~;
#X text 213 32 audio in;
#X obj 248 342 *~;
#X obj 201 83 hip~ 3;
#X obj 263 83 hip~ 3;
#X obj 12 298 send pd;
#X msg 12 277 dsp 1;
#X obj 86 262 pack 0 50;
#X text 153 261 <-- make a ramp to avoid clicks or zipper noise;
#X msg 86 227 0;
#X obj 86 204 moses 0.011;
#X text 307 84 filter out DC;
#X floatatom 224 224 5 0 0 0 - - IntensidadeTotalLinear, f 5;
#X floatatom 300 224 5 0 0 0 - - IntensidadeTotaldB, f 5;
#X obj 300 191 powtodb;
#X obj 201 50 catch~ L;
#X obj 263 50 catch~ R;
#X text 48 505 www.nucleomusicanova.com | www.unespar.edu.br;
#X text 48 426 BiA – Acoustics Library;
#X text 48 489 patch by Clayton Rosa Mamedes;
#X text 48 443 © 2016 Grupo de Pesquisa Núcleo Música Nova (CNPq/UNESPAR)
Grupo de Pesquisa em Criação Musical \, Gesto e Processos de Interação
Artística (UFPR);
#X connect 0 0 11 0;
#X connect 0 0 17 0;
#X connect 0 0 19 0;
#X connect 0 0 12 0;
#X connect 1 0 2 0;
#X connect 3 0 7 0;
#X connect 3 0 4 0;
#X connect 4 0 5 0;
#X connect 7 0 5 1;
#X connect 8 0 4 1;
#X connect 9 0 7 1;
#X connect 11 0 10 0;
#X connect 12 0 3 0;
#X connect 15 0 14 0;
#X connect 15 1 12 0;
#X connect 15 1 17 0;
#X connect 15 1 19 0;
#X connect 19 0 18 0;
#X connect 20 0 8 0;
#X connect 21 0 9 0;
#X coords 0 0 1 1 65 39 1 10 90;
