#N canvas 436 176 486 532 10;
#X obj 233 322 outcontrol~;
#X obj 111 130 hsl 64 15 0 63 0 0 AV10Hlevel AV10Hinitlevel empty -2
-8 0 10 -262144 -1 -1 1054 1;
#X obj 111 147 hsl 64 15 0 63 0 0 AV9Hlevel AV9Hinitlevel empty -2
-8 0 10 -262144 -1 -1 1156 1;
#X obj 111 164 hsl 64 15 0 63 0 0 AV8Hlevel AV8Hinitlevel empty -2
-8 0 10 -262144 -1 -1 1270 1;
#X obj 111 181 hsl 64 15 0 63 0 0 AV7Hlevel AV7Hinitlevel empty -2
-8 0 10 -262144 -1 -1 1422 1;
#X obj 111 198 hsl 64 15 0 63 0 0 AV6Hlevel AV6Hinitlevel empty -2
-8 0 10 -262144 -1 -1 1587 1;
#X obj 111 215 hsl 64 15 0 63 0 0 AV5Hlevel AV5Hinitlevel empty -2
-8 0 10 -262144 -1 -1 1803 1;
#X obj 111 232 hsl 64 15 0 63 0 0 AV4Hlevel AV4Hinitlevel empty -2
-8 0 10 -262144 -1 -1 2121 1;
#X obj 111 249 hsl 64 15 0 63 0 0 AV3Hlevel AV3Hinitlevel empty -2
-8 0 10 -262144 -1 -1 2540 1;
#X obj 111 266 hsl 64 15 0 63 0 0 AV2Hlevel AV2Hinitlevel empty -2
-8 0 10 -262144 -1 -1 3175 1;
#X obj 111 283 hsl 64 15 0 63 0 0 AV1Hlevel AV1Hinitlevel empty -2
-8 0 10 -262144 -1 -1 4229 1;
#X obj 111 300 hsl 64 15 0 63 0 0 AVFlevel AVFinitlevel empty -2 -8
0 10 -262144 -1 -1 6300 1;
#X text 83 145 10º;
#X text 89 162 9º;
#X text 89 179 8º;
#X text 89 196 7º;
#X text 89 213 6º;
#X text 89 230 5º;
#X text 89 247 4º;
#X text 89 264 3º;
#X text 35 297 Fundamental;
#X obj 292 111 vradio 15 1 0 5 HARadio HARadioIn empty 0 -8 0 10 -262144
-1 -1 2;
#X text 313 155 750 Hz;
#X text 313 139 440 Hz;
#X text 313 123 210 Hz;
#X text 318 108 80 Hz;
#X text 320 170 1 kHz;
#X obj 111 326 bng 15 250 50 0 AVreset empty empty 17 7 0 10 -262144
-1 -1;
#X text 130 325 Reset;
#X text 89 280 2º;
#X text 83 128 11º;
#X obj 294 205 vradio 15 1 0 5 TimbreRadio TimbreRadioIn empty 0 -8
0 10 -262144 -1 -1 0;
#X text 248 236 Timbre;
#X text 159 10 Virtual Pitch;
#X text 42 108 Intensity of Harmonics;
#X text 217 131 Fundamental;
#X text 229 146 Frequency;
#X text 313 203 Sawtooth;
#X text 312 218 Flute;
#X text 312 234 Clarinet;
#X text 314 250 Oboe;
#X text 314 266 Inverted Distribution;
#N canvas 422 230 464 376 VirtualPitch 1;
#X obj 36 67 sel 0 1 2 3 4;
#X msg 36 107 80;
#X msg 51 133 210;
#X msg 66 156 440;
#X msg 81 182 750;
#X msg 96 207 1000;
#X obj 36 232 s HARadioFreq;
#X obj 36 38 r HARadio;
#X obj 172 15 loadbang;
#N canvas 358 411 491 286 harmonico10 0;
#X obj 55 141 osc~;
#X obj 55 171 *~ 0;
#X obj 55 85 r HARadioFreq;
#X obj 147 15 inlet;
#X obj 55 205 throw~ L;
#X obj 113 205 throw~ R;
#X obj 147 62 * 127;
#X obj 91 141 expr $f1/127;
#X floatatom 174 141 5 0 0 0 - - -, f 5;
#X obj 326 44 sel 0 1 2 3 4;
#X obj 326 15 r TimbreRadio;
#X msg 386 184 0.5;
#X msg 326 84 0.083;
#X obj 147 38 f 0.083;
#X obj 55 113 * 11;
#X obj 147 85 s AV10Hinitlevel;
#X obj 91 114 r AV10Hlevel;
#X msg 341 110 0;
#X msg 356 133 0.007;
#X obj 326 209 s TimbreRadioFreqH10;
#X obj 195 38 r TimbreRadioFreqH10;
#X msg 371 159 0.007;
#X connect 0 0 1 0;
#X connect 1 0 5 0;
#X connect 1 0 4 0;
#X connect 2 0 14 0;
#X connect 3 0 13 0;
#X connect 6 0 15 0;
#X connect 7 0 1 1;
#X connect 9 0 12 0;
#X connect 9 1 17 0;
#X connect 9 2 18 0;
#X connect 9 3 21 0;
#X connect 9 4 11 0;
#X connect 10 0 9 0;
#X connect 11 0 19 0;
#X connect 12 0 19 0;
#X connect 13 0 6 0;
#X connect 14 0 0 0;
#X connect 16 0 7 0;
#X connect 16 0 8 0;
#X connect 17 0 19 0;
#X connect 18 0 19 0;
#X connect 20 0 6 0;
#X connect 21 0 19 0;
#X restore 305 105 pd harmonico10;
#N canvas 43 296 481 274 harmonico9 0;
#X obj 45 141 osc~;
#X obj 45 171 *~ 0;
#X obj 45 85 r HARadioFreq;
#X obj 45 113 * 10;
#X obj 137 15 inlet;
#X obj 45 205 throw~ L;
#X obj 103 205 throw~ R;
#X obj 137 62 * 127;
#X obj 81 141 expr $f1/127;
#X floatatom 164 141 5 0 0 0 - - -, f 5;
#X obj 306 44 sel 0 1 2 3 4;
#X obj 306 15 r TimbreRadio;
#X obj 137 38 f 0.091;
#X msg 306 84 0.091;
#X obj 137 85 s AV9Hinitlevel;
#X obj 81 114 r AV9Hlevel;
#X msg 321 110 0.24;
#X msg 336 133 0;
#X obj 306 209 s TimbreRadioFreqH9;
#X obj 175 38 r TimbreRadioFreqH9;
#X msg 351 159 0.0157;
#X msg 366 184 0.333;
#X connect 0 0 1 0;
#X connect 1 0 6 0;
#X connect 1 0 5 0;
#X connect 2 0 3 0;
#X connect 3 0 0 0;
#X connect 4 0 12 0;
#X connect 7 0 14 0;
#X connect 8 0 1 1;
#X connect 10 0 13 0;
#X connect 10 1 16 0;
#X connect 10 2 17 0;
#X connect 10 3 20 0;
#X connect 10 4 21 0;
#X connect 11 0 10 0;
#X connect 12 0 7 0;
#X connect 13 0 18 0;
#X connect 15 0 8 0;
#X connect 15 0 9 0;
#X connect 16 0 18 0;
#X connect 17 0 18 0;
#X connect 19 0 7 0;
#X connect 20 0 18 0;
#X connect 21 0 18 0;
#X restore 292 124 pd harmonico9;
#N canvas 358 411 476 281 harmonico8 0;
#X obj 45 141 osc~;
#X obj 45 171 *~ 0;
#X obj 45 85 r HARadioFreq;
#X obj 137 15 inlet;
#X obj 45 205 throw~ L;
#X obj 103 205 throw~ R;
#X obj 137 62 * 127;
#X obj 81 141 expr $f1/127;
#X floatatom 164 141 5 0 0 0 - - -, f 5;
#X obj 306 44 sel 0 1 2 3 4;
#X obj 306 15 r TimbreRadio;
#X obj 137 38 f 0.1;
#X obj 45 113 * 9;
#X msg 306 84 0.1;
#X obj 137 85 s AV8Hinitlevel;
#X obj 81 114 r AV8Hlevel;
#X msg 321 110 0;
#X msg 336 133 0.015;
#X obj 306 209 s TimbreRadioFreqH8;
#X obj 175 38 r TimbreRadioFreqH8;
#X msg 351 159 0.023;
#X msg 366 184 0.25;
#X connect 0 0 1 0;
#X connect 1 0 5 0;
#X connect 1 0 4 0;
#X connect 2 0 12 0;
#X connect 3 0 11 0;
#X connect 6 0 14 0;
#X connect 7 0 1 1;
#X connect 9 0 13 0;
#X connect 9 1 16 0;
#X connect 9 2 17 0;
#X connect 9 3 20 0;
#X connect 9 4 21 0;
#X connect 10 0 9 0;
#X connect 11 0 6 0;
#X connect 12 0 0 0;
#X connect 13 0 18 0;
#X connect 15 0 7 0;
#X connect 15 0 8 0;
#X connect 16 0 18 0;
#X connect 17 0 18 0;
#X connect 19 0 6 0;
#X connect 20 0 18 0;
#X connect 21 0 18 0;
#X restore 278 143 pd harmonico8;
#N canvas 678 426 454 268 harmonico7 0;
#X obj 35 141 osc~;
#X obj 35 171 *~ 0;
#X obj 35 85 r HARadioFreq;
#X obj 127 15 inlet;
#X obj 35 205 throw~ L;
#X obj 93 205 throw~ R;
#X obj 127 62 * 127;
#X obj 71 141 expr $f1/127;
#X floatatom 154 141 5 0 0 0 - - -, f 5;
#X obj 296 44 sel 0 1 2 3 4;
#X obj 296 15 r TimbreRadio;
#X msg 296 84 0.112;
#X obj 127 38 f 0.112;
#X obj 35 113 * 8;
#X obj 127 85 s AV7Hinitlevel;
#X obj 71 114 r AV7Hlevel;
#X msg 311 110 0.3;
#X msg 326 133 0;
#X obj 296 209 s TimbreRadioFreqH7;
#X obj 175 38 r TimbreRadioFreqH7;
#X msg 341 159 0.031;
#X msg 356 184 0.2;
#X connect 0 0 1 0;
#X connect 1 0 5 0;
#X connect 1 0 4 0;
#X connect 2 0 13 0;
#X connect 3 0 12 0;
#X connect 6 0 14 0;
#X connect 7 0 1 1;
#X connect 9 0 11 0;
#X connect 9 1 16 0;
#X connect 9 2 17 0;
#X connect 9 3 20 0;
#X connect 9 4 21 0;
#X connect 10 0 9 0;
#X connect 11 0 18 0;
#X connect 12 0 6 0;
#X connect 13 0 0 0;
#X connect 15 0 7 0;
#X connect 15 0 8 0;
#X connect 16 0 18 0;
#X connect 17 0 18 0;
#X connect 19 0 6 0;
#X connect 20 0 18 0;
#X connect 21 0 18 0;
#X restore 265 162 pd harmonico7;
#N canvas 358 411 452 268 harmonico6 0;
#X obj 25 141 osc~;
#X obj 25 171 *~ 0;
#X obj 25 85 r HARadioFreq;
#X obj 117 15 inlet;
#X obj 25 205 throw~ L;
#X obj 83 205 throw~ R;
#X obj 117 62 * 127;
#X obj 61 141 expr $f1/127;
#X floatatom 144 141 5 0 0 0 - - -, f 5;
#X obj 286 44 sel 0 1 2 3 4;
#X obj 286 15 r TimbreRadio;
#X msg 286 84 0.125;
#X obj 117 38 f 0.125;
#X obj 25 113 * 7;
#X obj 117 85 s AV6Hinitlevel;
#X obj 61 114 r AV6Hlevel;
#X msg 301 110 0;
#X msg 316 133 0.1;
#X obj 286 209 s TimbreRadioFreqH6;
#X obj 165 38 r TimbreRadioFreqH6;
#X msg 331 159 0;
#X msg 346 184 0.167;
#X connect 0 0 1 0;
#X connect 1 0 5 0;
#X connect 1 0 4 0;
#X connect 2 0 13 0;
#X connect 3 0 12 0;
#X connect 6 0 14 0;
#X connect 7 0 1 1;
#X connect 9 0 11 0;
#X connect 9 1 16 0;
#X connect 9 2 17 0;
#X connect 9 3 20 0;
#X connect 9 4 21 0;
#X connect 10 0 9 0;
#X connect 11 0 18 0;
#X connect 12 0 6 0;
#X connect 13 0 0 0;
#X connect 15 0 7 0;
#X connect 15 0 8 0;
#X connect 16 0 18 0;
#X connect 17 0 18 0;
#X connect 19 0 6 0;
#X connect 20 0 18 0;
#X connect 21 0 18 0;
#X restore 252 181 pd harmonico6;
#N canvas 358 411 464 272 harmonico5 0;
#X obj 35 141 osc~;
#X obj 35 171 *~ 0;
#X obj 35 85 r HARadioFreq;
#X obj 127 15 inlet;
#X obj 35 205 throw~ L;
#X obj 93 205 throw~ R;
#X obj 127 62 * 127;
#X obj 71 141 expr $f1/127;
#X floatatom 154 141 5 0 0 0 - - -, f 5;
#X obj 296 44 sel 0 1 2 3 4;
#X obj 296 15 r TimbreRadio;
#X msg 296 84 0.142;
#X obj 127 38 f 0.142;
#X obj 35 113 * 6;
#X obj 127 85 s AV5Hinitlevel;
#X obj 71 114 r AV5Hlevel;
#X msg 311 110 0.165;
#X msg 326 133 0;
#X obj 296 209 s TimbreRadioFreqH5;
#X obj 175 38 r TimbreRadioFreqH5;
#X msg 341 159 0.12;
#X msg 356 184 0.142;
#X connect 0 0 1 0;
#X connect 1 0 5 0;
#X connect 1 0 4 0;
#X connect 2 0 13 0;
#X connect 3 0 12 0;
#X connect 6 0 14 0;
#X connect 7 0 1 1;
#X connect 9 0 11 0;
#X connect 9 1 16 0;
#X connect 9 2 17 0;
#X connect 9 3 20 0;
#X connect 9 4 21 0;
#X connect 10 0 9 0;
#X connect 11 0 18 0;
#X connect 12 0 6 0;
#X connect 13 0 0 0;
#X connect 15 0 7 0;
#X connect 15 0 8 0;
#X connect 16 0 18 0;
#X connect 17 0 18 0;
#X connect 19 0 6 0;
#X connect 20 0 18 0;
#X connect 21 0 18 0;
#X restore 238 200 pd harmonico5;
#N canvas 123 67 445 269 harmonico4 0;
#X obj 36 141 osc~;
#X obj 36 171 *~ 0;
#X obj 36 85 r HARadioFreq;
#X obj 128 15 inlet;
#X obj 36 205 throw~ L;
#X obj 94 205 throw~ R;
#X obj 128 62 * 127;
#X obj 72 141 expr $f1/127;
#X floatatom 155 141 5 0 0 0 - - -, f 5;
#X obj 297 44 sel 0 1 2 3 4;
#X obj 297 15 r TimbreRadio;
#X obj 128 38 f 0.167;
#X msg 297 84 0.167;
#X obj 36 113 * 5;
#X obj 128 85 s AV4Hinitlevel;
#X obj 72 114 r AV4Hlevel;
#X msg 312 110 0.3;
#X msg 327 133 0.126;
#X obj 297 209 s TimbreRadioFreqH4;
#X obj 176 38 r TimbreRadioFreqH4;
#X msg 342 159 0.17;
#X msg 357 184 0.125;
#X connect 0 0 1 0;
#X connect 1 0 5 0;
#X connect 1 0 4 0;
#X connect 2 0 13 0;
#X connect 3 0 11 0;
#X connect 6 0 14 0;
#X connect 7 0 1 1;
#X connect 9 0 12 0;
#X connect 9 1 16 0;
#X connect 9 2 17 0;
#X connect 9 3 20 0;
#X connect 9 4 21 0;
#X connect 10 0 9 0;
#X connect 11 0 6 0;
#X connect 12 0 18 0;
#X connect 13 0 0 0;
#X connect 15 0 7 0;
#X connect 15 0 8 0;
#X connect 16 0 18 0;
#X connect 17 0 18 0;
#X connect 19 0 6 0;
#X connect 20 0 18 0;
#X connect 21 0 18 0;
#X restore 225 219 pd harmonico4;
#N canvas 137 129 463 269 harmonico3 0;
#X obj 45 141 osc~;
#X obj 45 171 *~ 0;
#X obj 45 85 r HARadioFreq;
#X obj 137 15 inlet;
#X obj 45 205 throw~ L;
#X obj 103 205 throw~ R;
#X obj 137 62 * 127;
#X obj 81 141 expr $f1/127;
#X floatatom 164 141 5 0 0 0 - - -, f 5;
#X obj 306 44 sel 0 1 2 3 4;
#X obj 306 15 r TimbreRadio;
#X obj 137 38 f 0.2;
#X obj 45 113 * 4;
#X obj 137 85 s AV3Hinitlevel;
#X obj 81 114 r AV3Hlevel;
#X msg 321 110 0.41;
#X msg 336 133 0;
#X obj 306 209 s TimbreRadioFreqH3;
#X obj 175 38 r TimbreRadioFreqH3;
#X msg 351 159 0.4;
#X msg 306 84 0.2;
#X msg 366 184 0.112;
#X connect 0 0 1 0;
#X connect 1 0 5 0;
#X connect 1 0 4 0;
#X connect 2 0 12 0;
#X connect 3 0 11 0;
#X connect 6 0 13 0;
#X connect 7 0 1 1;
#X connect 9 0 20 0;
#X connect 9 1 15 0;
#X connect 9 2 16 0;
#X connect 9 3 19 0;
#X connect 9 4 21 0;
#X connect 10 0 9 0;
#X connect 11 0 6 0;
#X connect 12 0 0 0;
#X connect 14 0 7 0;
#X connect 14 0 8 0;
#X connect 15 0 17 0;
#X connect 16 0 17 0;
#X connect 18 0 6 0;
#X connect 19 0 17 0;
#X connect 20 0 17 0;
#X connect 21 0 17 0;
#X restore 212 238 pd harmonico3;
#N canvas 91 108 461 265 harmonico2 0;
#X obj 45 141 osc~;
#X obj 45 171 *~ 0;
#X obj 45 85 r HARadioFreq;
#X obj 137 15 inlet;
#X obj 45 205 throw~ L;
#X obj 103 205 throw~ R;
#X obj 137 62 * 127;
#X obj 81 141 expr $f1/127;
#X floatatom 164 141 5 0 0 0 - - -, f 5;
#X obj 306 44 sel 0 1 2 3 4;
#X obj 306 15 r TimbreRadio;
#X obj 137 38 f 0.25;
#X msg 306 84 0.25;
#X obj 45 113 * 3;
#X obj 137 85 s AV2Hinitlevel;
#X obj 81 114 r AV2Hlevel;
#X obj 306 209 s TimbreRadioFreqH2;
#X obj 181 38 r TimbreRadioFreqH2;
#X msg 321 110 0.267;
#X msg 336 133 0.26;
#X msg 351 159 0.43;
#X msg 366 184 0.1;
#X connect 0 0 1 0;
#X connect 1 0 5 0;
#X connect 1 0 4 0;
#X connect 2 0 13 0;
#X connect 3 0 11 0;
#X connect 6 0 14 0;
#X connect 7 0 1 1;
#X connect 9 0 12 0;
#X connect 9 1 18 0;
#X connect 9 2 19 0;
#X connect 9 3 20 0;
#X connect 9 4 21 0;
#X connect 10 0 9 0;
#X connect 11 0 6 0;
#X connect 12 0 16 0;
#X connect 13 0 0 0;
#X connect 15 0 7 0;
#X connect 15 0 8 0;
#X connect 17 0 6 0;
#X connect 18 0 16 0;
#X connect 19 0 16 0;
#X connect 20 0 16 0;
#X connect 21 0 16 0;
#X restore 198 257 pd harmonico2;
#N canvas 184 121 745 281 harmonico1 0;
#X obj 45 141 osc~;
#X obj 45 171 *~ 0;
#X obj 45 85 r HARadioFreq;
#X obj 137 15 inlet;
#X obj 45 205 throw~ L;
#X obj 103 205 throw~ R;
#X obj 137 62 * 127;
#X obj 81 141 expr $f1/127;
#X floatatom 164 141 5 0 0 0 - - -, f 5;
#X obj 316 44 sel 0 1 2 3 4;
#X obj 316 15 r TimbreRadio;
#X obj 137 38 f 0.333;
#X msg 316 84 0.333;
#X obj 45 113 * 2;
#X obj 137 85 s AV1Hinitlevel;
#X obj 81 114 r AV1Hlevel;
#X obj 316 209 s TimbreRadioFreqH1;
#X obj 185 38 r TimbreRadioFreqH1;
#X msg 331 110 0.498;
#X msg 346 133 0;
#X msg 361 159 0.47;
#X msg 376 184 0.091;
#X connect 0 0 1 0;
#X connect 1 0 5 0;
#X connect 1 0 4 0;
#X connect 2 0 13 0;
#X connect 3 0 11 0;
#X connect 6 0 14 0;
#X connect 7 0 1 1;
#X connect 9 0 12 0;
#X connect 9 1 18 0;
#X connect 9 2 19 0;
#X connect 9 3 20 0;
#X connect 9 4 21 0;
#X connect 10 0 9 0;
#X connect 11 0 6 0;
#X connect 12 0 16 0;
#X connect 13 0 0 0;
#X connect 15 0 7 0;
#X connect 15 0 8 0;
#X connect 17 0 6 0;
#X connect 18 0 16 0;
#X connect 19 0 16 0;
#X connect 20 0 16 0;
#X connect 21 0 16 0;
#X restore 185 276 pd harmonico1;
#N canvas 657 404 492 293 fundamental 0;
#X obj 55 141 osc~;
#X obj 55 171 *~ 0;
#X obj 55 85 r HARadioFreq;
#X obj 147 15 inlet;
#X obj 55 205 throw~ L;
#X obj 113 205 throw~ R;
#X obj 147 38 f 0.5;
#X obj 147 85 s AVFinitlevel;
#X obj 91 114 r AVFlevel;
#X obj 147 62 * 127;
#X obj 91 141 expr $f1/127;
#X floatatom 174 141 5 0 0 0 - - -, f 5;
#X obj 316 44 sel 0 1 2 3 4;
#X obj 316 15 r TimbreRadio;
#X msg 316 84 0.5;
#X msg 331 110 0.5;
#X msg 346 133 0.5;
#X msg 361 159 0.5;
#X obj 55 113 * 1;
#X obj 185 38 r TimbreRadioFreqF;
#X obj 316 209 s TimbreRadioFreqF;
#X msg 376 184 0.083;
#X connect 0 0 1 0;
#X connect 1 0 5 0;
#X connect 1 0 4 0;
#X connect 2 0 18 0;
#X connect 3 0 6 0;
#X connect 6 0 9 0;
#X connect 8 0 10 0;
#X connect 8 0 11 0;
#X connect 9 0 7 0;
#X connect 10 0 1 1;
#X connect 12 0 14 0;
#X connect 12 1 15 0;
#X connect 12 2 16 0;
#X connect 12 3 17 0;
#X connect 12 4 21 0;
#X connect 13 0 12 0;
#X connect 14 0 20 0;
#X connect 15 0 20 0;
#X connect 16 0 20 0;
#X connect 17 0 20 0;
#X connect 18 0 0 0;
#X connect 19 0 9 0;
#X connect 21 0 20 0;
#X restore 172 295 pd fundamental;
#X obj 172 59 t b b b b b b b b b b b b;
#N canvas 610 326 450 300 setup 0;
#X obj 101 92 s HARadioIn;
#X msg 101 66 0;
#X obj 101 39 inlet;
#X obj 191 92 s TimbreRadioIn;
#X connect 1 0 0 0;
#X connect 1 0 3 0;
#X connect 2 0 1 0;
#X restore 319 86 pd setup;
#X obj 179 35 r AVreset;
#X connect 0 0 1 0;
#X connect 0 1 2 0;
#X connect 0 2 3 0;
#X connect 0 3 4 0;
#X connect 0 4 5 0;
#X connect 1 0 6 0;
#X connect 2 0 6 0;
#X connect 3 0 6 0;
#X connect 4 0 6 0;
#X connect 5 0 6 0;
#X connect 7 0 0 0;
#X connect 8 0 20 0;
#X connect 20 0 19 0;
#X connect 20 1 18 0;
#X connect 20 2 17 0;
#X connect 20 3 16 0;
#X connect 20 4 15 0;
#X connect 20 5 14 0;
#X connect 20 6 13 0;
#X connect 20 7 12 0;
#X connect 20 8 11 0;
#X connect 20 9 10 0;
#X connect 20 10 9 0;
#X connect 20 11 21 0;
#X connect 22 0 20 0;
#X restore 314 322 pd VirtualPitch;
#X text 44 480 www.nucleomusicanova.com | www.unespar.edu.br;
#X text 44 401 BiA – Acoustics Library;
#X text 44 464 patch by Clayton Rosa Mamedes;
#X text 44 418 © 2016 Grupo de Pesquisa Núcleo Música Nova (CNPq/UNESPAR)
Grupo de Pesquisa em Criação Musical \, Gesto e Processos de Interação
Artística (UFPR);
#N canvas 872 69 446 626 exercise 0;
#X text 28 158 =================== exercise ================;
#X text 26 20 In order to rebuild the patch \, use the blank space
in this window and create: 3 number boxes and obejcts [/] and [expr].
;
#X restore 314 344 pd exercise;
#X text 45 34 Virtual pitch \, also known as missing fundamental \,
consists on the perception of the fundamental frequency of a complex
tone even if not present.;
