#N canvas 0 0 925 1129 10; 
#X obj 306 265 pdlua; 
#X obj 60 405 osc~ 440; 
#X obj 185 405 loadbang; 
#X msg 109 435 interval 2; 
#X msg 185 429 framedelay 120; 
#X obj 60 488 send~ audio; 
#X obj 7 44 receive~ audio; 
#X obj 97 44 r m; 
#X obj 8 5 l.nbx 5 16 -1e+37 1e+37 0 1 freq empty empty 0 -9 0 10 #fcfcfc #000000 #000000 440 256; 
#X text 66 4 Freq (Hz); 
#X obj 140 489 dac~; 
#X obj 140 463 *~ 0.1; 
#X obj 60 343 r freq; 
#X obj 60 365 print; 
#X obj 7 69 show~ -width 152 -interval 2; 
#X connect 1 0 5 0; 
#X connect 1 0 11 0; 
#X connect 2 0 4 0; 
#X connect 2 0 3 0; 
#X connect 3 0 5 0; 
#X connect 4 0 5 0; 
#X connect 6 0 14 0; 
#X connect 7 0 14 0; 
#X connect 11 0 10 0; 
#X connect 11 0 10 1; 
#X connect 12 0 1 0; 
#X connect 12 0 13 0; 
#X coords 0 -1 1 1 210 210 1 1 1; 
